<svg width="135" height="131" viewBox="0 0 135 131" fill="none" xmlns="http://www.w3.org/2000/svg">
<g clip-path="url(#clip0_210_502)">
<path d="M109.98 64.7378C109.39 64.7378 108.91 64.2961 108.91 63.744V53.0731C108.91 52.8021 108.91 52.4909 108.91 52.1496C108.95 48.2747 109.03 40.2038 105.1 36.2386C103.23 34.3514 100.9 33.3375 98.3799 33.3275H98.3199C94.6399 33.3275 90.6199 35.3653 86.6899 39.2401C82.3799 43.4763 77.0899 45.0423 72.8899 43.3057C71.8899 42.8941 71.0099 42.3119 70.2599 41.5891C67.7499 42.4022 64.9999 42.603 62.3299 42.0509C56.4099 40.8262 52.8699 36.2587 52.8699 29.8341V10.1185C52.8699 4.58735 49.2499 2.06769 45.8999 2.06769C42.5499 2.06769 38.9299 4.58735 38.9299 10.1185V53.2137C38.9299 53.7658 38.4499 54.2075 37.8599 54.2075C37.2699 54.2075 36.7899 53.7658 36.7899 53.2137V10.1185C36.7799 5.12942 39.9099 0.0800781 45.8999 0.0800781C51.8899 0.0800781 55.0199 5.12942 55.0199 10.1185V29.824C55.0199 35.3251 57.8599 39.0695 62.7999 40.0934C64.6799 40.4849 66.8299 40.4247 68.9199 39.8725C67.7299 37.915 67.1999 35.3552 67.4499 32.4441C67.7799 28.5492 69.7299 25.6681 72.6799 24.7446C74.8099 24.072 77.0399 24.594 78.4799 26.0897C79.3799 27.0233 81.1999 29.7337 78.7199 34.6425C77.3899 37.2625 75.1299 39.3606 72.4199 40.6957C72.8299 41.0069 73.2799 41.2578 73.7699 41.4586C77.1099 42.8339 81.4699 41.4586 85.1399 37.8448C89.4899 33.5684 94.0499 31.3097 98.3299 31.3097H98.3999C101.54 31.3298 104.4 32.5545 106.69 34.8633C111.2 39.4108 111.11 48.0137 111.07 52.1496C111.07 52.4909 111.07 52.792 111.07 53.053V63.7239C111.07 64.276 110.59 64.7177 110 64.7177L109.98 64.7378ZM74.5099 26.4712C74.1299 26.4712 73.7399 26.5314 73.3499 26.6519C71.2399 27.3144 69.8299 29.543 69.5699 32.6147C69.3499 35.2649 69.8499 37.5336 70.9499 39.1799C73.3399 38.1359 75.4699 36.3691 76.7599 33.8193C78.1199 31.119 78.1599 28.8001 76.8599 27.4449C76.2499 26.8125 75.4099 26.4812 74.4999 26.4812L74.5099 26.4712Z" fill="#B01A1F"/>
<path d="M109.98 64.8083C109.34 64.8083 108.82 64.3265 108.82 63.7342V53.0633C108.82 52.7923 108.82 52.4811 108.82 52.1398C108.86 48.2649 108.94 40.2241 105.03 36.279C103.17 34.4018 100.87 33.408 98.37 33.3879H98.31C94.65 33.3879 90.65 35.4257 86.74 39.2705C82.41 43.5368 77.08 45.1028 72.85 43.3561C71.87 42.9546 70.99 42.3824 70.23 41.6596C67.63 42.4928 64.89 42.6434 62.31 42.1113C56.35 40.8766 52.79 36.279 52.79 29.8243V10.1188C52.79 4.63777 49.22 2.14823 45.9 2.14823C42.58 2.14823 39.0099 4.64781 39.0099 10.1188V53.2139C39.0099 53.8062 38.4899 54.288 37.8499 54.288C37.2099 54.288 36.7 53.8062 36.7 53.2139V10.1188C36.7 5.0895 39.86 0 45.9 0C51.94 0 55.1 5.0895 55.1 10.1188V29.8243C55.1 35.2852 57.91 38.9994 62.82 40.0233C64.68 40.4048 66.8 40.3446 68.79 39.8326C67.61 37.845 67.12 35.2952 67.36 32.4443C67.69 28.5193 69.67 25.6182 72.65 24.6846C74.82 24.002 77.07 24.534 78.54 26.0498C79.45 26.9934 81.3 29.7339 78.8 34.6829C77.53 37.1925 75.32 39.3307 72.57 40.716C72.95 40.987 73.36 41.2179 73.8 41.3986C77.11 42.7638 81.43 41.3886 85.07 37.7948C89.43 33.5084 94.01 31.2397 98.32 31.2397H98.39C101.55 31.2598 104.44 32.4945 106.74 34.8134C111.27 39.3809 111.18 48.0039 111.14 52.1498V52.2502C111.14 52.5513 111.14 52.8123 111.14 53.0533V63.7242C111.14 64.3164 110.62 64.7983 109.99 64.7983L109.98 64.8083ZM98.32 33.2373H98.38C100.93 33.2574 103.28 34.2713 105.17 36.1686C109.13 40.1538 109.04 48.2448 109.01 52.1297C109.01 52.471 109.01 52.7822 109.01 53.0533V63.7242C109.01 64.2261 109.45 64.6377 110 64.6377C110.55 64.6377 110.99 64.2261 110.99 63.7242V53.0533C110.99 52.8123 110.99 52.5413 110.99 52.2502V52.1498C111.03 48.024 111.12 39.4411 106.63 34.9238C104.36 32.635 101.51 31.4103 98.4 31.4003H98.33C94.07 31.4003 89.53 33.6489 85.2 37.9052C81.5 41.5392 77.11 42.9345 73.74 41.5392C73.25 41.3384 72.79 41.0774 72.37 40.7562C72.35 40.7361 72.34 40.716 72.34 40.6859C72.34 40.6558 72.36 40.6357 72.38 40.6257C75.15 39.2604 77.38 37.1222 78.65 34.6126C81.11 29.744 79.31 27.0737 78.42 26.1502C77 24.6745 74.82 24.1626 72.71 24.8251C69.8 25.7386 67.86 28.5895 67.54 32.4543C67.3 35.3053 67.81 37.8651 69 39.8326C69.01 39.8527 69.01 39.8828 69 39.9029C69 39.923 68.97 39.943 68.95 39.943C66.9 40.4851 64.71 40.5554 62.79 40.1639C57.8 39.1299 54.94 35.3555 54.94 29.8243V10.1188C54.94 5.16981 51.84 0.150577 45.91 0.150577C39.98 0.150577 36.88 5.15977 36.88 10.1188V53.2139C36.88 53.7158 37.3199 54.1274 37.8699 54.1274C38.4199 54.1274 38.86 53.7158 38.86 53.2139V10.1188C38.86 4.53738 42.5199 1.98762 45.9199 1.98762C49.32 1.98762 52.98 4.52735 52.98 10.1188V29.8243C52.98 36.2087 56.49 40.7461 62.38 41.9608C64.95 42.4928 67.68 42.3322 70.26 41.499C70.29 41.489 70.32 41.499 70.35 41.5191C71.1 42.2418 71.97 42.814 72.95 43.2156C77.12 44.9322 82.37 43.3762 86.65 39.16C90.6 35.2752 94.64 33.2273 98.34 33.2273L98.32 33.2373ZM70.96 39.2504C70.96 39.2504 70.91 39.2403 70.89 39.2102C69.76 37.5238 69.27 35.235 69.5 32.6049C69.76 29.493 71.19 27.2444 73.33 26.5718C73.72 26.4513 74.12 26.3911 74.51 26.3911C75.46 26.3911 76.32 26.7425 76.93 27.3849C78.25 28.7602 78.22 31.1192 76.84 33.8497C75.6399 36.2288 73.61 38.096 70.99 39.2504C70.98 39.2504 70.97 39.2504 70.95 39.2504H70.96ZM74.51 26.5417C74.13 26.5417 73.75 26.6019 73.38 26.7224C71.31 27.3749 69.92 29.5733 69.66 32.625C69.44 35.1948 69.9 37.4234 70.99 39.0797C73.55 37.9454 75.52 36.1184 76.7 33.7895C78.05 31.1192 78.09 28.8204 76.81 27.4953C76.23 26.893 75.41 26.5517 74.51 26.5517V26.5417Z" fill="#5A0000"/>
<g style="mix-blend-mode:multiply">
<path d="M70.1199 37.5439C70.1199 37.5439 70.1199 37.5841 70.1199 37.6041C70.0999 37.6945 70.0899 37.7748 70.0599 37.8651C70.0299 37.9655 69.9699 38.0659 69.9199 38.1462C69.9199 38.1462 69.9099 38.1562 69.8999 38.1663C69.8499 38.2265 69.7999 38.2867 69.7399 38.3369C69.7299 38.347 69.7199 38.357 69.6999 38.3671C69.6499 38.4072 69.5399 38.4775 69.4599 38.5076C69.3999 38.5277 69.2999 38.5678 69.2399 38.5779C69.2399 38.5779 69.2399 38.5779 69.2299 38.5779C69.2199 38.5779 69.2099 38.5779 69.1999 38.5779C69.1599 38.5779 69.0199 38.5979 68.9299 38.5979C68.9299 38.5979 68.9299 38.5979 68.9199 38.5979C68.8499 38.5979 68.7499 38.5678 68.6799 38.5578C68.5899 38.5377 68.4999 38.4875 68.4199 38.4474C68.2899 38.3771 68.1699 38.2466 68.0899 38.1161C68.3099 38.7284 68.5799 39.3107 68.8999 39.8427C68.9399 39.8427 68.9799 39.8226 69.0299 39.8126C69.3599 39.7825 69.6899 39.7022 70.0099 39.6118C70.2399 39.5315 70.4599 39.4311 70.6799 39.3107C70.6799 39.3107 70.6799 39.3107 70.6799 39.3006C70.7399 39.2605 70.7999 39.2304 70.8599 39.1902C70.8599 39.1902 70.8599 39.1902 70.8699 39.1902C70.8699 39.1902 70.8899 39.1802 70.8999 39.1701C70.9099 39.1601 70.9299 39.1601 70.9399 39.1501C70.6099 38.6481 70.3399 38.086 70.1199 37.4736C70.1199 37.4937 70.1199 37.5238 70.1199 37.5439Z" fill="#B01A1F"/>
</g>
<g style="mix-blend-mode:multiply">
<path d="M72.7599 43.1251C72.7599 43.1251 72.7399 43.0949 72.7399 43.0849C72.6599 42.9042 72.6399 42.8339 72.6399 42.6332C72.6399 42.5529 72.6599 42.4625 72.6899 42.3822C72.7499 42.2116 72.8399 42.1112 72.9699 41.9807C73.0399 41.9104 73.1399 41.8602 73.2199 41.81C73.3399 41.7397 73.4899 41.6996 73.6199 41.6594C73.7399 41.6193 73.8599 41.5992 73.9799 41.5591C73.9199 41.5791 73.8499 41.5992 73.7899 41.6193C73.8599 41.5892 73.9299 41.5691 74.0099 41.549C73.9299 41.5189 73.8399 41.4988 73.7599 41.4587C73.2799 41.2679 72.8499 41.0069 72.4499 40.7158C72.1099 40.8463 71.7899 40.9969 71.4499 41.1274C71.1599 41.2378 70.8699 41.3482 70.5799 41.4386C70.4799 41.4988 70.3799 41.539 70.2799 41.5791C71.0199 42.3019 71.8999 42.8741 72.8999 43.2857C72.8499 43.2254 72.7999 43.1552 72.7699 43.115L72.7599 43.1251Z" fill="#B01A1F"/>
</g>
<g style="mix-blend-mode:color-dodge">
<path d="M68.1599 32.5348C68.1599 32.5348 68.1499 32.5348 68.1399 32.5348C67.9899 32.5247 67.8799 32.4043 67.8899 32.2637C68.1899 28.7503 69.9699 26.1503 72.6499 25.3071C74.6199 24.6847 76.6799 25.1665 78.0199 26.5619C78.1199 26.6623 78.1099 26.8229 77.9999 26.9132C77.8899 27.0036 77.7199 26.9935 77.6199 26.8932C76.4299 25.6584 74.5999 25.2268 72.8299 25.7789C70.3499 26.5519 68.7099 28.9912 68.4299 32.3039C68.4199 32.4344 68.2999 32.5348 68.1599 32.5348Z" fill="#B01A1F"/>
</g>
<g style="mix-blend-mode:color-dodge">
<path d="M110.25 52.4511C110.1 52.4511 109.98 52.3407 109.98 52.2001C110.02 48.2149 110.11 39.9331 105.8 35.5965C103.63 33.4081 100.92 32.2437 97.9599 32.2236C97.8099 32.2236 97.6899 32.1132 97.6899 31.9726C97.6899 31.8321 97.8099 31.7217 97.9599 31.7217C101.08 31.7418 103.92 32.9564 106.19 35.2552C110.64 39.7424 110.55 48.1546 110.51 52.2001C110.51 52.3407 110.39 52.4511 110.24 52.4511H110.25Z" fill="#B01A1F"/>
</g>
<g style="mix-blend-mode:color-dodge">
<path d="M53.61 18.0995C53.46 18.0995 53.34 17.9891 53.34 17.8485V11.2231C53.34 11.0826 53.46 10.9722 53.61 10.9722C53.76 10.9722 53.88 11.0826 53.88 11.2231V17.8485C53.88 17.9891 53.76 18.0995 53.61 18.0995Z" fill="#B01A1F"/>
</g>
<path d="M68.5399 40.0535C68.5399 40.0535 68.4699 40.0334 68.4599 39.9933C68.4499 39.9531 68.4799 39.913 68.5199 39.9029C68.5299 39.9029 69.9299 39.6018 71.2799 38.9392C71.3199 38.9192 71.3699 38.9392 71.3899 38.9693C71.4099 39.0095 71.3899 39.0497 71.3599 39.0697C69.9899 39.7423 68.5699 40.0435 68.5599 40.0435C68.5599 40.0435 68.5499 40.0435 68.5399 40.0435V40.0535Z" fill="#5A0000"/>
<path d="M69.94 41.7599C69.94 41.7599 69.87 41.7398 69.86 41.7097C69.84 41.6696 69.86 41.6294 69.91 41.6093C69.93 41.6093 71.45 41.0773 72.77 40.4348C72.81 40.4148 72.86 40.4348 72.88 40.465C72.9 40.5051 72.88 40.5453 72.85 40.5653C71.52 41.2078 69.98 41.7398 69.97 41.7499C69.97 41.7499 69.95 41.7499 69.94 41.7499V41.7599Z" fill="#5A0000"/>
<path d="M32.57 94.1809C32.38 92.5044 31.89 90.8782 31.38 89.272C30.86 87.6358 30.3 85.9995 29.92 84.3331C29.73 83.51 29.59 82.6768 29.52 81.8335C29.45 80.9602 29.49 80.0869 29.57 79.2135C29.88 75.5695 30.41 71.9457 30.92 68.3318C31.17 66.5751 31.5 64.8184 31.47 63.0315C31.45 62.0176 31.38 60.8833 30.8 59.9899C30.57 59.6385 30.26 59.3474 29.85 59.1968C29.64 59.247 29.44 59.3574 29.3 59.5482C29.27 59.5883 29.19 59.5783 29.19 59.518C29.19 59.1868 29.23 58.8555 29.29 58.5343C29.31 58.4439 29.33 58.3435 29.36 58.2532C29.38 57.7814 29.37 57.3096 29.33 56.8378C29.25 56.0046 29.07 55.1112 28.55 54.4185C28.31 54.0973 27.96 53.8262 27.54 53.7459C27.08 53.6556 26.66 53.7861 26.28 54.037C26.24 54.0672 26.19 54.0973 26.15 54.1274C26.15 54.0872 26.15 54.0571 26.15 54.017C26.17 53.1938 26.06 52.3205 25.64 51.5776C25.45 51.2363 25.16 50.9251 24.79 50.7444C24.34 50.5236 23.82 50.4834 23.32 50.5838C22.29 50.7946 21.31 51.5174 20.9 52.4209C20.87 52.4911 20.85 52.5614 20.83 52.6317C20.79 52.5313 20.74 52.4309 20.68 52.3305C20.23 51.5776 19.21 51.3367 18.39 51.7382C17.83 52.0093 17.45 52.5112 17.11 52.983C16.62 53.6656 16.14 54.3482 15.68 55.0409C15.24 55.7135 14.83 56.4061 14.37 57.0687C13.93 57.691 13.45 58.2934 12.95 58.8756C11.95 60.0702 10.92 61.2447 10.13 62.5697C9.30997 63.935 8.33997 65.24 7.69997 66.6955C7.05997 68.1812 6.75997 69.7774 6.44997 71.3434C6.10997 73.0198 5.76997 74.7062 5.45997 76.3827C5.29997 77.2861 5.13997 78.1996 5.00997 79.1232C4.97997 79.1232 4.93997 79.1232 4.90997 79.1232C4.75997 79.1533 4.65997 79.2637 4.62997 79.3842C4.53997 79.7656 4.40997 80.137 4.32997 80.5285C4.24997 80.91 4.18997 81.2814 4.12997 81.6629C4.00997 82.4057 3.91997 83.1586 3.85997 83.9115C3.72997 85.4173 3.69997 86.9331 3.78997 88.4389C3.96997 91.4404 4.60997 94.4318 5.79997 97.2325C6.39997 98.6379 7.12997 100.003 7.99997 101.288C8.10997 101.449 8.21997 101.609 8.32997 101.77C7.86997 103.326 3.48997 118.052 1.15997 125.993C2.05997 126.846 3.13997 127.529 4.26997 128.091C6.24997 129.075 8.40997 129.707 10.62 130.078C12.82 130.45 15.07 130.58 17.3 130.47C19.53 130.359 21.76 130.008 23.86 129.305C24.1 129.225 24.34 129.135 24.58 129.044L26.91 105.805C28.17 105.103 29.32 104.219 30.26 103.165C30.75 102.613 31.2 102.021 31.54 101.378C31.9 100.696 32.14 99.963 32.31 99.2202C32.7 97.5638 32.76 95.8673 32.57 94.1809Z" fill="#FAD6BE"/>
<path d="M32.57 94.1809C32.38 92.5044 31.89 90.8782 31.38 89.272C30.86 87.6358 30.3 85.9995 29.92 84.3331C29.73 83.51 29.59 82.6768 29.52 81.8335C29.45 80.9602 29.49 80.0869 29.57 79.2135C29.88 75.5695 30.41 71.9457 30.92 68.3318C31.17 66.5751 31.5 64.8184 31.47 63.0315C31.45 62.0176 31.38 60.8833 30.8 59.9899C30.57 59.6385 30.26 59.3474 29.85 59.1968C29.64 59.247 29.44 59.3574 29.3 59.5482C29.27 59.5883 29.19 59.5783 29.19 59.518C29.19 59.1868 29.23 58.8555 29.29 58.5343C29.31 58.4439 29.33 58.3435 29.36 58.2532C29.38 57.7814 29.37 57.3096 29.33 56.8378C29.25 56.0046 29.07 55.1112 28.55 54.4185C28.31 54.0973 27.96 53.8262 27.54 53.7459C27.08 53.6556 26.66 53.7861 26.28 54.037C26.24 54.0672 26.19 54.0973 26.15 54.1274C26.15 54.0872 26.15 54.0571 26.15 54.017C26.17 53.1938 26.06 52.3205 25.64 51.5776C25.45 51.2363 25.16 50.9251 24.79 50.7444C24.34 50.5236 23.82 50.4834 23.32 50.5838C22.29 50.7946 21.31 51.5174 20.9 52.4209C20.87 52.4911 20.85 52.5614 20.83 52.6317C20.79 52.5313 20.74 52.4309 20.68 52.3305C20.23 51.5776 19.21 51.3367 18.39 51.7382C17.83 52.0093 17.45 52.5112 17.11 52.983C16.62 53.6656 16.14 54.3482 15.68 55.0409C15.24 55.7135 14.83 56.4061 14.37 57.0687C13.93 57.691 13.45 58.2934 12.95 58.8756C11.95 60.0702 10.92 61.2447 10.13 62.5697C9.30997 63.935 8.33997 65.24 7.69997 66.6955C7.05997 68.1812 6.75997 69.7774 6.44997 71.3434C6.10997 73.0198 5.76997 74.7062 5.45997 76.3827C5.29997 77.2861 5.13997 78.1996 5.00997 79.1232C4.97997 79.1232 4.93997 79.1232 4.90997 79.1232C4.75997 79.1533 4.65997 79.2637 4.62997 79.3842C4.53997 79.7656 4.40997 80.137 4.32997 80.5285C4.24997 80.91 4.18997 81.2814 4.12997 81.6629C4.00997 82.4057 3.91997 83.1586 3.85997 83.9115C3.72997 85.4173 3.69997 86.9331 3.78997 88.4389C3.96997 91.4404 4.60997 94.4318 5.79997 97.2325C6.39997 98.6379 7.12997 100.003 7.99997 101.288C8.10997 101.449 8.21997 101.609 8.32997 101.77C7.86997 103.326 3.48997 118.052 1.15997 125.993C2.05997 126.846 3.13997 127.529 4.26997 128.091C6.24997 129.075 8.40997 129.707 10.62 130.078C12.82 130.45 15.07 130.58 17.3 130.47C19.53 130.359 21.76 130.008 23.86 129.305C24.1 129.225 24.34 129.135 24.58 129.044L26.91 105.805C28.17 105.103 29.32 104.219 30.26 103.165C30.75 102.613 31.2 102.021 31.54 101.378C31.9 100.696 32.14 99.963 32.31 99.2202C32.7 97.5638 32.76 95.8673 32.57 94.1809Z" fill="#FAD6BE"/>
<g style="mix-blend-mode:screen">
<path d="M1.96999 126.666C2.18999 126.073 2.40999 125.481 2.61999 124.899C3.07999 123.624 3.52999 122.349 3.95999 121.064C4.39999 119.749 4.81999 118.434 5.25999 117.119C5.67999 115.854 6.10999 114.589 6.44999 113.294C6.77999 112.029 7.05999 110.755 7.38999 109.5C7.70999 108.275 8.10999 107.081 8.58999 105.906C8.71999 105.595 8.83999 105.223 9.10999 104.982C9.31999 104.792 9.58999 104.782 9.85999 104.852C10.07 104.912 10.26 105.003 10.45 105.103C10.69 105.223 10.93 105.354 11.16 105.494C11.38 105.625 11.59 105.765 11.79 105.916C10.85 104.772 9.97999 103.567 9.21999 102.312C7.98999 100.315 7.08999 98.1864 6.49999 95.9579C5.27999 91.3502 5.38999 86.582 5.80999 81.884C6.21999 77.3265 6.47999 72.6385 8.26999 68.322C9.16999 66.1437 10.5 64.146 11.89 62.2086C13.04 60.5924 14.32 59.0264 15.29 57.3199C16.03 56.0048 16.71 54.6597 17.59 53.4149C18.02 52.8025 18.66 51.9192 19.47 51.5477C19.12 51.5076 18.74 51.5578 18.41 51.7284C17.85 51.9995 17.47 52.5014 17.13 52.9732C16.64 53.6558 16.16 54.3384 15.7 55.0311C15.26 55.7037 14.85 56.3963 14.39 57.0589C13.95 57.6812 13.47 58.2835 12.97 58.8658C11.97 60.0604 10.94 61.2349 10.15 62.5599C9.32999 63.9252 8.35999 65.2302 7.71999 66.6857C7.07999 68.1714 6.77999 69.7675 6.46999 71.3335C6.12999 73.01 5.78999 74.6964 5.47999 76.3729C5.31999 77.2763 5.15999 78.1898 5.02999 79.1134C4.99999 79.1134 4.95999 79.1134 4.92999 79.1134C4.77999 79.1435 4.67999 79.2539 4.64999 79.3744C4.55999 79.7558 4.42999 80.1272 4.34999 80.5187C4.26999 80.9002 4.20999 81.2716 4.14999 81.6531C4.02999 82.3959 3.93999 83.1488 3.87999 83.9017C3.74999 85.4075 3.71999 86.9233 3.80999 88.429C3.98999 91.4305 4.62999 94.422 5.81999 97.2227C6.41999 98.6281 7.14999 99.9934 8.01999 101.278C8.12999 101.439 8.23999 101.6 8.34999 101.76C7.88999 103.316 3.50999 118.043 1.17999 125.983C1.42999 126.224 1.69999 126.455 1.97999 126.666H1.96999Z" fill="#FAD6BE"/>
</g>
<g style="mix-blend-mode:multiply" opacity="0.69">
<path d="M32.57 94.1811C32.38 92.5047 31.89 90.8784 31.38 89.2723C30.86 87.636 30.3 85.9997 29.92 84.3333C29.73 83.5102 29.59 82.677 29.52 81.8338C29.45 80.9604 29.49 80.0871 29.57 79.2137C29.88 75.5698 30.41 71.9459 30.92 68.332C31.08 67.1977 31.27 66.0533 31.38 64.9089C31.2 65.5213 30.99 66.1236 30.76 66.7259C30.56 67.2479 30.36 67.7598 30.15 68.2718C29.92 68.844 29.66 69.4162 29.44 69.9884C29.2 70.6308 28.99 71.2733 28.81 71.9258C28.74 72.2069 28.68 72.488 28.6 72.759C28.55 72.9196 28.51 73.0802 28.47 73.2509C28.38 73.5721 28.09 74.837 27.48 74.4153C27.18 74.2045 27.01 73.8432 26.96 73.5119C26.9 73.1103 26.93 72.6887 26.98 72.2872C27.09 71.4239 27.32 70.5806 27.51 69.7274C27.63 69.2054 27.7 68.6733 27.81 68.1513C27.95 67.4486 28.09 66.746 28.22 66.0433C28.49 64.6278 28.69 63.2124 28.88 61.787C28.99 60.9738 29.09 60.1607 29.22 59.3576C29.23 59.0866 29.26 58.8156 29.32 58.5546C29.34 58.4642 29.36 58.3638 29.39 58.2735C29.41 57.8017 29.4 57.3299 29.36 56.8581C29.31 56.316 29.21 55.7338 29 55.2017C28.95 56.4766 28.66 57.7415 28.36 58.9762C28.01 60.4016 27.58 61.807 27.12 63.2024C26.8 64.1962 26.47 65.18 26.19 66.1838C25.8 67.5691 25.45 68.9645 25.19 70.3698C25.09 70.922 25.01 71.464 24.98 72.0161C24.95 72.5381 24.93 73.0602 24.86 73.5821C24.77 74.2547 24.59 75.1481 23.91 75.5396C23.58 75.7304 23.3 75.5396 23.15 75.2485C22.91 74.7868 22.84 74.2346 22.79 73.7227C22.71 73.0501 22.69 72.3675 22.69 71.6849C22.69 71.0725 22.7 70.4602 22.74 69.8478C22.78 69.2154 22.9 68.593 23.03 67.9706C23.63 65.1498 24.52 62.3993 25.15 59.5885C25.29 58.9461 25.43 58.3136 25.59 57.6812C25.75 57.0488 25.92 56.4164 26.06 55.7739C26.19 55.1917 26.3 54.5994 26.37 54.0071C26.35 54.0172 26.32 54.0373 26.3 54.0473C26.26 54.0774 26.21 54.1075 26.17 54.1376C26.17 54.0975 26.17 54.0674 26.17 54.0272C26.19 53.2041 26.08 52.3307 25.66 51.5879C25.47 51.2466 25.18 50.9354 24.81 50.7547C24.72 50.7145 24.64 50.6744 24.55 50.6543C24.62 50.7647 24.69 50.8751 24.75 50.9856C25.12 51.6581 25.34 52.401 25.42 53.1438C25.56 54.3485 25.32 55.5932 25 56.7577C24.83 57.36 24.63 57.9623 24.43 58.5546C24.22 59.1669 24.02 59.7793 23.83 60.3916C23.04 62.9113 22.12 65.3908 21.33 67.9104C21.14 68.5328 20.95 69.1552 20.78 69.7876C20.63 70.3297 20.55 70.8818 20.47 71.444C20.33 72.5381 20.26 73.6424 20.01 74.7165C19.89 75.2184 19.74 75.7505 19.47 76.2022C19.3 76.4833 19.02 76.7844 18.63 76.7041C18.2 76.6138 17.89 76.1721 17.66 75.8508C17.39 75.4593 17.17 75.0377 17.02 74.596C16.4 72.759 16.87 70.7613 17.51 68.9845C18.17 67.1676 19.12 65.451 19.89 63.6742C20.44 62.3993 20.99 61.1345 21.44 59.8194C21.98 58.2534 22.43 56.6071 22.48 54.9508C22.51 53.8064 22.32 52.5114 21.46 51.6581C21.24 51.8991 21.05 52.1601 20.92 52.4411C20.89 52.5114 20.87 52.5817 20.85 52.652C20.81 52.5516 20.76 52.4512 20.7 52.3508C20.25 51.5979 19.23 51.357 18.41 51.7585C17.94 51.9894 17.59 52.3809 17.29 52.7825C17.5 52.5817 17.73 52.391 18.01 52.2805C18.27 52.1701 18.54 52.15 18.8 52.2504C19.15 52.391 19.34 52.7122 19.42 53.0435C19.51 53.4249 19.48 53.8164 19.44 54.1979C19.39 54.6697 19.32 55.1415 19.22 55.6033C18.96 56.8079 18.48 57.9623 17.94 59.0766C17.39 60.2009 16.74 61.275 16.16 62.3792C14.97 64.6479 13.69 66.8865 12.85 69.2957C12.43 70.5003 12.17 71.725 11.95 72.9798C11.73 74.2146 11.51 75.4493 11.08 76.6338C11.06 76.684 10.97 76.6941 10.97 76.6338C10.82 75.64 10.81 74.6362 10.82 73.6424C10.82 71.715 10.92 69.7575 10.47 67.8602C10.26 66.9869 9.92999 66.1236 9.37999 65.3807C9.20999 65.1498 9.01999 64.939 8.80999 64.7483C8.40999 65.3908 8.02999 66.0433 7.73999 66.7359C7.09999 68.2216 6.79999 69.8177 6.48999 71.3837C6.14999 73.0601 5.80999 74.7466 5.49999 76.423C5.33999 77.3265 5.17999 78.24 5.04999 79.1635C5.01999 79.1635 4.97999 79.1635 4.94999 79.1635C4.79999 79.1936 4.69999 79.3041 4.66999 79.4245C4.57999 79.806 4.44999 80.1774 4.36999 80.5689C4.28999 80.9504 4.22999 81.3218 4.16999 81.7033C4.04999 82.4461 3.95999 83.199 3.89999 83.9519C3.76999 85.4576 3.73999 86.9735 3.82999 88.4792C4.00999 91.4807 4.64999 94.4722 5.83999 97.2729C6.43999 98.6783 7.16999 100.044 8.03999 101.328C8.14999 101.489 8.25999 101.65 8.36999 101.81C8.29999 102.041 8.14999 102.553 7.92999 103.296C8.93999 104.711 10.52 105.675 12.06 106.548C13.77 107.522 15.62 108.456 16.88 109.941C18.5 111.859 18.58 114.409 18.36 116.738C18.23 118.113 17.99 119.478 17.78 120.843C17.56 122.329 17.44 123.835 17.3 125.33C17.14 127.067 16.98 128.804 16.75 130.53C16.94 130.53 17.13 130.52 17.32 130.51C19.55 130.4 21.78 130.049 23.88 129.346C24.12 129.266 24.36 129.175 24.6 129.085L26.93 105.846C28.19 105.143 29.34 104.26 30.28 103.206C30.77 102.654 31.22 102.061 31.56 101.419C31.92 100.736 32.16 100.003 32.33 99.2605C32.72 97.6042 32.78 95.9077 32.59 94.2212L32.57 94.1811ZM30.76 94.8637C30.58 96.4096 30.15 97.9053 29.41 99.2505C29.14 99.7424 28.74 100.274 28.15 100.315C27.79 100.345 27.45 100.174 27.16 99.9733C26.13 99.2204 25.65 97.9154 25.11 96.8413C24.44 95.4861 23.78 94.1309 22.88 92.8961C20.66 89.8545 17.3 87.7063 14.79 84.8855C13.95 83.9418 12.73 82.3558 13.44 81.101C13.73 80.589 14.29 80.2577 14.88 80.0871C15.65 79.8763 16.47 79.9064 17.26 79.8361C18.7 79.7056 20.16 79.6655 21.6 79.8461C24.78 80.2376 27.64 81.7735 28.93 84.5943C30.37 87.7263 31.14 91.4707 30.75 94.8637H30.76Z" fill="#FAD6BE"/>
</g>
<g style="mix-blend-mode:multiply" opacity="0.69">
<path d="M32.57 94.1811C32.55 94.0406 32.54 93.9101 32.52 93.7695C32.41 95.0946 32.21 96.4197 31.81 97.7046C31.39 99.0598 30.75 100.385 29.72 101.439C28.42 102.764 26.62 103.336 24.73 103.497C22.66 103.667 20.54 103.457 18.54 104.079C19.03 104.902 19.99 105.294 20.8 105.796C21.21 106.047 21.61 106.338 21.91 106.699C22.22 107.07 22.42 107.522 22.55 107.974C22.81 108.867 22.81 109.801 22.76 110.714C22.7 111.758 22.59 112.792 22.44 113.826C22.09 116.246 21.67 118.645 21.35 121.064C21.22 122.078 21.13 123.102 20.99 124.126C20.88 125.009 20.74 125.883 20.65 126.766C20.56 127.659 20.5 128.563 20.56 129.466C20.57 129.677 20.59 129.888 20.62 130.099C21.72 129.908 22.8 129.647 23.84 129.296C24.08 129.215 24.32 129.125 24.56 129.035L26.89 105.796C28.15 105.093 29.3 104.21 30.24 103.155C30.73 102.603 31.18 102.011 31.52 101.369C31.88 100.686 32.12 99.9532 32.29 99.2104C32.68 97.554 32.74 95.8575 32.55 94.1711L32.57 94.1811Z" fill="#FAD6BE"/>
</g>
<path d="M32.74 94.161C32.55 92.4846 32.06 90.8684 31.54 89.2221C31.45 88.951 31.37 88.68 31.28 88.4089C30.85 87.0638 30.4 85.6785 30.09 84.2932C29.88 83.3797 29.76 82.5666 29.7 81.8237C29.63 80.8801 29.69 79.9365 29.75 79.2338C30.04 75.9111 30.51 72.5381 30.97 69.2756L31.1 68.3521C31.15 68.0208 31.2 67.6795 31.25 67.3482C31.46 65.9429 31.68 64.4873 31.66 63.0317C31.64 61.9476 31.55 60.8132 30.97 59.9097C30.7 59.4881 30.36 59.2071 29.94 59.0464L29.89 59.0264H29.83C29.67 59.0766 29.53 59.1468 29.4 59.2372C29.41 59.0163 29.44 58.7854 29.49 58.5646C29.51 58.4742 29.53 58.3839 29.55 58.2936V58.2634C29.58 57.7515 29.57 57.2797 29.52 56.8279C29.45 56.1252 29.3 55.1114 28.71 54.3284C28.41 53.9268 28.01 53.6658 27.59 53.5855C27.17 53.5052 26.75 53.5855 26.35 53.8064C26.35 52.8929 26.17 52.1199 25.81 51.4975C25.65 51.2164 25.36 50.8249 24.89 50.5941C24.42 50.3632 23.87 50.3029 23.3 50.4234C22.26 50.6342 21.29 51.3469 20.83 52.2102C20.33 51.4172 19.24 51.1361 18.33 51.5879C17.75 51.8689 17.36 52.3709 16.99 52.8828C16.42 53.6759 15.97 54.3284 15.56 54.9507C15.38 55.2218 15.21 55.4928 15.04 55.7639C14.79 56.1654 14.53 56.587 14.25 56.9785C13.79 57.621 13.28 58.2534 12.84 58.7754L12.54 59.1368C11.65 60.1908 10.73 61.285 10.01 62.4997C9.75 62.9313 9.48 63.363 9.21 63.7746C8.62 64.6881 8.01 65.6317 7.58 66.6456C6.97 68.0409 6.68 69.5467 6.39 70.9922L6.32 71.3235C6.25 71.6648 6.18 71.9961 6.12 72.3374C5.85 73.6624 5.58 75.0277 5.33 76.3728C5.16 77.3265 5.02 78.1797 4.9 78.9828C4.7 79.023 4.55 79.1736 4.5 79.3743C4.46 79.545 4.41 79.7257 4.36 79.8963C4.3 80.0971 4.24 80.3079 4.2 80.5187C4.12 80.8901 4.06 81.2816 4 81.6631C3.88 82.416 3.79 83.1789 3.72 83.9217C3.59 85.4576 3.56 86.9935 3.65 88.4692C3.84 91.6313 4.52 94.6027 5.67 97.3131C6.28 98.7586 7.03 100.134 7.89 101.399C7.99 101.539 8.08 101.68 8.18 101.82C7.51 104.059 3.33 118.123 1.06 125.883C1.09 125.913 1.11 125.933 1.14 125.963C1.21 126.033 1.28 126.093 1.35 126.154C3.64 118.354 7.95 103.848 8.55 101.84L8.57 101.77L8.53 101.71C8.42 101.549 8.31 101.399 8.2 101.238C7.35 99.9933 6.62 98.6381 6.01 97.2127C4.87 94.5324 4.2 91.5911 4.01 88.4692C3.92 87.0036 3.94 85.4877 4.08 83.9719C4.14 83.2291 4.24 82.4762 4.35 81.7334C4.41 81.3519 4.48 80.9704 4.55 80.599C4.59 80.3982 4.65 80.1975 4.7 79.9967C4.75 79.8261 4.8 79.6454 4.84 79.4546C4.85 79.3944 4.9 79.3342 4.98 79.3141C4.98 79.3141 5 79.3141 5.01 79.3141L5.19 79.3442L5.22 79.1736C5.34 78.3404 5.49 77.4469 5.67 76.4431C5.91 75.0979 6.19 73.7327 6.45 72.4177C6.52 72.0764 6.59 71.7451 6.65 71.4038L6.72 71.0625C7.01 69.627 7.3 68.1413 7.89 66.7761C8.32 65.7923 8.92 64.8587 9.5 63.9552C9.77 63.5336 10.05 63.102 10.31 62.6703C11.02 61.4858 11.93 60.4016 12.81 59.3576L13.11 58.9962C13.56 58.4642 14.07 57.8318 14.54 57.1793C14.82 56.7777 15.09 56.3561 15.34 55.9546C15.51 55.6936 15.68 55.4125 15.86 55.1515C16.27 54.5392 16.72 53.8867 17.29 53.1037C17.64 52.6218 18 52.1601 18.51 51.9091C19.26 51.5377 20.16 51.7686 20.56 52.4311C20.61 52.5214 20.66 52.6118 20.7 52.7122L20.91 53.194L21.04 52.6921C21.06 52.6218 21.08 52.5616 21.1 52.5114C21.48 51.6782 22.41 50.9755 23.4 50.7647C23.89 50.6643 24.35 50.7145 24.75 50.9052C25.05 51.0558 25.33 51.3269 25.52 51.6682C25.87 52.2805 26.04 53.0736 26.01 54.0272C26.01 54.0573 26.01 54.0774 26.01 54.1075L25.99 54.4689L26.41 54.1878C26.78 53.9369 27.15 53.8566 27.53 53.9268C27.86 53.9871 28.18 54.2079 28.43 54.5291C28.97 55.2519 29.12 56.2156 29.18 56.8781C29.22 57.3098 29.23 57.7615 29.21 58.2534C29.19 58.3437 29.17 58.4341 29.15 58.5244C29.08 58.8657 29.05 59.2071 29.05 59.5383C29.05 59.6387 29.11 59.719 29.21 59.7491C29.31 59.7792 29.42 59.7491 29.48 59.6688C29.58 59.5383 29.71 59.448 29.87 59.3978C30.19 59.5283 30.46 59.7692 30.67 60.1005C31.21 60.9437 31.29 62.0178 31.31 63.0618C31.33 64.4873 31.12 65.9328 30.91 67.3282C30.86 67.6594 30.81 68.0007 30.76 68.332L30.63 69.2556C30.17 72.5181 29.7 75.891 29.41 79.2237C29.35 79.9465 29.29 80.9002 29.36 81.8639C29.42 82.6268 29.55 83.4499 29.76 84.3835C30.08 85.7889 30.53 87.1842 30.96 88.5294C31.05 88.8004 31.13 89.0715 31.22 89.3425C31.74 90.9788 32.22 92.5749 32.41 94.2212C32.6 95.9579 32.52 97.6343 32.15 99.2103C31.95 100.054 31.71 100.726 31.39 101.328C31.08 101.921 30.67 102.493 30.14 103.085C29.24 104.089 28.13 104.962 26.84 105.685L26.76 105.725L24.41 129.135C24.53 129.085 24.66 129.045 24.78 128.994L27.09 105.926C28.38 105.193 29.5 104.31 30.41 103.296C30.96 102.684 31.39 102.081 31.71 101.469C32.04 100.847 32.29 100.144 32.49 99.2706C32.87 97.6644 32.96 95.9478 32.76 94.1811L32.74 94.161Z" fill="#D27A57"/>
<path d="M5.46998 99.7824C6.68998 101.539 8.39998 103.276 10.51 104.099C12.57 104.902 15.01 104.681 16.64 103.195C19.3 100.786 19.89 96.9616 19.05 93.7091C18.07 89.9045 15.14 87.0134 12.07 84.5038C9.56998 82.466 8.86998 79.8861 9.22998 76.8646C9.45998 74.8669 9.69998 72.8692 9.71998 70.8515C9.72998 69.8677 9.68998 68.8739 9.57998 67.9002C9.49998 67.1574 9.39998 66.3844 9.01998 65.7118C8.64998 65.0593 7.93998 64.6076 7.13998 64.5674C5.67998 64.4771 5.09998 65.6416 4.82998 66.7759C4.43998 68.4222 3.73998 70.0284 3.17998 71.6546C1.65998 76.1117 0.0199783 80.3881 0.189978 85.1362C0.299978 88.1879 1.07998 91.1694 2.35998 93.9701C3.22998 95.8674 4.18998 97.9453 5.45998 99.7824H5.46998Z" fill="#FAD6BE"/>
<g style="mix-blend-mode:screen">
<path d="M8.12998 101.9C6.17998 99.6518 4.76998 97.0217 3.69998 94.3213C2.37998 90.9685 1.53998 87.4048 1.56998 83.8211C1.56998 82.8474 1.63998 81.8636 1.80998 80.9099C1.97998 79.9061 2.24998 78.9223 2.55998 77.9486C3.17998 75.9811 3.94998 74.0637 4.44998 72.0661C4.70998 71.0221 4.92998 69.9781 5.11998 68.924C5.23998 68.2414 5.34998 67.5488 5.49998 66.8762C5.67998 66.0229 5.99998 65.1496 6.66998 64.5874C5.54998 64.748 5.06998 65.7719 4.81998 66.7858C4.42998 68.4321 3.72998 70.0383 3.16998 71.6645C1.65998 76.1116 0.0199795 80.3879 0.189979 85.1361C0.299979 88.1878 1.07998 91.1693 2.35998 93.97C3.22998 95.8673 4.18998 97.9452 5.45998 99.7823C6.64998 101.499 8.29998 103.185 10.34 104.039C9.52998 103.396 8.78998 102.673 8.11998 101.9H8.12998Z" fill="#FAD6BE"/>
</g>
<g style="mix-blend-mode:multiply">
<path d="M19.05 93.7193C18.07 89.9147 15.14 87.0236 12.07 84.514C9.56998 82.4762 8.86998 79.8963 9.22997 76.8747C9.45998 74.8771 9.69998 72.8794 9.71998 70.8617C9.72998 69.8779 9.68998 68.8841 9.57998 67.9104C9.49998 67.1675 9.39998 66.3946 9.01998 65.722C8.64998 65.0695 7.93998 64.6178 7.13998 64.5776C6.44998 64.5374 5.95998 64.7784 5.59998 65.1598C6.03998 64.9892 6.51998 65.0293 6.88998 65.4108C7.40998 65.9529 7.53998 66.7158 7.60998 67.4084C8.04998 71.5644 6.17998 75.6099 6.56998 79.7658C6.64998 80.6693 6.83998 81.5526 7.20998 82.3959C7.52998 83.1287 7.95998 83.8113 8.46998 84.4337C9.48998 85.6985 10.78 86.7425 12.04 87.7966C13.36 88.9008 14.66 90.0151 15.66 91.3903C16.8 92.9463 17.6 94.7231 17.89 96.6003C18.15 98.3068 17.96 100.003 17.27 101.609C16.95 102.362 16.52 103.095 15.97 103.738C16.21 103.587 16.43 103.416 16.64 103.226C19.3 100.816 19.89 96.9918 19.05 93.7393V93.7193Z" fill="#FAD6BE"/>
</g>
<path d="M19.22 93.6791C18.21 89.7239 15.09 86.7626 12.18 84.3834C9.89997 82.5263 9.01997 80.1372 9.39997 76.8847C9.62997 74.9272 9.86997 72.8894 9.88997 70.8616C9.89997 69.8076 9.84997 68.8339 9.74997 67.8902C9.66997 67.2076 9.57997 66.3644 9.16997 65.6416C8.76997 64.9289 7.98997 64.4571 7.14997 64.4069C5.87997 64.3266 5.03997 65.1196 4.64997 66.7459C4.38997 67.8501 3.96997 68.9543 3.57997 70.0284C3.38997 70.5504 3.18997 71.0825 3.00997 71.6045C2.87997 71.996 2.73997 72.3875 2.60997 72.7689C1.18997 76.8947 -0.150028 80.7796 0.00997226 85.1464C0.119972 88.1178 0.849972 91.1092 2.19997 94.0404C3.04997 95.8976 4.01997 98.0056 5.31997 99.8728C6.27997 101.248 7.83997 103.045 9.93997 104.039C9.79997 103.918 9.65997 103.798 9.52997 103.667C9.35997 103.507 9.20997 103.336 9.04997 103.165C7.53997 102.182 6.37997 100.806 5.60997 99.7021C4.31997 97.8551 3.36997 95.7671 2.51997 93.92C1.18997 91.0289 0.469972 88.0776 0.359972 85.1464C0.199972 80.8399 1.52997 76.9751 2.93997 72.8894C3.06997 72.4979 3.20997 72.1164 3.33997 71.7249C3.51997 71.2029 3.71997 70.6709 3.90997 70.1489C4.30997 69.0647 4.72997 67.9505 4.98997 66.8262C5.32997 65.4208 5.97997 64.7382 6.97997 64.7382C7.02997 64.7382 7.06997 64.7382 7.11997 64.7382C7.83997 64.7783 8.50997 65.1899 8.84997 65.8023C9.22997 66.4648 9.30997 67.2478 9.38997 67.9304C9.49997 68.864 9.53997 69.8176 9.52997 70.8616C9.50997 72.8794 9.26997 74.8971 9.03997 76.8546C8.64997 80.1773 9.59997 82.7171 11.94 84.6344C14.81 86.9734 17.88 89.8946 18.87 93.7594C19.12 94.7532 19.23 95.6867 19.23 96.5701C19.23 96.6504 19.25 96.7207 19.26 96.801C19.33 97.4937 19.33 98.1863 19.26 98.879C19.26 98.9794 19.24 99.0798 19.23 99.1801C19.26 99.0597 19.29 98.9392 19.32 98.8188C19.69 97.1724 19.65 95.4057 19.22 93.6891V93.6791Z" fill="#D27A57"/>
<path d="M13.69 73.7626C14 71.8854 14.57 70.0685 15.39 68.3218C16.14 66.7156 17.05 65.1697 17.92 63.6238C18.47 62.6601 19.01 61.6863 19.49 60.6825C20.33 58.8053 21.01 56.8177 21.11 54.7899C21.14 54.2077 21.13 53.5753 20.97 52.993C20.93 52.8625 20.88 52.732 20.84 52.6015C20.84 52.6015 20.84 52.6116 20.84 52.6216C20.8 52.5212 20.75 52.4208 20.69 52.3205C20.55 52.0795 20.34 51.8888 20.11 51.7583C20.15 51.8286 20.18 51.9089 20.21 51.9791C20.32 52.2201 20.42 52.471 20.48 52.732C20.61 53.2841 20.57 53.8363 20.5 54.3783C20.53 56.5567 19.73 58.725 18.85 60.7026C18.2 62.1581 17.45 63.5736 16.68 64.979C15.93 66.3342 15.13 67.6893 14.54 69.1048C13.97 70.4499 13.71 71.8653 13.53 73.3008C13.38 74.5356 13.32 75.7803 13.38 77.0251C13.38 77.0452 13.39 77.0653 13.4 77.0853C13.4 75.9711 13.51 74.8568 13.7 73.7526L13.69 73.7626Z" fill="#D27A57"/>
<path d="M20.55 76.6236C20.68 74.887 21.06 73.1604 21.5 71.4739C22 69.5666 22.6 67.6894 23.17 65.8022C23.75 63.8748 24.23 61.9273 24.75 59.9899C25.1 58.6648 25.55 57.3598 25.88 56.0348C25.91 55.844 25.95 55.6633 25.98 55.4726C26.03 55.1915 26.07 54.9104 26.11 54.6294C26.13 54.3583 26.15 54.0773 26.16 53.8062C26.16 53.0433 26.03 52.2503 25.64 51.5777C25.51 51.3568 25.34 51.136 25.14 50.9653C25.25 51.0958 25.34 51.2263 25.43 51.3669C25.76 51.9089 25.88 52.5414 25.81 53.1537C25.76 53.5553 25.68 53.9668 25.59 54.3583C25.51 54.7097 25.42 55.0711 25.33 55.4224C25.33 55.4626 25.32 55.4927 25.31 55.5328C25.21 56.1753 25.09 56.8178 24.95 57.4602C24.4 60.0301 23.63 62.5497 22.87 65.0694C22.13 67.5489 21.41 70.0484 20.93 72.5882C20.59 74.4051 20.38 76.2623 20.48 78.1093C20.5 78.1696 20.51 78.2198 20.53 78.28C20.5 77.7279 20.52 77.1758 20.56 76.6337L20.55 76.6236Z" fill="#D27A57"/>
<path d="M29.34 56.8281C29.3 56.4065 29.23 55.9748 29.11 55.5532C29.11 55.5633 29.11 55.5733 29.11 55.5833C29.24 57.2196 29.06 58.8659 28.76 60.4821C28.46 62.1184 28.05 63.7446 27.71 65.3708C27.36 67.0473 26.95 68.7237 26.6 70.4001C26.42 71.2534 26.27 72.0966 26.15 72.9599C26.04 73.8132 26 74.6765 26.02 75.5398C26.02 75.9614 26.05 76.383 26.08 76.8046C26.08 76.5135 26.1 76.2325 26.11 75.9413C26.45 70.2094 28.76 64.7485 29.3 59.0466C29.3 58.9864 29.31 58.9362 29.32 58.876C29.38 58.1933 29.4 57.5007 29.33 56.808L29.34 56.8281Z" fill="#D27A57"/>
<path d="M12.84 78.4908C13.21 78.5711 13.58 78.6012 13.95 78.6112C14.14 78.5912 14.34 78.5811 14.53 78.5711C15.98 78.4707 17.44 78.4506 18.89 78.5008C20.42 78.561 21.99 78.6313 23.5 78.9024C24.39 78.9726 25.27 79.0831 26.14 79.2738C26.42 79.334 26.7 79.4043 26.98 79.4846C26.06 79.0329 25.05 78.7116 24.04 78.5109C22.66 78.2398 21.25 78.1495 19.84 78.0892C18.38 78.019 16.93 78.0089 15.47 78.0892C14.7 78.1394 13.93 78.2097 13.16 78.3101C12.93 78.3402 12.7 78.3703 12.47 78.4004C12.59 78.4406 12.72 78.4707 12.84 78.5008V78.4908Z" fill="#D27A57"/>
<path d="M35.9599 94.1809C36.1499 92.5044 36.6399 90.8782 37.1499 89.272C37.6699 87.6358 38.2299 85.9995 38.6099 84.3331C38.7999 83.51 38.9399 82.6768 39.0099 81.8335C39.0799 80.9602 39.0399 80.0869 38.9599 79.2135C38.6499 75.5695 38.1199 71.9457 37.6099 68.3318C37.3599 66.5751 37.0299 64.8184 37.0599 63.0315C37.0799 62.0176 37.1499 60.8833 37.7299 59.9899C37.9599 59.6385 38.2699 59.3474 38.6799 59.1968C38.8899 59.247 39.0899 59.3574 39.2299 59.5482C39.2599 59.5883 39.3399 59.5783 39.3399 59.518C39.3399 59.1868 39.2999 58.8555 39.2399 58.5343C39.2199 58.4439 39.1999 58.3435 39.1699 58.2532C39.1499 57.7814 39.1599 57.3096 39.1999 56.8378C39.2799 56.0046 39.4599 55.1112 39.9799 54.4185C40.2199 54.0973 40.5699 53.8262 40.9899 53.7459C41.4499 53.6556 41.8699 53.7861 42.2499 54.037C42.2899 54.0672 42.3399 54.0973 42.3799 54.1274C42.3799 54.0872 42.3799 54.0571 42.3799 54.017C42.3599 53.1938 42.4699 52.3205 42.8899 51.5776C43.0799 51.2363 43.3699 50.9251 43.7399 50.7444C44.1899 50.5236 44.7099 50.4834 45.2099 50.5838C46.2399 50.7946 47.2199 51.5174 47.6299 52.4209C47.6599 52.4911 47.6799 52.5614 47.6999 52.6317C47.7399 52.5313 47.7899 52.4309 47.8499 52.3305C48.2999 51.5776 49.3199 51.3367 50.1399 51.7382C50.6999 52.0093 51.0799 52.5112 51.4199 52.983C51.9099 53.6656 52.3899 54.3482 52.8499 55.0409C53.2899 55.7135 53.6999 56.4061 54.1599 57.0687C54.5999 57.691 55.0799 58.2934 55.5799 58.8756C56.5799 60.0702 57.6099 61.2447 58.3999 62.5697C59.2199 63.935 60.1899 65.24 60.8299 66.6955C61.4699 68.1812 61.7699 69.7774 62.0799 71.3434C62.4199 73.0198 62.7599 74.7062 63.0699 76.3827C63.2299 77.2861 63.3899 78.1996 63.5199 79.1232C63.5499 79.1232 63.5899 79.1232 63.6199 79.1232C63.7699 79.1533 63.8699 79.2637 63.8999 79.3842C63.9899 79.7656 64.1199 80.137 64.1999 80.5285C64.2799 80.91 64.3399 81.2814 64.3999 81.6629C64.5199 82.4057 64.6099 83.1586 64.6699 83.9115C64.7999 85.4173 64.8299 86.9331 64.7399 88.4389C64.5599 91.4404 63.9199 94.4318 62.7299 97.2325C62.1299 98.6379 61.3999 100.003 60.5299 101.288C60.4199 101.449 60.3099 101.609 60.1999 101.77C60.6599 103.326 65.0399 118.052 67.3699 125.993C66.4699 126.846 65.3899 127.529 64.2599 128.091C62.2799 129.075 60.1199 129.707 57.9099 130.078C55.7099 130.45 53.4599 130.58 51.2299 130.47C48.9999 130.359 46.7699 130.008 44.6699 129.305C44.4299 129.225 44.1899 129.135 43.9499 129.044L41.6199 105.805C40.3599 105.103 39.2099 104.219 38.2699 103.165C37.7799 102.613 37.3299 102.021 36.9899 101.378C36.6299 100.696 36.3899 99.963 36.2199 99.2202C35.8299 97.5638 35.7699 95.8673 35.9599 94.1809Z" fill="#FAD6BE"/>
<path d="M35.9599 94.1809C36.1499 92.5044 36.6399 90.8782 37.1499 89.272C37.6699 87.6358 38.2299 85.9995 38.6099 84.3331C38.7999 83.51 38.9399 82.6768 39.0099 81.8335C39.0799 80.9602 39.0399 80.0869 38.9599 79.2135C38.6499 75.5695 38.1199 71.9457 37.6099 68.3318C37.3599 66.5751 37.0299 64.8184 37.0599 63.0315C37.0799 62.0176 37.1499 60.8833 37.7299 59.9899C37.9599 59.6385 38.2699 59.3474 38.6799 59.1968C38.8899 59.247 39.0899 59.3574 39.2299 59.5482C39.2599 59.5883 39.3399 59.5783 39.3399 59.518C39.3399 59.1868 39.2999 58.8555 39.2399 58.5343C39.2199 58.4439 39.1999 58.3435 39.1699 58.2532C39.1499 57.7814 39.1599 57.3096 39.1999 56.8378C39.2799 56.0046 39.4599 55.1112 39.9799 54.4185C40.2199 54.0973 40.5699 53.8262 40.9899 53.7459C41.4499 53.6556 41.8699 53.7861 42.2499 54.037C42.2899 54.0672 42.3399 54.0973 42.3799 54.1274C42.3799 54.0872 42.3799 54.0571 42.3799 54.017C42.3599 53.1938 42.4699 52.3205 42.8899 51.5776C43.0799 51.2363 43.3699 50.9251 43.7399 50.7444C44.1899 50.5236 44.7099 50.4834 45.2099 50.5838C46.2399 50.7946 47.2199 51.5174 47.6299 52.4209C47.6599 52.4911 47.6799 52.5614 47.6999 52.6317C47.7399 52.5313 47.7899 52.4309 47.8499 52.3305C48.2999 51.5776 49.3199 51.3367 50.1399 51.7382C50.6999 52.0093 51.0799 52.5112 51.4199 52.983C51.9099 53.6656 52.3899 54.3482 52.8499 55.0409C53.2899 55.7135 53.6999 56.4061 54.1599 57.0687C54.5999 57.691 55.0799 58.2934 55.5799 58.8756C56.5799 60.0702 57.6099 61.2447 58.3999 62.5697C59.2199 63.935 60.1899 65.24 60.8299 66.6955C61.4699 68.1812 61.7699 69.7774 62.0799 71.3434C62.4199 73.0198 62.7599 74.7062 63.0699 76.3827C63.2299 77.2861 63.3899 78.1996 63.5199 79.1232C63.5499 79.1232 63.5899 79.1232 63.6199 79.1232C63.7699 79.1533 63.8699 79.2637 63.8999 79.3842C63.9899 79.7656 64.1199 80.137 64.1999 80.5285C64.2799 80.91 64.3399 81.2814 64.3999 81.6629C64.5199 82.4057 64.6099 83.1586 64.6699 83.9115C64.7999 85.4173 64.8299 86.9331 64.7399 88.4389C64.5599 91.4404 63.9199 94.4318 62.7299 97.2325C62.1299 98.6379 61.3999 100.003 60.5299 101.288C60.4199 101.449 60.3099 101.609 60.1999 101.77C60.6599 103.326 65.0399 118.052 67.3699 125.993C66.4699 126.846 65.3899 127.529 64.2599 128.091C62.2799 129.075 60.1199 129.707 57.9099 130.078C55.7099 130.45 53.4599 130.58 51.2299 130.47C48.9999 130.359 46.7699 130.008 44.6699 129.305C44.4299 129.225 44.1899 129.135 43.9499 129.044L41.6199 105.805C40.3599 105.103 39.2099 104.219 38.2699 103.165C37.7799 102.613 37.3299 102.021 36.9899 101.378C36.6299 100.696 36.3899 99.963 36.2199 99.2202C35.8299 97.5638 35.7699 95.8673 35.9599 94.1809Z" fill="#FAD6BE"/>
<g style="mix-blend-mode:screen">
<path d="M66.5499 126.666C66.3299 126.073 66.1099 125.481 65.8999 124.899C65.4399 123.624 64.9899 122.349 64.5599 121.064C64.1199 119.749 63.6999 118.434 63.2599 117.119C62.8399 115.854 62.4099 114.589 62.0699 113.294C61.7399 112.029 61.4599 110.755 61.1299 109.5C60.8099 108.275 60.4099 107.081 59.9299 105.906C59.7999 105.595 59.6799 105.223 59.4099 104.982C59.1999 104.792 58.9299 104.782 58.6599 104.852C58.4499 104.912 58.2599 105.003 58.0699 105.103C57.8299 105.223 57.5899 105.354 57.3599 105.494C57.1399 105.625 56.9299 105.765 56.7299 105.916C57.6699 104.772 58.5399 103.567 59.2999 102.312C60.5299 100.315 61.4299 98.1864 62.0199 95.9579C63.2399 91.3502 63.1299 86.582 62.7099 81.884C62.2999 77.3265 62.0399 72.6385 60.2499 68.322C59.3499 66.1437 58.0199 64.146 56.6299 62.2086C55.4799 60.5924 54.1999 59.0264 53.2299 57.3199C52.4899 56.0048 51.8099 54.6597 50.9299 53.4149C50.4999 52.8025 49.8599 51.9192 49.0499 51.5477C49.3999 51.5076 49.7799 51.5578 50.1099 51.7284C50.6699 51.9995 51.0499 52.5014 51.3899 52.9732C51.8799 53.6558 52.3599 54.3384 52.8199 55.0311C53.2599 55.7037 53.6699 56.3963 54.1299 57.0589C54.5699 57.6812 55.0499 58.2835 55.5499 58.8658C56.5499 60.0604 57.5799 61.2349 58.3699 62.5599C59.1899 63.9252 60.1599 65.2302 60.7999 66.6857C61.4399 68.1714 61.7399 69.7675 62.0499 71.3335C62.3899 73.01 62.7299 74.6964 63.0399 76.3729C63.1999 77.2763 63.3599 78.1898 63.4899 79.1134C63.5199 79.1134 63.5599 79.1134 63.5899 79.1134C63.7399 79.1435 63.8399 79.2539 63.8699 79.3744C63.9599 79.7558 64.0899 80.1272 64.1699 80.5187C64.2499 80.9002 64.3099 81.2716 64.3699 81.6531C64.4899 82.3959 64.5799 83.1488 64.6399 83.9017C64.7699 85.4075 64.7999 86.9233 64.7099 88.429C64.5299 91.4305 63.8899 94.422 62.6999 97.2227C62.0999 98.6281 61.3699 99.9934 60.4999 101.278C60.3899 101.439 60.2799 101.6 60.1699 101.76C60.6299 103.316 65.0099 118.043 67.3399 125.983C67.0899 126.224 66.8199 126.455 66.5399 126.666H66.5499Z" fill="#FAD6BE"/>
</g>
<g style="mix-blend-mode:multiply" opacity="0.69">
<path d="M36.2199 99.2102C36.3899 99.9531 36.6299 100.686 36.9899 101.369C37.3299 102.011 37.7699 102.603 38.2699 103.155C39.2099 104.199 40.3599 105.093 41.6199 105.795L43.9499 129.035C44.1899 129.125 44.4299 129.215 44.6699 129.296C46.7699 129.998 48.9999 130.36 51.2299 130.46C51.4199 130.46 51.6099 130.47 51.7999 130.48C51.5799 128.753 51.4099 127.017 51.2499 125.28C51.1099 123.784 50.9999 122.279 50.7699 120.793C50.5699 119.428 50.3199 118.062 50.1899 116.687C49.9699 114.358 50.0499 111.809 51.6699 109.891C52.9299 108.405 54.7799 107.472 56.4899 106.498C58.0299 105.625 59.6099 104.651 60.6199 103.246C60.3999 102.513 60.2499 101.991 60.1799 101.76C60.2899 101.599 60.3999 101.439 60.5099 101.278C61.3799 99.9932 62.1099 98.638 62.7099 97.2226C63.8999 94.4219 64.5399 91.4304 64.7199 88.4289C64.8099 86.9232 64.7799 85.4074 64.6499 83.9016C64.5799 83.1487 64.4899 82.3958 64.3799 81.653C64.3199 81.2715 64.2499 80.89 64.1799 80.5186C64.0999 80.1372 63.9699 79.7657 63.8799 79.3742C63.8499 79.2437 63.7499 79.1333 63.5999 79.1132C63.5699 79.1132 63.5299 79.1132 63.4999 79.1132C63.3699 78.1997 63.2099 77.2862 63.0499 76.3727C62.7399 74.6863 62.3999 73.0099 62.0599 71.3334C61.7499 69.7674 61.4499 68.1713 60.8099 66.6856C60.5099 65.993 60.1399 65.3405 59.7399 64.698C59.5299 64.8988 59.3399 65.0995 59.1699 65.3304C58.6199 66.0733 58.2799 66.9265 58.0799 67.8099C57.6299 69.7072 57.7299 71.6647 57.7299 73.5921C57.7299 74.5859 57.7299 75.5998 57.5799 76.5835C57.5799 76.6438 57.4799 76.6337 57.4699 76.5835C57.0299 75.399 56.8199 74.1542 56.5999 72.9295C56.3799 71.6848 56.1099 70.45 55.6999 69.2454C54.8599 66.8362 53.5799 64.5976 52.3899 62.3289C51.8099 61.2247 51.1599 60.1506 50.6099 59.0263C50.0599 57.912 49.5899 56.7576 49.3299 55.553C49.2299 55.0912 49.1599 54.6194 49.1099 54.1476C49.0699 53.7661 49.0499 53.3746 49.1299 52.9932C49.2099 52.6519 49.3899 52.3407 49.7499 52.2001C50.0099 52.0997 50.2799 52.1198 50.5399 52.2302C50.8099 52.3507 51.0499 52.5414 51.2599 52.7322C50.9599 52.3306 50.6199 51.9391 50.1399 51.7082C49.3199 51.3067 48.2999 51.5376 47.8499 52.3005C47.7899 52.4009 47.7399 52.5013 47.6999 52.6017C47.6799 52.5314 47.6599 52.4611 47.6299 52.3908C47.4999 52.1098 47.3099 51.8387 47.0899 51.6079C46.2199 52.4611 46.0299 53.7561 46.0699 54.9005C46.1199 56.5568 46.5699 58.1931 47.1099 59.7691C47.5599 61.0741 48.1099 62.349 48.6599 63.6239C49.4299 65.4007 50.3799 67.1173 51.0399 68.9342C51.6899 70.701 52.1599 72.7087 51.5299 74.5457C51.3799 74.9874 51.1599 75.409 50.8899 75.8005C50.6699 76.1218 50.3499 76.5534 49.9199 76.6538C49.5299 76.7341 49.2499 76.433 49.0799 76.1519C48.8099 75.7002 48.6599 75.1681 48.5399 74.6662C48.2899 73.5921 48.2199 72.4778 48.0799 71.3937C48.0099 70.8415 47.9199 70.2794 47.7699 69.7373C47.5999 69.1049 47.4099 68.4825 47.2199 67.8601C46.4399 65.3405 45.5099 62.861 44.7199 60.3413C44.5299 59.729 44.3299 59.1166 44.1199 58.5043C43.9099 57.912 43.7199 57.3097 43.5499 56.7074C43.2299 55.5429 42.9899 54.2982 43.1299 53.0935C43.2099 52.3507 43.4299 51.5978 43.7999 50.9353C43.8599 50.8249 43.9299 50.7144 43.9999 50.604C43.9099 50.6341 43.8199 50.6642 43.7399 50.7044C43.3699 50.8851 43.0899 51.1963 42.8899 51.5376C42.4699 52.2804 42.3599 53.1437 42.3799 53.9769C42.3799 54.0171 42.3799 54.0472 42.3799 54.0874C42.3399 54.0572 42.2999 54.0271 42.2499 53.997C42.2299 53.9769 42.1999 53.9669 42.1799 53.9569C42.2499 54.5491 42.3599 55.1414 42.4899 55.7236C42.6299 56.3661 42.7999 56.9985 42.9599 57.6309C43.1199 58.2634 43.2599 58.9058 43.3999 59.5382C44.0399 62.349 44.9299 65.0995 45.5199 67.9204C45.6499 68.5427 45.7699 69.1651 45.8099 69.7975C45.8499 70.4099 45.8599 71.0222 45.8599 71.6346C45.8599 72.3172 45.8399 72.9998 45.7599 73.6724C45.6999 74.1844 45.6399 74.7365 45.3999 75.1982C45.2499 75.4894 44.9699 75.6801 44.6399 75.4894C43.9599 75.0878 43.7899 74.2044 43.6899 73.5319C43.6199 73.0099 43.5999 72.4879 43.5699 71.9659C43.5399 71.4137 43.4599 70.8717 43.3599 70.3195C43.0999 68.9142 42.7499 67.5188 42.3599 66.1335C42.0799 65.1297 41.7499 64.1459 41.4299 63.1521C40.9799 61.7567 40.5499 60.3514 40.1899 58.9259C39.8799 57.6912 39.5999 56.4263 39.5499 55.1514C39.3399 55.6835 39.2399 56.2557 39.1899 56.8078C39.1499 57.2796 39.1399 57.7514 39.1599 58.2232C39.1899 58.3135 39.2099 58.4139 39.2299 58.5043C39.2799 58.7653 39.3099 59.0363 39.3299 59.3074C39.4599 60.1205 39.5699 60.9336 39.6699 61.7367C39.8499 63.1621 40.0599 64.5775 40.3299 65.993C40.4599 66.6957 40.6099 67.3983 40.7399 68.101C40.8399 68.623 40.9199 69.1551 41.0399 69.6771C41.2299 70.5304 41.4599 71.3736 41.5699 72.2369C41.6199 72.6384 41.6499 73.06 41.5899 73.4616C41.5399 73.8029 41.3699 74.1542 41.0699 74.365C40.4599 74.7867 40.1699 73.5218 40.0799 73.2006C40.0399 73.04 39.9899 72.8794 39.9499 72.7087C39.8699 72.4377 39.8099 72.1566 39.7399 71.8755C39.5599 71.223 39.3499 70.5705 39.1099 69.9381C38.8899 69.3559 38.6399 68.7937 38.3999 68.2215C38.1899 67.7095 37.9799 67.1976 37.7899 66.6756C37.5599 66.0733 37.3499 65.471 37.1699 64.8586C37.2799 66.003 37.4799 67.1373 37.6299 68.2817C38.1399 71.9056 38.6599 75.5295 38.9799 79.1634C39.0599 80.0368 39.0999 80.9101 39.0299 81.7835C38.9699 82.6267 38.8199 83.4599 38.6299 84.283C38.2499 85.9595 37.6899 87.5857 37.1699 89.222C36.6599 90.8382 36.1599 92.4544 35.9799 94.1308C35.7899 95.8172 35.8599 97.5137 36.2399 99.1701L36.2199 99.2102ZM39.5799 84.5842C40.8699 81.7734 43.7299 80.2375 46.9099 79.836C48.3499 79.6553 49.8099 79.6955 51.2499 79.826C52.0399 79.8962 52.8599 79.8661 53.6299 80.0769C54.2199 80.2476 54.7899 80.5789 55.0699 81.0908C55.7799 82.3456 54.5499 83.9317 53.7199 84.8753C51.2099 87.6961 47.8499 89.8444 45.6299 92.886C44.7299 94.1207 44.0699 95.486 43.3999 96.8311C42.8599 97.9052 42.3799 99.2102 41.3499 99.9631C41.0699 100.174 40.7199 100.335 40.3599 100.304C39.7699 100.254 39.3699 99.7322 39.0999 99.2404C38.3599 97.8952 37.9299 96.3995 37.7499 94.8535C37.3599 91.4605 38.1299 87.7162 39.5699 84.5842H39.5799Z" fill="#FAD6BE"/>
</g>
<g style="mix-blend-mode:multiply" opacity="0.69">
<path d="M35.9599 94.1811C35.9799 94.0406 35.9899 93.9101 36.0099 93.7695C36.1199 95.0946 36.3199 96.4197 36.7199 97.7046C37.1399 99.0598 37.7799 100.385 38.8099 101.439C40.1099 102.764 41.9099 103.336 43.7999 103.497C45.8699 103.667 47.9899 103.457 49.9899 104.079C49.4999 104.902 48.5399 105.294 47.7299 105.796C47.3199 106.047 46.9199 106.338 46.6199 106.699C46.3099 107.07 46.1099 107.522 45.9799 107.974C45.7199 108.867 45.7199 109.801 45.7699 110.714C45.8299 111.758 45.9399 112.792 46.0899 113.826C46.4399 116.246 46.8599 118.645 47.1799 121.064C47.3099 122.078 47.3999 123.102 47.5399 124.126C47.6499 125.009 47.7899 125.883 47.8799 126.766C47.9699 127.659 48.0299 128.563 47.9699 129.466C47.9599 129.677 47.9399 129.888 47.9099 130.099C46.8099 129.908 45.7299 129.647 44.6899 129.296C44.4499 129.215 44.2099 129.125 43.9699 129.035L41.6399 105.796C40.3799 105.093 39.2299 104.21 38.2899 103.155C37.7999 102.603 37.3499 102.011 37.0099 101.369C36.6499 100.686 36.4099 99.9532 36.2399 99.2104C35.8499 97.554 35.7899 95.8575 35.9799 94.1711L35.9599 94.1811Z" fill="#FAD6BE"/>
</g>
<path d="M35.7799 94.161C35.9699 92.4846 36.4599 90.8684 36.9799 89.2221C37.0699 88.951 37.1499 88.68 37.2399 88.4089C37.6699 87.0638 38.1199 85.6785 38.4299 84.2932C38.6399 83.3797 38.7599 82.5666 38.8199 81.8237C38.8899 80.8801 38.8299 79.9365 38.7699 79.2338C38.4799 75.9111 38.0099 72.5381 37.5499 69.2756L37.4199 68.3521C37.3699 68.0208 37.3199 67.6795 37.2699 67.3482C37.0599 65.9429 36.8399 64.4873 36.8599 63.0317C36.8799 61.9476 36.9699 60.8132 37.5499 59.9097C37.8199 59.4881 38.1599 59.2071 38.5799 59.0464L38.6299 59.0264H38.6899C38.8499 59.0766 38.9899 59.1468 39.1199 59.2372C39.1099 59.0163 39.0799 58.7854 39.0299 58.5646C39.0099 58.4742 38.9899 58.3839 38.9699 58.2936V58.2634C38.9399 57.7515 38.9499 57.2797 38.9999 56.8279C39.0699 56.1252 39.2199 55.1114 39.8099 54.3284C40.1099 53.9268 40.5099 53.6658 40.9299 53.5855C41.3499 53.5052 41.7699 53.5855 42.1699 53.8064C42.1699 52.8929 42.3499 52.1199 42.7099 51.4975C42.8699 51.2164 43.1599 50.8249 43.6299 50.5941C44.0999 50.3632 44.6499 50.3029 45.2199 50.4234C46.2599 50.6342 47.2299 51.3469 47.6899 52.2102C48.1899 51.4172 49.2799 51.1361 50.1899 51.5879C50.7699 51.8689 51.1599 52.3709 51.5299 52.8828C52.0999 53.6759 52.5499 54.3284 52.9599 54.9507C53.1399 55.2218 53.3099 55.4928 53.4799 55.7639C53.7299 56.1654 53.9899 56.587 54.2699 56.9785C54.7199 57.621 55.2399 58.2534 55.6799 58.7754L55.9799 59.1368C56.8699 60.1908 57.7899 61.285 58.5099 62.4997C58.7699 62.9313 59.0399 63.363 59.3099 63.7746C59.8999 64.6881 60.5099 65.6317 60.9399 66.6456C61.5499 68.0409 61.8399 69.5467 62.1299 70.9922L62.1999 71.3235C62.2699 71.6648 62.3399 71.9961 62.3999 72.3374C62.6699 73.6624 62.9399 75.0277 63.1899 76.3728C63.3599 77.3265 63.4999 78.1797 63.6199 78.9828C63.8199 79.023 63.9699 79.1736 64.0199 79.3743C64.0599 79.545 64.1099 79.7257 64.1599 79.8963C64.2199 80.0971 64.2799 80.3079 64.3199 80.5187C64.3999 80.8901 64.4599 81.2816 64.5199 81.6631C64.6399 82.416 64.7299 83.1789 64.7999 83.9217C64.9299 85.4576 64.9599 86.9935 64.8699 88.4692C64.6799 91.6313 63.9999 94.6027 62.8499 97.3131C62.2399 98.7586 61.4899 100.134 60.6299 101.399C60.5299 101.539 60.4399 101.68 60.3399 101.82C61.0099 104.059 65.1899 118.123 67.4599 125.883C67.4299 125.913 67.4099 125.933 67.3799 125.963C67.3099 126.033 67.2399 126.093 67.1699 126.154C64.8799 118.354 60.5699 103.848 59.9699 101.84L59.9499 101.77L59.9899 101.71C60.0999 101.549 60.2099 101.399 60.3199 101.238C61.1699 99.9933 61.8999 98.6381 62.5099 97.2127C63.6499 94.5324 64.3199 91.5911 64.5099 88.4692C64.5999 87.0036 64.5799 85.4877 64.4399 83.9719C64.3799 83.2291 64.2799 82.4762 64.1699 81.7334C64.1099 81.3519 64.0399 80.9704 63.9699 80.599C63.9299 80.3982 63.8699 80.1975 63.8199 79.9967C63.7699 79.8261 63.7199 79.6454 63.6799 79.4546C63.6699 79.3944 63.6199 79.3342 63.5399 79.3141C63.5399 79.3141 63.5199 79.3141 63.5099 79.3141L63.3299 79.3442L63.2999 79.1736C63.1799 78.3404 63.0299 77.4469 62.8499 76.4431C62.6099 75.0979 62.3299 73.7327 62.0699 72.4177C61.9999 72.0764 61.9299 71.7451 61.8699 71.4038L61.7999 71.0625C61.5099 69.627 61.2199 68.1413 60.6299 66.7761C60.1999 65.7923 59.5999 64.8587 59.0199 63.9552C58.7499 63.5336 58.4699 63.102 58.2099 62.6703C57.4999 61.4858 56.5899 60.4016 55.7099 59.3576L55.4099 58.9962C54.9599 58.4642 54.4499 57.8318 53.9799 57.1793C53.6999 56.7777 53.4299 56.3561 53.1799 55.9546C53.0099 55.6936 52.8399 55.4125 52.6599 55.1515C52.2499 54.5392 51.7999 53.8867 51.2299 53.1037C50.8799 52.6218 50.5199 52.1601 50.0099 51.9091C49.2599 51.5377 48.3599 51.7686 47.9599 52.4311C47.9099 52.5214 47.8599 52.6118 47.8199 52.7122L47.6099 53.194L47.4799 52.6921C47.4599 52.6218 47.4399 52.5616 47.4199 52.5114C47.0399 51.6782 46.1099 50.9755 45.1199 50.7647C44.6299 50.6643 44.1699 50.7145 43.7699 50.9052C43.4699 51.0558 43.1899 51.3269 42.9999 51.6682C42.6499 52.2805 42.4799 53.0736 42.5099 54.0272C42.5099 54.0573 42.5099 54.0774 42.5099 54.1075L42.5299 54.4689L42.1099 54.1878C41.7399 53.9369 41.3699 53.8566 40.9899 53.9268C40.6599 53.9871 40.3399 54.2079 40.0899 54.5291C39.5499 55.2519 39.3999 56.2156 39.3399 56.8781C39.2999 57.3098 39.2899 57.7615 39.3099 58.2534C39.3299 58.3437 39.3499 58.4341 39.3699 58.5244C39.4399 58.8657 39.4699 59.2071 39.4699 59.5383C39.4699 59.6387 39.4099 59.719 39.3099 59.7491C39.2099 59.7792 39.0999 59.7491 39.0399 59.6688C38.9399 59.5383 38.8099 59.448 38.6499 59.3978C38.3299 59.5283 38.0599 59.7692 37.8499 60.1005C37.3099 60.9437 37.2299 62.0178 37.2099 63.0618C37.1899 64.4873 37.3999 65.9328 37.6099 67.3282C37.6599 67.6594 37.7099 68.0007 37.7599 68.332L37.8899 69.2556C38.3499 72.5181 38.8199 75.891 39.1099 79.2237C39.1699 79.9465 39.2299 80.9002 39.1599 81.8639C39.0999 82.6268 38.9699 83.4499 38.7599 84.3835C38.4399 85.7889 37.9899 87.1842 37.5599 88.5294C37.4699 88.8004 37.3899 89.0715 37.2999 89.3425C36.7799 90.9788 36.2999 92.5749 36.1099 94.2212C35.9199 95.9579 35.9999 97.6343 36.3699 99.2103C36.5699 100.054 36.8099 100.726 37.1299 101.328C37.4399 101.921 37.8499 102.493 38.3799 103.085C39.2799 104.089 40.3899 104.962 41.6799 105.685L41.7599 105.725L44.1099 129.135C43.9899 129.085 43.8599 129.045 43.7399 128.994L41.4299 105.926C40.1399 105.193 39.0199 104.31 38.1099 103.296C37.5599 102.684 37.1299 102.081 36.8099 101.469C36.4799 100.847 36.2299 100.144 36.0299 99.2706C35.6499 97.6644 35.5599 95.9478 35.7599 94.1811L35.7799 94.161Z" fill="#D27A57"/>
<path d="M63.0599 99.7824C61.8399 101.539 60.1299 103.276 58.0199 104.099C55.9599 104.902 53.5199 104.681 51.8899 103.195C49.2299 100.786 48.6399 96.9616 49.4799 93.7091C50.4599 89.9045 53.3899 87.0134 56.4599 84.5038C58.9599 82.466 59.6599 79.8861 59.2999 76.8646C59.0699 74.8669 58.8299 72.8692 58.8099 70.8515C58.7999 69.8677 58.8399 68.8739 58.9499 67.9002C59.0299 67.1574 59.1299 66.3844 59.5099 65.7118C59.8799 65.0593 60.5899 64.6076 61.3899 64.5674C62.8499 64.4771 63.4299 65.6416 63.6999 66.7759C64.0899 68.4222 64.7899 70.0284 65.3499 71.6546C66.8699 76.1117 68.5099 80.378 68.3399 85.1362C68.2299 88.1879 67.4499 91.1694 66.1699 93.9701C65.2999 95.8674 64.3399 97.9453 63.0699 99.7824H63.0599Z" fill="#FAD6BE"/>
<g style="mix-blend-mode:screen">
<path d="M60.3899 101.9C62.3399 99.6518 63.7499 97.0217 64.8199 94.3213C66.1399 90.9685 66.9799 87.4048 66.9499 83.8211C66.9499 82.8474 66.8799 81.8636 66.7099 80.9099C66.5399 79.9061 66.2699 78.9223 65.9599 77.9486C65.3399 75.9811 64.5699 74.0637 64.0699 72.0661C63.8099 71.0221 63.5899 69.9781 63.3999 68.924C63.2799 68.2414 63.1699 67.5488 63.0199 66.8762C62.8399 66.0229 62.5199 65.1496 61.8499 64.5874C62.9699 64.748 63.4499 65.7719 63.6999 66.7858C64.0899 68.4321 64.7899 70.0383 65.3499 71.6645C66.8699 76.1216 68.5099 80.3879 68.3399 85.1462C68.2299 88.1979 67.4499 91.1793 66.1699 93.98C65.2999 95.8773 64.3399 97.9553 63.0699 99.7923C61.8799 101.509 60.2199 103.195 58.1899 104.049C58.9999 103.406 59.7399 102.683 60.4099 101.91L60.3899 101.9Z" fill="#FAD6BE"/>
</g>
<g style="mix-blend-mode:multiply">
<path d="M49.4699 93.7193C50.4499 89.9147 53.3799 87.0236 56.4499 84.514C58.9499 82.4762 59.6499 79.8963 59.2899 76.8747C59.0599 74.8771 58.8199 72.8794 58.7999 70.8617C58.7899 69.8779 58.8299 68.8841 58.9399 67.9104C59.0199 67.1675 59.1199 66.3946 59.4999 65.722C59.8699 65.0695 60.5799 64.6178 61.3799 64.5776C62.0699 64.5374 62.5599 64.7784 62.9199 65.1598C62.4799 64.9892 61.9999 65.0293 61.6299 65.4108C61.1099 65.9529 60.9799 66.7158 60.9099 67.4084C60.4699 71.5644 62.3399 75.6099 61.9499 79.7658C61.8699 80.6693 61.6799 81.5526 61.3099 82.3959C60.9899 83.1287 60.5599 83.8113 60.0499 84.4337C59.0299 85.6985 57.7399 86.7425 56.4799 87.7966C55.1599 88.9008 53.8599 90.0151 52.8599 91.3903C51.7199 92.9463 50.9199 94.7231 50.6299 96.6003C50.3699 98.3068 50.5599 100.003 51.2499 101.609C51.5699 102.362 51.9999 103.095 52.5499 103.738C52.3099 103.587 52.0899 103.416 51.8799 103.226C49.2199 100.816 48.6299 96.9918 49.4699 93.7393V93.7193Z" fill="#FAD6BE"/>
</g>
<path d="M49.2999 93.6791C50.3099 89.7239 53.4299 86.7626 56.3399 84.3834C58.6199 82.5263 59.4999 80.1372 59.1199 76.8847C58.8899 74.9272 58.6499 72.8894 58.6299 70.8616C58.6199 69.8076 58.6699 68.8339 58.7699 67.8902C58.8499 67.2076 58.9399 66.3644 59.3499 65.6416C59.7499 64.9289 60.5299 64.4571 61.3699 64.4069C62.6399 64.3266 63.4799 65.1196 63.8699 66.7459C64.1299 67.8501 64.5499 68.9543 64.9399 70.0284C65.1299 70.5504 65.3299 71.0825 65.5099 71.6045C65.6399 71.996 65.7799 72.3875 65.9099 72.7689C67.3299 76.8847 68.6599 80.7696 68.4999 85.1363C68.3899 88.1077 67.6599 91.0992 66.3099 94.0304C65.4599 95.8875 64.4899 97.9956 63.1899 99.8628C62.2299 101.238 60.6699 103.035 58.5699 104.029C58.7099 103.908 58.8499 103.788 58.9799 103.657C59.1499 103.497 59.2999 103.326 59.4599 103.155C60.9699 102.172 62.1299 100.796 62.8999 99.6921C64.1899 97.845 65.1399 95.757 65.9899 93.9099C67.3199 91.0189 68.0399 88.0676 68.1499 85.1363C68.3099 80.8298 66.9799 76.965 65.5699 72.8794C65.4399 72.4879 65.2999 72.1064 65.1699 71.7149C64.9899 71.1929 64.7899 70.6609 64.5999 70.1389C64.1999 69.0547 63.7799 67.9404 63.5199 66.8161C63.1799 65.4107 62.5299 64.7281 61.5299 64.7281C61.4799 64.7281 61.4399 64.7281 61.3899 64.7281C60.6699 64.7683 59.9999 65.1799 59.6599 65.7922C59.2799 66.4548 59.1999 67.2378 59.1199 67.9204C59.0099 68.8539 58.9699 69.8076 58.9799 70.8516C58.9999 72.8693 59.2399 74.8871 59.4699 76.8446C59.8599 80.1673 58.9099 82.707 56.5699 84.6244C53.6999 86.9633 50.6299 89.8845 49.6399 93.7493C49.3899 94.7431 49.2799 95.6767 49.2799 96.5601C49.2799 96.6404 49.2599 96.7107 49.2499 96.791C49.1799 97.4836 49.1799 98.1763 49.2499 98.8689C49.2499 98.9693 49.2699 99.0697 49.2799 99.1701C49.2499 99.0496 49.2199 98.9292 49.1899 98.8087C48.8199 97.1624 48.8599 95.3956 49.2899 93.6791H49.2999Z" fill="#D27A57"/>
<path d="M54.8399 73.7626C54.5299 71.8854 53.9599 70.0685 53.1399 68.3218C52.3899 66.7156 51.4799 65.1697 50.6099 63.6238C50.0599 62.6601 49.5199 61.6863 49.0399 60.6825C48.1999 58.8053 47.5199 56.8177 47.4199 54.7899C47.3899 54.2077 47.3999 53.5753 47.5599 52.993C47.5999 52.8625 47.6499 52.732 47.6899 52.6015C47.6899 52.6015 47.6899 52.6116 47.6899 52.6216C47.7299 52.5212 47.7799 52.4208 47.8399 52.3205C47.9799 52.0795 48.1899 51.8888 48.4199 51.7583C48.3799 51.8286 48.3499 51.9089 48.3199 51.9791C48.2099 52.2201 48.1099 52.471 48.0499 52.732C47.9199 53.2841 47.9599 53.8363 48.0299 54.3783C47.9999 56.5567 48.7999 58.725 49.6799 60.7026C50.3299 62.1581 51.0799 63.5736 51.8499 64.979C52.5999 66.3342 53.3999 67.6893 53.9899 69.1048C54.5599 70.4499 54.8199 71.8653 54.9999 73.3008C55.1499 74.5356 55.2099 75.7803 55.1499 77.0251C55.1499 77.0452 55.1399 77.0653 55.1299 77.0853C55.1299 75.9711 55.0199 74.8568 54.8299 73.7526L54.8399 73.7626Z" fill="#D27A57"/>
<path d="M47.9699 76.6236C47.8399 74.887 47.4599 73.1604 47.0199 71.4739C46.5199 69.5666 45.9199 67.6894 45.3499 65.8022C44.7699 63.8748 44.2899 61.9273 43.7699 59.9899C43.4199 58.6648 42.9699 57.3598 42.6399 56.0348C42.6099 55.844 42.5699 55.6633 42.5399 55.4726C42.4899 55.1915 42.4499 54.9104 42.4099 54.6294C42.3899 54.3583 42.3699 54.0773 42.3599 53.8062C42.3599 53.0433 42.4899 52.2503 42.8799 51.5777C43.0099 51.3568 43.1799 51.136 43.3799 50.9653C43.2699 51.0958 43.1799 51.2263 43.0899 51.3669C42.7599 51.9089 42.6399 52.5414 42.7099 53.1537C42.7599 53.5553 42.8399 53.9668 42.9299 54.3583C43.0099 54.7097 43.0999 55.0711 43.1899 55.4224C43.1899 55.4626 43.1999 55.4927 43.2099 55.5328C43.3099 56.1753 43.4299 56.8178 43.5699 57.4602C44.1199 60.0301 44.8899 62.5497 45.6499 65.0694C46.3899 67.5489 47.1099 70.0484 47.5899 72.5882C47.9299 74.4051 48.1399 76.2623 48.0399 78.1093C48.0199 78.1696 48.0099 78.2198 47.9899 78.28C48.0199 77.7279 47.9999 77.1758 47.9599 76.6337L47.9699 76.6236Z" fill="#D27A57"/>
<path d="M39.19 56.8281C39.23 56.4065 39.3 55.9748 39.42 55.5532C39.42 55.5633 39.42 55.5733 39.42 55.5833C39.29 57.2196 39.47 58.8659 39.77 60.4821C40.07 62.1184 40.48 63.7446 40.82 65.3708C41.17 67.0473 41.58 68.7237 41.93 70.4001C42.11 71.2534 42.26 72.0966 42.38 72.9599C42.49 73.8132 42.53 74.6765 42.51 75.5398C42.51 75.9614 42.48 76.383 42.45 76.8046C42.45 76.5135 42.43 76.2325 42.42 75.9413C42.08 70.2094 39.77 64.7485 39.23 59.0466C39.23 58.9864 39.22 58.9362 39.21 58.876C39.15 58.1933 39.13 57.5007 39.2 56.808L39.19 56.8281Z" fill="#D27A57"/>
<path d="M55.6899 78.4908C55.3199 78.5711 54.9499 78.6012 54.5799 78.6112C54.3899 78.5912 54.1899 78.5811 53.9999 78.5711C52.5499 78.4707 51.0899 78.4506 49.6399 78.5008C48.1099 78.561 46.5399 78.6313 45.0299 78.9024C44.1399 78.9726 43.2599 79.0831 42.3899 79.2738C42.1099 79.334 41.8299 79.4043 41.5499 79.4846C42.4699 79.0329 43.4799 78.7116 44.4899 78.5109C45.8699 78.2398 47.2799 78.1495 48.6899 78.0892C50.1499 78.019 51.5999 78.0089 53.0599 78.0892C53.8299 78.1394 54.5999 78.2097 55.3699 78.3101C55.5999 78.3402 55.8299 78.3703 56.0599 78.4004C55.9399 78.4406 55.8099 78.4707 55.6899 78.5008V78.4908Z" fill="#D27A57"/>
<g opacity="0.53">
<path d="M57.46 84.0816C57.46 84.0816 57.36 59.0256 57.46 54.5886C57.56 50.1516 56.67 49.1879 52.56 46.5277C48.3 43.7672 48.97 41.0166 48.97 41.0166H38.76V36.5897C38.76 35.5356 38.16 35.5958 38.16 35.5958H36.88C36.88 35.5958 36.28 35.5356 36.28 36.5897V41.0166H22.01C22.01 41.0166 22.68 43.7772 18.42 46.5277C14.31 49.1879 13.42 50.1516 13.52 54.5886C13.62 59.0256 13.52 84.0816 13.52 84.0816C13.52 84.0816 12.92 90.2753 20.99 92.4938C25.69 93.7888 30.55 94.6822 35.47 94.6923C40.39 94.6923 45.29 93.7888 50 92.4938C58.06 90.2753 57.47 84.0816 57.47 84.0816H57.46ZM39.5 93.849H31.49C31.06 93.849 30.72 93.5278 30.72 93.1263C30.72 92.7247 31.07 92.4035 31.49 92.4035H39.5C39.93 92.4035 40.27 92.7247 40.27 93.1263C40.27 93.5278 39.92 93.849 39.5 93.849Z" fill="#C9CACC"/>
<path d="M35.55 94.763C35.55 94.763 35.5 94.763 35.48 94.763C31.08 94.763 26.34 94.0302 20.98 92.5645C16.79 91.4101 14.97 89.1715 14.18 87.4951C13.32 85.6782 13.46 84.1021 13.47 84.0921C13.47 83.8512 13.57 58.9859 13.47 54.5991C13.37 50.1621 14.25 49.1683 18.4 46.488C20.58 45.0726 21.43 43.6672 21.76 42.7236C22.11 41.7197 21.96 41.0371 21.96 41.0371L21.94 40.9568H36.23V36.5901C36.23 36.1484 36.33 35.8372 36.54 35.6665C36.72 35.516 36.9 35.536 36.91 35.536H38.18C38.18 35.536 38.36 35.516 38.54 35.6665C38.74 35.8372 38.85 36.1484 38.85 36.5901V40.9568H49.07L49.05 41.0371C49.05 41.0371 48.44 43.7877 52.61 46.488C56.76 49.1683 57.64 50.1721 57.54 54.5991C57.44 58.9759 57.54 83.7207 57.54 84.0921C57.54 84.1724 57.66 85.7083 56.83 87.4951C56.04 89.1715 54.22 91.4202 50.03 92.5645C44.65 94.0502 39.91 94.763 35.56 94.763H35.55ZM22.09 41.0773C22.16 41.5491 22.32 44.0888 18.46 46.5784C14.36 49.2285 13.49 50.2123 13.59 54.589C13.69 58.9759 13.59 83.8411 13.59 84.0921C13.59 84.1122 13.45 85.6581 14.3 87.4449C15.08 89.1013 16.87 91.2997 21.01 92.4441C26.35 93.9097 31.08 94.6325 35.47 94.6425C39.83 94.6525 44.58 93.9298 49.98 92.4441C54.12 91.3097 55.91 89.1013 56.69 87.4449C57.53 85.6581 57.4 84.1122 57.4 84.0921C57.4 83.8411 57.3 58.9759 57.4 54.589C57.5 50.2123 56.63 49.2285 52.53 46.5784C48.68 44.0788 48.84 41.539 48.9 41.0773H38.71V36.58C38.71 36.0781 38.57 35.8472 38.45 35.7469C38.32 35.6364 38.19 35.6465 38.18 35.6465H36.89C36.89 35.6465 36.75 35.6364 36.62 35.7469C36.5 35.8472 36.36 36.0781 36.36 36.58V41.0773H22.1H22.09ZM39.5 93.9097H31.49C31.03 93.9097 30.65 93.5583 30.65 93.1267C30.65 92.695 31.03 92.3437 31.49 92.3437H39.5C39.96 92.3437 40.34 92.695 40.34 93.1267C40.34 93.5583 39.96 93.9097 39.5 93.9097ZM31.49 92.4742C31.1 92.4742 30.78 92.7653 30.78 93.1267C30.78 93.4881 31.1 93.7792 31.49 93.7792H39.5C39.89 93.7792 40.21 93.4881 40.21 93.1267C40.21 92.7653 39.89 92.4742 39.5 92.4742H31.49Z" fill="#929496"/>
</g>
<g style="mix-blend-mode:multiply">
<path d="M55.46 54.579C55.35 52.9929 54.9 51.5775 54.13 50.3729C53.52 49.4192 52.67 48.5157 51.45 47.532C50.76 46.9698 50.18 46.5382 49.65 46.1567C49.09 45.7552 48.73 45.4038 48.55 45.0726C48.25 44.5004 48.12 43.8278 48.02 43.2255C47.95 42.8239 47.9 41.8904 47.87 41.1274H43.59C43.6 42.4525 43.48 44.0486 43.14 44.5606C42.81 45.0525 42.17 45.2031 41.68 45.2332C41.55 45.2332 41.42 45.2432 41.3 45.2432C40.66 45.2432 40.18 45.1127 39.83 44.8517C39.15 44.3297 38 44.0988 37.17 44.0988C36.99 44.0988 36.81 44.1089 36.65 44.1289C35.84 44.2293 35.34 44.5907 34.93 44.8818C34.52 45.1729 34.28 45.3336 33.86 45.3336C33.82 45.3336 33.78 45.3336 33.73 45.3336C33.64 45.3336 33.53 45.3034 33.4 45.1529C32.77 44.4502 32.75 42.3421 32.88 41.1274H29.1C29.23 42.1915 29.26 44.5104 28.59 45.2131C28.48 45.3235 28.37 45.3737 28.22 45.3737H28.19C28.19 45.3737 28.11 45.3737 28.01 45.2733C27.46 44.7011 27.23 42.8239 27.21 41.1274H22.8C22.7 42.5328 22.31 44.6208 20.96 45.8254C20.47 46.2671 19.95 46.6787 19.45 47.0903C17.26 48.8571 14.99 50.6841 14.71 54.579C14.55 56.8376 14.76 60.2206 14.98 63.8144C15.2 67.4182 15.44 71.1424 15.28 73.8127C15.25 74.2845 15.23 74.7563 15.2 75.2181C14.9 80.3377 14.63 84.7646 15.78 86.5113C18.52 90.6873 28.69 91.7414 32.92 92.0024C32.97 92.0024 34.14 92.1027 34.89 92.1027C34.96 92.1027 35.02 92.1027 35.08 92.1027C35.14 92.1027 35.2 92.1027 35.27 92.1027C36.02 92.1027 37.19 92.0024 37.23 92.0024C41.47 91.7414 51.64 90.6873 54.38 86.5113C55.53 84.7646 55.27 80.3377 54.96 75.2181C54.93 74.7462 54.9 74.2744 54.88 73.8026C54.73 71.1424 54.96 67.4081 55.18 63.8144C55.4 60.2206 55.62 56.8376 55.45 54.579H55.46Z" fill="#CACBCD"/>
</g>
<path d="M54.79 54.6193C54.69 53.244 54.31 51.8788 53.55 50.6842C52.89 49.6503 51.98 48.787 51.01 48.004C50.43 47.5422 49.85 47.0804 49.24 46.6488C48.76 46.3075 48.22 45.8658 47.95 45.3438C47.61 44.7114 47.47 44.0087 47.35 43.316C47.24 42.6836 47.18 40.9068 47.18 40.2643H44.23C44.23 40.2643 44.42 43.8079 43.71 44.882C43.28 45.5245 42.52 45.7955 41.73 45.8457C40.92 45.9059 40.05 45.8256 39.4 45.3237C38.81 44.872 37.58 44.621 36.74 44.7314C35.36 44.9121 35.11 46.0364 33.68 45.936C31.66 45.7955 32.22 40.9871 32.22 40.9871H29.75C29.75 40.9871 30.39 46.0665 28.15 45.9762C26.18 45.8959 26.57 39.6118 26.57 39.6118H23.49C23.49 39.6118 23.84 44.089 21.43 46.2472C18.79 48.6163 15.71 50.102 15.38 54.5892C15.05 59.0764 16.26 68.4824 15.96 73.8129C15.65 79.1433 15.22 84.4235 16.36 86.1602C18.34 89.1817 25.28 90.8782 32.99 91.35C32.99 91.35 34.4 91.4705 35.08 91.4504C35.77 91.4705 37.18 91.35 37.18 91.35C44.89 90.8782 51.82 89.1717 53.81 86.1602C54.95 84.4235 54.52 79.1433 54.21 73.8129C53.9 68.4824 55.11 59.0864 54.79 54.5892V54.6193Z" fill="#B01A1F"/>
<path d="M44.55 56.0249H26.09C22.4062 56.0249 19.42 59.0226 19.42 62.7206V78.8724C19.42 82.5703 22.4062 85.5681 26.09 85.5681H44.55C48.2337 85.5681 51.22 82.5703 51.22 78.8724V62.7206C51.22 59.0226 48.2337 56.0249 44.55 56.0249Z" fill="white"/>
<path d="M28.28 60.9537C27.64 60.0101 26.98 59.207 26.46 58.6147C25.94 59.207 25.28 60.0001 24.64 60.9537C23.06 63.2826 21.61 66.4749 22.64 69.4563C22.68 69.5767 22.72 69.6872 22.77 69.8076C23.15 70.7211 23.75 71.3234 24.45 71.6949C25.07 72.0161 25.77 72.1566 26.47 72.1366C27.17 72.1466 27.87 72.0161 28.49 71.6949C29.19 71.3335 29.79 70.7211 30.17 69.8076C30.22 69.6972 30.26 69.5767 30.3 69.4563C31.33 66.4749 29.88 63.2826 28.3 60.9537H28.28Z" fill="#CD1E25"/>
<path d="M26.79 61.1244C26.5 60.6928 26.19 60.3213 25.95 60.0503C25.71 60.3213 25.41 60.6928 25.11 61.1244C24.38 62.1985 23.72 63.6641 24.19 65.0294C24.21 65.0796 24.23 65.1398 24.25 65.19C24.42 65.6116 24.7 65.8826 25.02 66.0533C25.31 66.2039 25.63 66.2641 25.95 66.2541C26.27 66.2541 26.59 66.1938 26.88 66.0533C27.2 65.8826 27.48 65.6116 27.65 65.19C27.67 65.1398 27.69 65.0796 27.71 65.0294C28.19 63.6641 27.52 62.1885 26.79 61.1244Z" fill="white"/>
<path d="M33.68 72.2871H32.9V75.0276H33.68V72.2871Z" fill="#231F20"/>
<path d="M34.27 72.2871H33.88V75.0276H34.27V72.2871Z" fill="#231F20"/>
<path d="M34.67 72.2871H34.47V75.0276H34.67V72.2871Z" fill="#231F20"/>
<path d="M35.21 72.2871H34.86V75.0276H35.21V72.2871Z" fill="#231F20"/>
<path d="M35.58 72.2871H35.41V75.0276H35.58V72.2871Z" fill="#231F20"/>
<path d="M35.87 72.2871H35.78V75.0276H35.87V72.2871Z" fill="#231F20"/>
<path d="M36.85 72.2871H36.07V75.0276H36.85V72.2871Z" fill="#231F20"/>
<path d="M41.57 72.2871H39.2401V75.0276H41.57V72.2871Z" fill="#231F20"/>
<path d="M37.44 72.2871H37.05V75.0276H37.44V72.2871Z" fill="#231F20"/>
<path d="M37.84 72.2871H37.64V75.0276H37.84V72.2871Z" fill="#231F20"/>
<path d="M38.38 72.2871H38.03V75.0276H38.38V72.2871Z" fill="#231F20"/>
<path d="M38.75 72.2871H38.58V75.0276H38.75V72.2871Z" fill="#231F20"/>
<path d="M39.04 72.2871H38.95V75.0276H39.04V72.2871Z" fill="#231F20"/>
<path d="M42.85 72.2871H41.71V75.0276H42.85V72.2871Z" fill="#231F20"/>
<path d="M43.44 72.2871H43.05V75.0276H43.44V72.2871Z" fill="#231F20"/>
<path d="M43.84 72.2871H43.64V75.0276H43.84V72.2871Z" fill="#231F20"/>
<path d="M44.39 72.2871H44.04V75.0276H44.39V72.2871Z" fill="#231F20"/>
<path d="M44.75 72.2871H44.58V75.0276H44.75V72.2871Z" fill="#231F20"/>
<path d="M45.05 72.2871H44.96V75.0276H45.05V72.2871Z" fill="#231F20"/>
<path d="M46.0201 72.2871H45.2401V75.0276H46.0201V72.2871Z" fill="#231F20"/>
<path d="M49.59 72.2871H48.42V75.0276H49.59V72.2871Z" fill="#231F20"/>
<path d="M46.61 72.2871H46.22V75.0276H46.61V72.2871Z" fill="#231F20"/>
<path d="M47.01 72.2871H46.81V75.0276H47.01V72.2871Z" fill="#231F20"/>
<path d="M47.56 72.2871H47.21V75.0276H47.56V72.2871Z" fill="#231F20"/>
<path d="M47.93 72.2871H47.76V75.0276H47.93V72.2871Z" fill="#231F20"/>
<path d="M48.22 72.2871H48.13V75.0276H48.22V72.2871Z" fill="#231F20"/>
<path d="M49.38 75.8608H33.09V76.4832H49.38V75.8608Z" fill="#5F6062"/>
<path d="M49.38 76.8345H33.09V77.4569H49.38V76.8345Z" fill="#5F6062"/>
<path d="M43.05 77.7983H33.09V78.4207H43.05V77.7983Z" fill="#B6B8BA"/>
<path d="M49.39 77.7983H43.45V78.4207H49.39V77.7983Z" fill="#B6B8BA"/>
<path d="M41.91 78.9126H33.09V79.3041H41.91V78.9126Z" fill="#B6B8BA"/>
<path d="M41.91 79.5151H33.09V79.9066H41.91V79.5151Z" fill="#B6B8BA"/>
<path d="M38.48 80.1172H33.09V80.5087H38.48V80.1172Z" fill="#B6B8BA"/>
<path d="M41.92 80.1172H38.7V80.5087H41.92V80.1172Z" fill="#B6B8BA"/>
<path d="M49.38 78.9126H42.2V79.3041H49.38V78.9126Z" fill="#B6B8BA"/>
<path d="M49.38 79.5151H42.2V79.9066H49.38V79.5151Z" fill="#B6B8BA"/>
<path d="M46.59 80.1172H42.2V80.5087H46.59V80.1172Z" fill="#B6B8BA"/>
<path d="M49.39 80.1172H46.77V80.5087H49.39V80.1172Z" fill="#B6B8BA"/>
<path d="M40.5701 81.2817H49.3901V80.8902H40.5701V81.2817Z" fill="#B6B8BA"/>
<path d="M40.5701 81.8838H49.3901V81.4923H40.5701V81.8838Z" fill="#B6B8BA"/>
<path d="M44.0001 82.4966H49.3901V82.1051H44.0001V82.4966Z" fill="#B6B8BA"/>
<path d="M40.56 82.4966H43.78V82.1051H40.56V82.4966Z" fill="#B6B8BA"/>
<path d="M33.1 81.2817H40.28V80.8902H33.1V81.2817Z" fill="#B6B8BA"/>
<path d="M33.1 81.8838H40.28V81.4923H33.1V81.8838Z" fill="#B6B8BA"/>
<path d="M35.88 82.4966H40.27V82.1051H35.88V82.4966Z" fill="#B6B8BA"/>
<path d="M33.09 82.4966H35.71V82.1051H33.09V82.4966Z" fill="#B6B8BA"/>
<path d="M31 75.8911H21.44V76.1019H31V75.8911Z" fill="#E2E3E4"/>
<path d="M31 76.3525H21.44V76.5633H31V76.3525Z" fill="#E2E3E4"/>
<path d="M31 75.4292H21.44V75.64H31V75.4292Z" fill="#E2E3E4"/>
<path d="M31 76.8047H21.44V77.0155H31V76.8047Z" fill="#E2E3E4"/>
<path d="M31 77.728H21.44V77.9388H31V77.728Z" fill="#E2E3E4"/>
<path d="M31 78.1797H21.44V78.3905H31V78.1797Z" fill="#E2E3E4"/>
<path d="M31 77.2661H21.44V77.4769H31V77.2661Z" fill="#E2E3E4"/>
<path d="M31 78.6416H21.44V78.8524H31V78.6416Z" fill="#E2E3E4"/>
<path d="M31 79.6353H21.44V79.8461H31V79.6353Z" fill="#E2E3E4"/>
<path d="M31 80.0972H21.44V80.308H31V80.0972Z" fill="#E2E3E4"/>
<path d="M31 79.1836H21.44V79.3944H31V79.1836Z" fill="#E2E3E4"/>
<path d="M31 80.5591H21.44V80.7699H31V80.5591Z" fill="#E2E3E4"/>
<path d="M31 81.4722H21.44V81.683H31V81.4722Z" fill="#E2E3E4"/>
<path d="M31 81.9341H21.44V82.1449H31V81.9341Z" fill="#E2E3E4"/>
<path d="M31 81.0107H21.44V81.2216H31V81.0107Z" fill="#E2E3E4"/>
<path d="M31 82.3857H21.44V82.5965H31V82.3857Z" fill="#E2E3E4"/>
<g style="mix-blend-mode:multiply">
<path d="M54.79 54.6193C54.69 53.244 54.31 51.8788 53.55 50.6842C52.89 49.6503 51.98 48.787 51.01 48.004C50.43 47.5422 49.85 47.0804 49.24 46.6488C48.76 46.3075 48.22 45.8658 47.95 45.3438C47.61 44.7114 47.47 44.0087 47.35 43.316C47.24 42.6836 47.18 40.9068 47.18 40.2643H44.23C44.23 40.2643 44.42 43.8079 43.71 44.882C43.28 45.5245 42.52 45.7955 41.73 45.8457C40.92 45.9059 40.05 45.8256 39.4 45.3237C38.81 44.872 37.58 44.621 36.74 44.7314C35.36 44.9121 35.11 46.0364 33.68 45.936C31.66 45.7955 32.22 40.9871 32.22 40.9871H29.75C29.75 40.9871 30.39 46.0665 28.15 45.9762C26.18 45.8959 26.57 39.6118 26.57 39.6118H23.49C23.49 39.6118 23.84 44.089 21.43 46.2472C18.79 48.6163 15.71 50.102 15.38 54.5892C15.05 59.0764 16.26 68.4824 15.96 73.8129C15.65 79.1433 15.22 84.4235 16.36 86.1602C18.34 89.1817 25.28 90.8782 32.99 91.35C32.99 91.35 34.4 91.4705 35.08 91.4504C35.77 91.4705 37.18 91.35 37.18 91.35C44.89 90.8782 51.82 89.1717 53.81 86.1602C54.95 84.4235 54.52 79.1433 54.21 73.8129C53.9 68.4824 55.11 59.0864 54.79 54.5892V54.6193ZM53.02 83.4197C52.13 87.0435 47 88.459 38.37 89.3323C29.74 90.2057 19.32 87.6358 17.45 85.7887C15.58 83.9417 16.76 78.3302 17.6 73.5619C18.44 68.7936 16.12 58.6247 16.07 56.2455C16.02 53.8664 16.38 51.2062 19.38 49.1785C22.37 47.1507 23.38 45.0627 23.38 45.0627C23.68 43.6573 25.74 44.1291 25.94 44.7314C26.14 45.3337 26.58 47.3816 28.16 47.4217C29.44 47.4519 29.19 46.699 31.28 46.719C32.49 46.7291 32.81 47.9337 36.17 46.3275C38.67 45.133 40.14 47.5623 42.2 47.4217C44.26 47.2812 45.35 45.3237 46.97 47.0202C48.88 49.0279 50.64 49.9012 52.37 52.2804C54.1 54.6595 52.91 65.1697 52.72 69.3357C52.52 73.5017 53.9 79.7857 53.02 83.4096V83.4197Z" fill="#B7B8BA"/>
</g>
<g style="mix-blend-mode:multiply">
<path d="M54.79 54.6193C54.69 53.244 54.31 51.8788 53.55 50.6842C52.89 49.6503 51.98 48.787 51.01 48.004C50.43 47.5422 49.85 47.0804 49.24 46.6488C48.76 46.3075 48.22 45.8658 47.95 45.3438C47.61 44.7114 47.47 44.0087 47.35 43.316C47.24 42.6836 47.18 40.9068 47.18 40.2643H44.23C44.23 40.2643 44.42 43.8079 43.71 44.882C43.28 45.5245 42.52 45.7955 41.73 45.8457C40.92 45.9059 40.05 45.8256 39.4 45.3237C38.81 44.872 37.58 44.621 36.74 44.7314C35.36 44.9121 35.11 46.0364 33.68 45.936C32.56 45.8557 32.23 44.36 32.16 43.0349C32 42.9345 31.84 42.8442 31.67 42.7639C31.16 42.533 30.56 42.4427 30.03 42.6535C29.96 42.6836 29.9 42.7137 29.84 42.7438C29.81 44.1994 29.51 46.0364 28.16 45.9762C26.19 45.8959 26.58 39.6118 26.58 39.6118H23.5C23.5 39.6118 23.85 44.089 21.44 46.2472C18.8 48.6163 15.72 50.102 15.39 54.5892C15.06 59.0764 16.27 68.4824 15.97 73.8129C15.66 79.1433 15.23 84.4235 16.37 86.1602C18.35 89.1817 25.29 90.8782 33 91.35C33 91.35 34.41 91.4705 35.09 91.4504C35.78 91.4705 37.19 91.35 37.19 91.35C44.9 90.8782 51.83 89.1717 53.82 86.1602C54.96 84.4235 54.53 79.1433 54.22 73.8129C53.91 68.4824 55.12 59.0864 54.8 54.5892L54.79 54.6193ZM53.02 83.4197C52.13 87.0435 47 88.459 38.37 89.3323C29.74 90.2057 19.32 87.6358 17.45 85.7887C15.58 83.9417 16.76 78.3302 17.6 73.5619C18.44 68.7936 16.12 58.6247 16.07 56.2455C16.02 53.8664 16.38 51.2062 19.38 49.1785C22.37 47.1507 23.38 45.0627 23.38 45.0627C23.68 43.6573 25.74 44.1291 25.94 44.7314C26.14 45.3337 26.58 47.3816 28.16 47.4217C29.44 47.4519 29.19 46.699 31.28 46.719C32.49 46.7291 32.81 47.9337 36.17 46.3275C38.67 45.133 40.14 47.5623 42.2 47.4217C44.26 47.2812 45.35 45.3237 46.97 47.0202C48.88 49.0279 50.64 49.9012 52.37 52.2804C54.1 54.6595 52.91 65.1697 52.72 69.3357C52.52 73.5017 53.9 79.7857 53.02 83.4096V83.4197Z" fill="#B7B8BA"/>
</g>
<g opacity="0.53">
<path d="M26.25 34.1609H23.6C23.6 34.1609 22.83 34.0906 22.83 35.3454V42.3221H27.01V35.3454C27.01 34.0906 26.24 34.1609 26.24 34.1609H26.25Z" fill="#C9CACC"/>
<path d="M27.08 42.3925H22.76V35.3555C22.76 34.8436 22.88 34.4822 23.13 34.2714C23.35 34.0806 23.59 34.1007 23.6 34.1007H26.24C26.24 34.1007 26.5 34.0907 26.71 34.2714C26.95 34.4721 27.08 34.8436 27.08 35.3555V42.3925ZM22.9 42.262H26.95V35.3555C26.95 34.8837 26.84 34.5424 26.63 34.3617C26.45 34.2111 26.27 34.2212 26.26 34.2212H23.61C23.6 34.2212 23.41 34.2111 23.23 34.3617C23.02 34.5424 22.91 34.8837 22.91 35.3555V42.262H22.9Z" fill="#929496"/>
</g>
<path d="M26.33 35.3656H23.52C23.34 35.3656 23.19 35.225 23.19 35.0544C23.19 34.8837 23.34 34.7432 23.52 34.7432H26.33C26.51 34.7432 26.66 34.8837 26.66 35.0544C26.66 35.225 26.51 35.3656 26.33 35.3656Z" fill="#B7B8BA"/>
<path d="M26.33 36.2088H23.52C23.34 36.2088 23.19 36.0683 23.19 35.8976C23.19 35.727 23.34 35.5864 23.52 35.5864H26.33C26.51 35.5864 26.66 35.727 26.66 35.8976C26.66 36.0683 26.51 36.2088 26.33 36.2088Z" fill="#B7B8BA"/>
<path d="M26.33 37.0418H23.52C23.34 37.0418 23.19 36.9013 23.19 36.7306C23.19 36.56 23.34 36.4194 23.52 36.4194H26.33C26.51 36.4194 26.66 36.56 26.66 36.7306C26.66 36.9013 26.51 37.0418 26.33 37.0418Z" fill="#B7B8BA"/>
<path d="M26.33 37.8753H23.52C23.34 37.8753 23.19 37.7348 23.19 37.5641C23.19 37.3935 23.34 37.2529 23.52 37.2529H26.33C26.51 37.2529 26.66 37.3935 26.66 37.5641C26.66 37.7348 26.51 37.8753 26.33 37.8753Z" fill="#B7B8BA"/>
<path d="M26.33 38.7186H23.52C23.34 38.7186 23.19 38.578 23.19 38.4074C23.19 38.2367 23.34 38.0962 23.52 38.0962H26.33C26.51 38.0962 26.66 38.2367 26.66 38.4074C26.66 38.578 26.51 38.7186 26.33 38.7186Z" fill="#B7B8BA"/>
<path d="M26.33 39.5516H23.52C23.34 39.5516 23.19 39.411 23.19 39.2404C23.19 39.0697 23.34 38.9292 23.52 38.9292H26.33C26.51 38.9292 26.66 39.0697 26.66 39.2404C26.66 39.411 26.51 39.5516 26.33 39.5516Z" fill="#B7B8BA"/>
<path d="M26.33 40.3846H23.52C23.34 40.3846 23.19 40.2441 23.19 40.0734C23.19 39.9027 23.34 39.7622 23.52 39.7622H26.33C26.51 39.7622 26.66 39.9027 26.66 40.0734C26.66 40.2441 26.51 40.3846 26.33 40.3846Z" fill="#B7B8BA"/>
<path d="M26.33 41.2279H23.52C23.34 41.2279 23.19 41.0873 23.19 40.9167C23.19 40.746 23.34 40.6055 23.52 40.6055H26.33C26.51 40.6055 26.66 40.746 26.66 40.9167C26.66 41.0873 26.51 41.2279 26.33 41.2279Z" fill="#B7B8BA"/>
<g opacity="0.53">
<path d="M47.01 34.1609H44.36C44.36 34.1609 43.59 34.0906 43.59 35.3454V42.3221H47.77V35.3454C47.77 34.0906 47 34.1609 47 34.1609H47.01Z" fill="#C9CACC"/>
<path d="M47.84 42.3925H43.52V35.3555C43.52 34.8436 43.64 34.4822 43.89 34.2714C44.11 34.0806 44.35 34.1007 44.36 34.1007H47C47 34.1007 47.26 34.0907 47.47 34.2714C47.71 34.4721 47.84 34.8436 47.84 35.3555V42.3925ZM43.66 42.262H47.71V35.3555C47.71 34.8837 47.6 34.5424 47.39 34.3617C47.21 34.2111 47.03 34.2212 47.02 34.2212H44.37C44.36 34.2212 44.17 34.2111 43.99 34.3617C43.78 34.5424 43.67 34.8837 43.67 35.3555V42.262H43.66Z" fill="#929496"/>
</g>
<path d="M47.09 35.3656H44.28C44.1 35.3656 43.95 35.225 43.95 35.0544C43.95 34.8837 44.1 34.7432 44.28 34.7432H47.09C47.27 34.7432 47.42 34.8837 47.42 35.0544C47.42 35.225 47.27 35.3656 47.09 35.3656Z" fill="#B7B8BA"/>
<path d="M47.09 36.2088H44.28C44.1 36.2088 43.95 36.0683 43.95 35.8976C43.95 35.727 44.1 35.5864 44.28 35.5864H47.09C47.27 35.5864 47.42 35.727 47.42 35.8976C47.42 36.0683 47.27 36.2088 47.09 36.2088Z" fill="#B7B8BA"/>
<path d="M47.09 37.0418H44.28C44.1 37.0418 43.95 36.9013 43.95 36.7306C43.95 36.56 44.1 36.4194 44.28 36.4194H47.09C47.27 36.4194 47.42 36.56 47.42 36.7306C47.42 36.9013 47.27 37.0418 47.09 37.0418Z" fill="#B7B8BA"/>
<path d="M47.09 37.8753H44.28C44.1 37.8753 43.95 37.7348 43.95 37.5641C43.95 37.3935 44.1 37.2529 44.28 37.2529H47.09C47.27 37.2529 47.42 37.3935 47.42 37.5641C47.42 37.7348 47.27 37.8753 47.09 37.8753Z" fill="#B7B8BA"/>
<path d="M47.09 38.7186H44.28C44.1 38.7186 43.95 38.578 43.95 38.4074C43.95 38.2367 44.1 38.0962 44.28 38.0962H47.09C47.27 38.0962 47.42 38.2367 47.42 38.4074C47.42 38.578 47.27 38.7186 47.09 38.7186Z" fill="#B7B8BA"/>
<path d="M47.09 39.5516H44.28C44.1 39.5516 43.95 39.411 43.95 39.2404C43.95 39.0697 44.1 38.9292 44.28 38.9292H47.09C47.27 38.9292 47.42 39.0697 47.42 39.2404C47.42 39.411 47.27 39.5516 47.09 39.5516Z" fill="#B7B8BA"/>
<path d="M47.09 40.3846H44.28C44.1 40.3846 43.95 40.2441 43.95 40.0734C43.95 39.9027 44.1 39.7622 44.28 39.7622H47.09C47.27 39.7622 47.42 39.9027 47.42 40.0734C47.42 40.2441 47.27 40.3846 47.09 40.3846Z" fill="#B7B8BA"/>
<path d="M47.09 41.2279H44.28C44.1 41.2279 43.95 41.0873 43.95 40.9167C43.95 40.746 44.1 40.6055 44.28 40.6055H47.09C47.27 40.6055 47.42 40.746 47.42 40.9167C47.42 41.0873 47.27 41.2279 47.09 41.2279Z" fill="#B7B8BA"/>
<g style="mix-blend-mode:color-dodge">
<path d="M31.87 48.2048C31.73 47.8435 31.2 47.7933 30.85 47.8033C30.41 47.8234 29.99 47.9238 29.56 48.0141C29.18 48.0944 28.79 48.1747 28.41 48.245C27.64 48.3855 26.68 48.516 26 48.0543C25.61 47.7933 25.38 47.3616 25.21 46.9601C25.04 46.5585 24.92 46.147 24.79 45.7354C24.71 45.4744 24.62 45.1431 24.38 44.9725C24.09 44.7617 23.75 45.0126 23.62 45.2636C23.45 45.5748 23.41 45.9261 23.29 46.2473C23.13 46.6991 22.9 47.1408 22.6 47.5222C21.98 48.3052 21.05 48.8373 20.21 49.3793C19.38 49.9214 18.56 50.5037 18.02 51.3168C17.51 52.0897 17.24 52.9832 17.12 53.8866C17.09 54.1376 17.07 54.3885 17.06 54.6395C17.04 54.77 17.02 54.8905 17.01 55.021C16.96 55.543 16.95 56.075 17.01 56.597C17.03 56.8279 17.08 57.0487 17.12 57.2696C17.15 57.4302 17.18 57.641 17.33 57.7414C17.64 57.9622 17.9 57.6008 17.98 57.3599C18.11 56.9483 18.21 56.5368 18.34 56.1252C18.49 55.6333 18.66 55.1515 18.89 54.6797C19.13 54.2078 19.44 53.7662 19.79 53.3646C20.49 52.5615 21.33 51.899 22.32 51.4272C24.25 50.5037 26.48 50.2025 28.61 49.9415C29.58 49.821 30.65 49.6504 31.42 49.0481C31.67 48.8573 32.02 48.5361 31.88 48.2048H31.87ZM18.3 51.3569C18.56 50.9755 18.88 50.6442 19.25 50.343C19.44 50.1925 19.63 50.0519 19.83 49.9114C19.47 50.1824 19.12 50.4735 18.81 50.8048C18.46 51.1762 18.18 51.5978 17.94 52.0395C17.9 52.1098 17.87 52.1801 17.83 52.2503C17.96 51.9392 18.11 51.648 18.3 51.367V51.3569Z" fill="#B01A1F"/>
</g>
<g style="mix-blend-mode:color-dodge">
<path d="M40.25 47.9839C40.23 47.9236 40.21 47.8735 40.17 47.8233C39.81 47.3213 38.99 47.1206 38.4 47.0001C37.26 46.7692 35.67 46.8997 34.73 47.5823C34.32 47.8735 33.95 48.546 34.62 48.787C34.82 48.8572 35.05 48.8472 35.27 48.8271C36.01 48.7568 36.66 48.4256 37.37 48.3352C38.12 48.2348 38.86 48.526 39.61 48.5059C39.85 48.5059 40.12 48.4456 40.22 48.2549C40.26 48.1746 40.27 48.0742 40.24 47.9839H40.25Z" fill="#B01A1F"/>
</g>
<g style="mix-blend-mode:color-dodge">
<path d="M46.61 47.9538C46.55 47.8233 46.46 47.6928 46.37 47.6025C46 47.2612 45.43 47.221 44.94 47.2913C44.34 47.3816 43.74 47.6125 43.22 47.8936C42.23 48.4156 43.47 48.4457 43.93 48.4055C44.61 48.3453 45.16 48.526 45.81 48.6163C46.03 48.6465 46.29 48.6665 46.48 48.536C46.71 48.3855 46.71 48.1546 46.62 47.9438L46.61 47.9538Z" fill="#B01A1F"/>
</g>
<g style="mix-blend-mode:color-dodge">
<path d="M22.17 87.0536C22.05 86.883 21.52 86.5718 21.48 86.5417C20.14 85.7085 19.1 84.8753 18.51 83.4398C17.99 82.185 17.86 80.8097 17.92 79.4746C17.95 78.8723 18.01 78.27 18.09 77.6677C18.16 77.1557 18.36 76.5534 18.22 76.0414C18.11 75.6299 17.85 75.5997 17.66 76.0113C17.53 76.2723 17.55 76.5936 17.53 76.8746C17.5 77.4267 17.46 77.9889 17.4 78.541C17.3 79.5248 17.17 80.4985 17.07 81.4823C16.94 82.7672 16.88 83.9819 17.68 85.0961C18.42 86.1401 19.71 86.7525 20.99 87.0436C21.12 87.0737 22.31 87.2644 22.17 87.0536Z" fill="#B01A1F"/>
</g>
<g style="mix-blend-mode:color-dodge">
<path d="M45.05 87.7864C45.05 87.7864 45.07 87.7763 45.08 87.7663C45.2 87.696 45.37 87.5856 45.4 87.4551C45.48 87.0837 44.39 87.4049 44.24 87.4451C44 87.5153 43.77 87.5856 43.53 87.6559C43.1 87.7864 42.65 87.8566 42.21 87.9269C41.09 88.0976 39.96 88.1779 38.82 88.2582C36.51 88.4188 34.16 88.5292 31.85 88.3385C31.28 88.2883 30.7 88.2381 30.14 88.1277C29.69 88.0373 29.25 87.8968 28.81 87.7964C28.48 87.7261 28.1 87.6358 27.76 87.7061C26.99 87.8566 28.75 88.3987 28.96 88.4489C31.31 88.9508 33.73 89.1215 36.14 89.0211C38.9 88.9006 41.63 88.469 44.33 87.947C44.53 87.9068 44.8 87.8566 45.04 87.7763L45.05 87.7864Z" fill="#B01A1F"/>
</g>
<g style="mix-blend-mode:color-dodge">
<path d="M52.89 58.6146C52.67 55.8138 52.88 52.2 50.08 50.373C49.89 50.2525 49.69 50.1421 49.46 50.112C49.23 50.0819 48.99 50.1421 48.84 50.3027C48.51 50.6641 49.02 51.1961 49.26 51.4772C49.78 52.0896 50.84 52.8926 50.91 53.7158C50.95 54.2177 50.42 54.3984 49.99 54.4887C49.04 54.6895 48.05 54.6795 47.08 54.6694C46.65 54.6694 46.15 54.6393 45.75 54.7698C45.32 54.9003 45.32 55.1312 45.62 55.3521C45.99 55.6231 46.76 55.5528 47.19 55.5227C48.11 55.4524 49.05 55.4725 49.97 55.5629C51.06 55.6632 51.72 56.3057 51.99 57.2694C52.26 58.2431 52.15 59.2671 52.52 60.2307C52.55 60.3111 52.67 60.291 52.72 60.2307C52.89 60.0601 52.92 59.7891 52.93 59.5582C52.95 59.247 52.93 58.9257 52.9 58.6146H52.89Z" fill="#B01A1F"/>
</g>
<path d="M18.04 47.2109C17.52 47.5924 16.92 47.8634 16.4 48.2449C15.88 48.6163 15.47 49.0982 15.1 49.6001C14.73 50.112 14.4 50.6441 14.19 51.2363C13.98 51.7985 13.87 52.3908 13.82 52.983C13.79 53.3243 13.79 53.6757 13.79 54.017C13.79 54.3483 13.8 54.6795 13.87 55.0008C13.88 55.051 13.96 55.0008 13.96 54.9707C13.96 54.3784 14.04 53.7861 14.09 53.1939C14.14 52.6116 14.23 52.0193 14.41 51.4572C14.59 50.885 14.87 50.373 15.22 49.8711C15.57 49.3692 15.95 48.8773 16.45 48.4858C16.98 48.0642 17.58 47.7229 18.09 47.2712C18.13 47.231 18.08 47.1908 18.03 47.221L18.04 47.2109Z" fill="white"/>
<path d="M19.37 91.4003C18.19 90.8583 17.05 90.1455 16.2 89.2019C15.42 88.3486 14.88 87.3448 14.54 86.2707C14.35 85.6684 14.26 85.066 14.14 84.4537C14.14 84.4135 14.07 84.4537 14.06 84.4738C13.99 85.046 14.08 85.6382 14.2 86.1904C14.32 86.7425 14.53 87.2846 14.8 87.7965C15.33 88.8305 16.12 89.754 17.12 90.4266C17.77 90.8683 18.53 91.2196 19.28 91.5007C19.33 91.5208 19.42 91.4304 19.36 91.4003H19.37Z" fill="white"/>
<path d="M56.89 84.7246C56.89 84.7246 56.79 84.7246 56.79 84.7547C56.79 85.0358 56.73 85.337 56.66 85.618C56.59 85.8891 56.51 86.1601 56.41 86.4211C56.21 86.9531 55.94 87.4751 55.64 87.957C55.05 88.9107 54.27 89.7539 53.3 90.3763C52.68 90.7678 51.99 91.0589 51.38 91.4504C51.33 91.4805 51.35 91.5508 51.41 91.5206C52.04 91.2396 52.69 90.9987 53.28 90.6473C53.8 90.3361 54.28 89.9546 54.7 89.533C55.53 88.6998 56.18 87.6759 56.6 86.6118C56.72 86.3006 56.83 85.9794 56.88 85.6582C56.93 85.347 56.93 85.0458 56.88 84.7246H56.89Z" fill="white"/>
<path d="M56.64 51.1057C56.4 50.4934 56.01 49.9112 55.54 49.4193C55.41 49.2787 55.26 49.1482 55.11 49.0177C54.96 48.8872 54.78 48.7768 54.62 48.6463C54.59 48.6162 54.5 48.6764 54.54 48.7166C54.7 48.8672 54.84 49.0378 54.98 49.1984C55.12 49.349 55.25 49.5096 55.38 49.6602C55.65 49.9915 55.9 50.3328 56.11 50.7042C56.52 51.4471 56.76 52.2903 56.75 53.1235C56.75 53.1837 56.84 53.1436 56.84 53.1034C56.94 52.4208 56.88 51.7482 56.62 51.1057H56.64Z" fill="white"/>
<path d="M37.64 36.0582H37.25C37.09 36.0582 36.86 36.1185 36.86 36.4196V41.3586H33.3C33.3 41.3586 34.8 42.6334 37.65 42.5933C40.5 42.5531 43.06 41.3586 43.06 41.3586H38.39V36.7308C38.39 36.7308 38.61 35.9779 37.65 36.0582H37.64Z" fill="#C9CACC"/>
<path d="M41.26 65.9428L40.57 68.2617H38.29L41.27 59.207H44.16L47.18 68.2617H44.81L44.06 65.9428H41.27H41.26ZM43.73 64.407L43.12 62.4896C42.95 61.9475 42.77 61.285 42.63 60.7429H42.6C42.46 61.285 42.31 61.9676 42.15 62.4896L41.57 64.407H43.72H43.73Z" fill="black"/>
<path d="M133.68 57.1389C131.14 51.688 123.55 49.2788 117.71 51.1861C114.55 52.2201 111.99 54.3683 110.02 56.9883C108.05 54.3783 105.49 52.2201 102.33 51.1861C96.48 49.2888 88.9 51.688 86.36 57.1389C84.64 60.813 85.14 65.1094 86.44 68.8237C89.24 76.8143 95.88 83.3694 103.9 87.2242C105.87 88.1678 107.93 88.9508 110.03 89.5531C112.13 88.9508 114.19 88.1678 116.16 87.2242C124.18 83.3794 130.82 76.8243 133.62 68.8237C134.92 65.1094 135.41 60.813 133.7 57.1389H133.68Z" fill="#CD1E25"/>
<path d="M110.01 89.7539C110.01 89.7539 109.97 89.7539 109.95 89.7539C107.84 89.1516 105.77 88.3586 103.79 87.415C95.32 83.3494 88.92 76.6035 86.22 68.904C85.13 65.7821 84.23 61.1945 86.15 57.0787C87.38 54.4487 89.82 52.3707 93.02 51.2364C96.08 50.1522 99.49 50.0719 102.39 51.0155C105.27 51.9491 107.83 53.8464 110.01 56.6571C112.19 53.8464 114.75 51.9491 117.63 51.0155C120.53 50.0719 123.95 50.1522 127 51.2364C130.2 52.3707 132.64 54.4487 133.87 57.0787C135.79 61.1945 134.89 65.7821 133.8 68.904C131.11 76.6035 124.7 83.3494 116.23 87.415C114.25 88.3686 112.18 89.1516 110.07 89.7539C110.05 89.7539 110.03 89.7539 110.01 89.7539ZM98.12 50.7445C96.46 50.7445 94.76 51.0256 93.17 51.5977C90.08 52.6919 87.72 54.6896 86.54 57.2193C84.67 61.2246 85.55 65.7018 86.62 68.7635C89.28 76.3626 95.61 83.0282 103.98 87.0435C105.92 87.9771 107.95 88.7501 110.01 89.3424C112.07 88.7501 114.1 87.9771 116.04 87.0435C124.41 83.0282 130.74 76.3626 133.4 68.7635C134.47 65.7118 135.35 61.2246 133.48 57.2193C132.3 54.6896 129.95 52.6919 126.85 51.5977C123.89 50.5437 120.58 50.4634 117.77 51.3769C114.9 52.3105 112.35 54.2379 110.18 57.0988C110.1 57.2092 109.91 57.2092 109.83 57.0988C107.67 54.2379 105.11 52.3105 102.24 51.3769C100.94 50.9553 99.54 50.7445 98.11 50.7445H98.12Z" fill="#790405"/>
<g style="mix-blend-mode:color-dodge">
<path d="M92.24 75.8004C92.86 76.2622 93.51 76.6838 94.19 77.0552C94.88 77.4267 95.61 77.7579 96.39 77.9386C97.38 78.1796 98.42 78.2699 99.44 78.1996C101.4 78.0691 103.23 77.3464 104.86 76.3626C108.27 74.2846 110.73 71.2229 113.64 68.6229C116.87 65.7319 121.05 63.0717 125.75 63.3728C126.85 63.4431 127.93 63.6338 128.93 64.0856C129.9 64.5272 130.8 65.1898 131.41 66.023C131.67 66.3844 131.87 66.7558 132.02 67.1473C132.76 64.2261 132.85 61.074 131.55 58.3034C129.24 53.3444 122.34 51.156 117.02 52.8927C114.14 53.8262 111.82 55.7938 110.02 58.1629C108.22 55.7837 105.9 53.8262 103.02 52.8927C97.7 51.1661 90.8 53.3544 88.49 58.3034C86.93 61.6462 87.38 65.5512 88.56 68.9341C89.42 71.3835 90.68 73.6924 92.24 75.8004Z" fill="#B01A1F"/>
</g>
<g style="mix-blend-mode:screen">
<path d="M98.74 54.4888C98.55 54.1575 98.24 53.8865 97.87 53.7459C97.08 53.4448 96.15 53.6456 95.38 53.9066C95.24 53.9567 95.1 54.0069 94.96 54.0672C94.96 54.0672 94.96 54.0672 94.95 54.0672C94.25 54.4085 93.62 54.8803 93.11 55.4424C92.54 56.0648 92.12 56.8277 91.99 57.6409C91.93 58.0324 91.94 58.454 92.11 58.8254C92.29 59.2169 92.66 59.4879 93.08 59.6285C94.06 59.9698 95.17 59.5682 96.01 59.1165C96.76 58.715 97.41 58.1829 97.96 57.5606C98.45 56.9884 98.88 56.3158 98.97 55.583C99.02 55.2015 98.95 54.8201 98.76 54.4888H98.74Z" fill="white"/>
</g>
<g style="mix-blend-mode:screen">
<path d="M90.81 60.5318C90.63 60.4515 90.42 60.4214 90.22 60.4616C89.8 60.5519 89.49 60.8832 89.25 61.1944C89.21 61.2546 89.17 61.3148 89.13 61.3751C88.95 61.7063 88.84 62.0677 88.8 62.4291C88.76 62.8407 88.82 63.2623 89.02 63.6237C89.12 63.8044 89.25 63.965 89.43 64.0754C89.63 64.1858 89.86 64.1959 90.08 64.1457C90.59 64.0252 90.91 63.5634 91.12 63.1519C91.3 62.7905 91.4 62.399 91.43 61.9974C91.45 61.6361 91.43 61.2446 91.23 60.9233C91.13 60.7527 90.99 60.6222 90.8 60.5318H90.81Z" fill="white"/>
</g>
</g>
<defs>
<clipPath id="clip0_210_502">
<rect width="135" height="130.5" fill="white"/>
</clipPath>
</defs>
</svg>
