<svg width="135" height="131" viewBox="0 0 135 131" fill="none" xmlns="http://www.w3.org/2000/svg">
<g clip-path="url(#clip0_210_715)">
<path d="M104.02 77.9586C101.67 77.9586 99.58 76.6837 98.3 74.2744C95.52 69.0544 97.42 60.6221 103.37 51.7281C106.87 46.498 105.64 42.6633 104.08 37.8047C103.22 35.1345 102.3 32.2534 102.14 28.8805C101.71 28.8103 101.27 28.6898 100.83 28.5091C96.81 26.8628 93.25 21.0104 91.32 12.8391C89.88 6.76579 86.64 0.632294 81.85 1.6261C78.57 2.30872 76.19 6.25383 76.19 11.002V31.4203C76.19 31.8218 75.95 32.1531 75.65 32.1531C75.35 32.1531 75.11 31.8218 75.11 31.4203V11.002C75.11 5.52102 77.88 0.973602 81.69 0.190602C85.28 -0.552244 89.97 2.25852 92.37 12.3974C94.2 20.1069 97.48 25.608 101.16 27.1138C101.49 27.2443 101.81 27.3446 102.13 27.4149C102.17 25.3871 102.51 23.1787 103.29 20.7393C104.12 18.1695 105.56 16.6938 107.17 16.7942C108.44 16.8745 109.52 17.9687 109.9 19.5749C110.16 20.6691 110.44 23.5702 107.33 26.8829C106.11 28.1879 104.7 28.8805 103.23 28.9508C103.4 31.9924 104.25 34.6426 105.08 37.2426C106.65 42.1514 108.14 46.7992 104.18 52.7118C95.89 65.0792 98.26 71.7046 99.18 73.4413C100.84 76.5632 104.18 77.3964 107.49 75.5192C112.42 72.7285 118.32 65.9425 118.38 65.8723C118.61 65.6113 118.95 65.6414 119.15 65.9526C119.35 66.2537 119.32 66.7155 119.09 66.9765C118.84 67.2576 113 73.9833 107.91 76.8644C106.59 77.6072 105.27 77.9686 104.02 77.9686V77.9586ZM107.01 18.2398C105.92 18.2398 104.9 19.3741 104.28 21.3115C103.55 23.5802 103.24 25.618 103.2 27.4952C104.44 27.445 105.6 26.8528 106.65 25.7385C108.44 23.8312 109.26 21.693 108.86 20.0166C108.61 18.9926 107.93 18.2899 107.11 18.2398C107.08 18.2398 107.04 18.2398 107.01 18.2398Z" fill="#B01A1F"/>
<path d="M104.02 78.0388C101.61 78.0388 99.51 76.6836 98.25 74.3245C95.45 69.0744 97.35 60.612 103.33 51.6878C106.81 46.4979 105.58 42.6733 104.03 37.8448C103.16 35.1244 102.26 32.3136 102.09 28.9507C101.67 28.8804 101.24 28.7499 100.82 28.5793C96.78 26.933 93.21 21.0504 91.27 12.859C89.84 6.81589 86.61 0.712503 81.86 1.69627C78.61 2.36885 76.25 6.28385 76.25 11.0019V31.4202C76.25 31.8618 75.98 32.2232 75.65 32.2232C75.32 32.2232 75.05 31.8618 75.05 31.4202V11.0019C75.05 5.49081 77.84 0.913272 81.67 0.110195C85.28 -0.64269 90 2.18816 92.41 12.3672C94.23 20.0566 97.5 25.5376 101.17 27.0333C101.47 27.1538 101.78 27.2542 102.07 27.3144C102.12 25.126 102.5 22.9577 103.23 20.689C104.04 18.1694 105.44 16.6937 107.01 16.6937C107.06 16.6937 107.11 16.6937 107.16 16.6937C108.46 16.774 109.55 17.8883 109.94 19.5246C110.21 20.6388 110.49 23.5801 107.36 26.9129C106.16 28.1878 104.75 28.9105 103.29 28.9908C103.47 31.9923 104.31 34.6325 105.13 37.1822C106.71 42.1212 108.21 46.779 104.22 52.7318C95.96 65.059 98.31 71.6443 99.23 73.3709C100.87 76.4627 104.19 77.2859 107.47 75.4288C112.32 72.6782 118.1 66.0729 118.35 65.7918C118.47 65.6513 118.62 65.581 118.79 65.6011C118.95 65.6212 119.09 65.7115 119.2 65.8822C119.42 66.2135 119.39 66.7254 119.14 67.0165C118.89 67.2976 113.04 74.0234 107.95 76.9145C106.65 77.6573 105.33 78.0287 104.04 78.0287L104.02 78.0388ZM82.87 1.44531C87.14 1.44531 90.04 7.1572 91.38 12.8088C93.31 20.95 96.85 26.7924 100.86 28.4287C101.29 28.6094 101.73 28.7298 102.16 28.8001C102.19 28.8001 102.21 28.8302 102.21 28.8704C102.37 32.2333 103.27 35.044 104.15 37.7745C105.72 42.6632 106.95 46.518 103.43 51.7782C97.49 60.6421 95.6 69.0343 98.36 74.2342C99.6 76.5531 101.66 77.8882 104.04 77.8882C105.32 77.8882 106.62 77.5168 107.91 76.784C112.99 73.9029 118.83 67.1972 119.07 66.9061C119.27 66.6652 119.3 66.2536 119.12 65.9826C119.04 65.8521 118.92 65.7718 118.79 65.7617C118.66 65.7517 118.53 65.8019 118.43 65.9223C118.19 66.2034 112.39 72.8188 107.53 75.5794C104.2 77.4666 100.83 76.6234 99.16 73.4713C98.23 71.7246 95.85 65.0691 104.16 52.6515C108.1 46.769 106.62 42.1513 105.05 37.2525C104.22 34.6726 103.37 32.0024 103.2 28.9407C103.2 28.9206 103.2 28.9005 103.21 28.8905C103.21 28.8804 103.23 28.8704 103.25 28.8704C104.71 28.8001 106.12 28.0974 107.32 26.8225C110.4 23.54 110.13 20.669 109.87 19.5948C109.49 18.0188 108.44 16.9447 107.18 16.8644C107.13 16.8644 107.08 16.8644 107.03 16.8644C105.51 16.8644 104.14 18.3099 103.35 20.7694C102.62 23.0481 102.24 25.2264 102.19 27.4248C102.19 27.4449 102.19 27.465 102.17 27.475C102.16 27.4851 102.14 27.4951 102.13 27.4951C101.81 27.4349 101.48 27.3345 101.15 27.194C97.45 25.6782 94.15 20.167 92.32 12.4274C89.93 2.33873 85.27 -0.472036 81.7 0.27081C77.92 1.05381 75.17 5.57112 75.17 11.012V31.4302C75.17 31.7916 75.39 32.0827 75.66 32.0827C75.93 32.0827 76.15 31.7916 76.15 31.4302V11.0019C76.15 6.21358 78.55 2.23835 81.85 1.55573C82.2 1.48546 82.54 1.44531 82.88 1.44531H82.87ZM103.21 27.5654C103.21 27.5654 103.18 27.5654 103.17 27.5453C103.16 27.5353 103.15 27.5152 103.15 27.4951C103.19 25.4573 103.54 23.4195 104.23 21.2813C104.88 19.2736 105.96 18.0991 107.11 18.1694C107.95 18.2196 108.66 18.9423 108.91 19.9964C109.32 21.7029 108.49 23.8712 106.68 25.7986C105.63 26.9229 104.46 27.5152 103.2 27.5754L103.21 27.5654ZM107.01 18.3099C105.94 18.3099 104.94 19.4443 104.33 21.3315C103.66 23.4295 103.3 25.4172 103.26 27.4148C104.47 27.3445 105.6 26.7623 106.62 25.6782C108.39 23.7909 109.21 21.6828 108.81 20.0365C108.57 19.0427 107.9 18.3601 107.11 18.3099C107.08 18.3099 107.04 18.3099 107.01 18.3099Z" fill="#5A0000"/>
<g style="mix-blend-mode:multiply">
<path d="M102.31 30.2758C102.33 30.2056 102.35 30.1453 102.38 30.0851C102.38 30.065 102.39 30.055 102.4 30.0349C102.43 29.9847 102.46 29.9345 102.5 29.8843C102.54 29.8442 102.58 29.804 102.62 29.7739C102.65 29.7538 102.7 29.7337 102.73 29.7237C102.73 29.7237 102.74 29.7237 102.75 29.7237C102.8 29.7137 102.85 29.7036 102.9 29.7137C102.94 29.7137 103 29.7337 103.05 29.7639C103.09 29.7839 103.15 29.8241 103.19 29.8642C103.26 29.9345 103.29 29.9747 103.32 30.0449C103.28 29.7036 103.25 29.3623 103.23 29.011C103.04 29.031 102.84 29.031 102.65 29.011C102.48 28.9909 102.3 28.9809 102.14 28.9307C102.17 29.4527 102.22 29.9646 102.27 30.4666C102.27 30.4063 102.28 30.3561 102.3 30.2959L102.31 30.2758Z" fill="#B01A1F"/>
</g>
<g style="mix-blend-mode:multiply">
<path d="M103.26 27.4949C103.26 27.4949 103.23 27.4949 103.21 27.4949C103.21 26.9729 103.25 26.4509 103.31 25.9088C103.31 25.9189 103.31 25.9389 103.3 25.949C103.29 25.9891 103.26 26.0192 103.25 26.0494C103.25 26.0694 103.25 26.0795 103.25 26.0996C103.19 26.3505 103.05 26.5613 102.85 26.6115C102.68 26.6617 102.49 26.5714 102.38 26.3907C102.31 26.2802 102.26 26.1497 102.25 26.0092C102.25 25.9389 102.25 25.8586 102.25 25.7783C102.2 26.3304 102.16 26.8725 102.15 27.4046C102.42 27.4648 102.69 27.515 102.96 27.525C102.98 27.525 102.99 27.525 103.01 27.525C103.05 27.515 103.09 27.5049 103.12 27.5049C103.17 27.5049 103.23 27.5049 103.28 27.5049L103.26 27.4949Z" fill="#B01A1F"/>
</g>
<path d="M102.98 27.5755C102.72 27.5755 102.37 27.5554 102.05 27.465C102.02 27.465 102 27.4148 102.01 27.3747C102.01 27.3345 102.04 27.3145 102.07 27.3145C102.49 27.4249 102.97 27.4249 103.22 27.4148C103.25 27.4148 103.27 27.445 103.27 27.4851C103.27 27.5253 103.25 27.5554 103.22 27.5654C103.15 27.5654 103.07 27.5654 102.97 27.5654L102.98 27.5755Z" fill="#5A0000"/>
<path d="M103.06 29.0209C102.76 29.0209 102.37 29.0008 102.04 28.9306C102.01 28.9306 101.99 28.8904 101.99 28.8503C101.99 28.8101 102.02 28.78 102.05 28.79C102.47 28.8703 102.97 28.8804 103.28 28.8703C103.31 28.8703 103.33 28.9005 103.33 28.9406C103.33 28.9808 103.31 29.0109 103.28 29.0209C103.21 29.0209 103.14 29.0209 103.06 29.0209Z" fill="#5A0000"/>
<g style="mix-blend-mode:color-dodge">
<path d="M90.78 9.74719C90.73 9.74719 90.68 9.70704 90.66 9.63677C89.71 6.826 86.97 0.381306 82.15 1.38515C82.07 1.40523 82.01 1.33496 81.99 1.23457C81.98 1.13419 82.03 1.04384 82.1 1.02377C85.63 0.290959 88.84 3.37277 90.9 9.48619C90.93 9.57654 90.9 9.68696 90.83 9.72711C90.81 9.73715 90.79 9.74719 90.77 9.74719H90.78Z" fill="#B01A1F"/>
</g>
<g style="mix-blend-mode:color-dodge">
<path d="M101.11 28.2682C101.11 28.2682 101.08 28.2682 101.07 28.2682C98.75 27.3245 96.56 24.9956 94.73 21.5223C94.69 21.442 94.7 21.3215 94.76 21.2713C94.82 21.2111 94.91 21.2312 94.95 21.3115C96.75 24.7145 98.89 26.9933 101.15 27.9168C101.22 27.9469 101.26 28.0473 101.24 28.1477C101.22 28.228 101.17 28.2782 101.11 28.2782V28.2682Z" fill="#B01A1F"/>
</g>
<path d="M133.14 65.9427C132.1 60.8933 130.26 55.3421 126.74 52.8525C122.48 56.627 105.61 69.0446 101.31 72.7387C97.48 76.0313 93.58 79.1433 89.59 82.0845C90.67 84.8752 91.15 88.5292 91.61 91.4303C92.1 94.5222 92.21 97.6843 92.59 100.796C94.24 100.284 95.88 99.7623 97.51 99.2603C103.82 97.3229 109.92 94.6928 115.89 91.35C117.91 90.2157 132.94 83.1587 134.88 81.8537C135.34 77.5472 133.9 69.6569 133.13 65.9427H133.14Z" fill="#9C5116"/>
<path d="M133.14 65.9427C132.18 61.2648 130.53 56.1452 127.48 53.4448C126.84 54.0572 126.21 54.6796 125.61 55.3421C121.84 58.7853 105.39 70.7411 101.54 74.0136C97.76 77.2259 93.93 80.378 89.99 83.2189C90.04 83.3896 90.09 83.5702 90.14 83.7509C90.16 83.7811 90.19 83.8011 90.21 83.8312C90.23 83.8614 90.22 83.9015 90.22 83.9417C90.21 83.9417 90.2 83.9316 90.19 83.9216C90.87 86.3609 91.25 89.1316 91.62 91.4304C92.04 94.1106 92.18 96.8411 92.46 99.5414C94.19 98.9893 95.91 98.4272 97.63 97.855C102.91 96.1083 108.12 94.1106 113.18 91.4203C116.07 89.8844 132.09 82.4158 135 80.5788C135.18 76.5734 133.85 69.2855 133.16 65.9327L133.14 65.9427Z" fill="#FAD6BE"/>
<g style="mix-blend-mode:multiply">
<path d="M134.08 71.1226C131.23 72.6584 115.78 82.6869 113.17 84.0119C107.26 87.0034 101.27 89.6636 95.2 92.0327C93.95 92.5246 92.9 93.1369 91.84 93.0968C92.1 95.2349 92.23 97.4033 92.45 99.5515C94.18 98.9994 95.9 98.4372 97.62 97.865C102.9 96.1183 108.11 94.1207 113.17 91.4304C116.06 89.8945 132.08 82.4259 134.99 80.5888C135.09 78.4306 134.4 73.2909 134.09 71.1226H134.08Z" fill="#F9CEB2"/>
</g>
<path opacity="0.6" d="M128.21 54.1577C125.72 55.9345 110.89 66.9668 108.42 68.7536C103.58 72.247 99.02 76.8848 94.38 80.8701C94.22 81.0106 94.2 81.372 94.44 81.2013C99.29 77.7782 104.03 74.1744 108.71 70.3498C111.26 68.2618 126.33 57.37 128.86 55.2218C128.9 55.1816 128.95 55.1515 129 55.1114C128.75 54.7701 128.49 54.4589 128.21 54.1577Z" fill="#FAEAE1"/>
<path d="M98.88 93.5182C98.68 94.251 98.44 94.9638 98.22 95.6363C97.61 97.5236 96.87 100.013 95.37 100.927C95.1 101.087 94.82 100.897 94.8 100.485C94.61 96.9614 95.5 93.5383 94.02 90.2758C93.34 88.77 92.58 87.3847 91.45 86.421C91.01 86.0496 90.17 85.6682 89.88 85.0658C89.31 83.8412 90.63 82.3254 91.97 81.2914C89.78 80.3076 87.15 80.7694 84.98 81.2312C84.03 81.4319 80.35 83.4095 78.56 83.9616C76.13 83.3392 74.05 82.5362 71.52 82.8072C69.03 83.0682 66.56 84.5338 64.31 85.8689C63.07 86.6017 61.88 87.4751 60.69 88.3484C60.07 88.8002 59.09 89.8743 58.14 90.7677C49.52 85.4272 42.38 76.503 35.25 68.2213C33.08 65.7117 17.41 47.271 15.17 44.8618C8.53 46.8896 1.41 59.1465 0 67.89C2.75 70.751 17.02 83.0582 22.74 87.6558C31.72 94.8534 42.6 102.292 52.89 105.474C52.98 106.227 53.07 106.9 53.06 106.839C53.57 109.048 54.3 110.704 55.3 112.581C55.51 112.973 55.73 113.354 55.95 113.746C55.97 113.665 56 113.585 56.03 113.495C55.43 116.376 54.96 119.227 57.29 120.923C58.31 121.666 59.32 120.803 60.08 119.719C60.02 120.04 59.97 120.361 59.91 120.682C59.34 124.025 59.26 127.85 62.42 128.061C63.56 128.131 64.66 126.665 65.62 124.818C65.32 127.438 65.61 129.817 67.41 130.389C69.04 130.901 70.17 129.677 70.99 127.89C70.94 129.406 71.24 130.871 72.74 130.389C74.32 129.888 75.46 128.703 76.41 127.177C79.07 128.773 81.47 126.354 82.85 123.021C83.79 123.192 85.3 121.756 85.76 121.265C86.73 120.211 87.32 118.323 87.49 116.577C88.97 115.021 90.79 112.421 90.59 109.891C92.33 108.706 94 107.371 95.53 105.815C98.48 102.794 99.04 98.1962 98.87 93.5283L98.88 93.5182Z" fill="#9C5116"/>
<path d="M83.69 85.588C82.04 85.3571 80.39 85.6482 78.73 85.3772C78.38 85.317 78.02 85.2868 77.67 85.2567C77.46 85.1865 77.25 85.1363 77.04 85.066C71.58 83.1185 66.85 85.2567 61.99 88.6397C60.6 89.6034 57.4 93.0064 55.86 92.7956C55.62 92.7655 55.92 92.1933 56.07 92.1732C56.33 92.1431 56.64 91.9725 56.99 91.7315C54 90.2358 51.16 87.5053 48.8 85.0459C44.32 80.3881 39.92 75.5596 35.63 70.5805C32.89 67.4083 16.68 48.3052 13.87 45.3237C8.11999 47.753 1.84999 58.966 0.23999 66.5952C3.08999 69.6168 20.28 84.0722 23.32 86.7023C32.36 94.5323 42.72 99.7322 52.79 104.631C52.79 104.581 52.79 104.551 52.78 104.5C53.07 104.731 53.36 104.942 53.66 105.163C53.81 106.117 54.19 107.01 54.41 107.964C54.63 108.958 54.88 109.871 55.18 110.453C55.52 111.106 55.89 111.778 56.25 112.471C57.18 108.084 58.13 104.189 60.64 100.877C62.92 97.8751 65.34 94.9539 67.97 92.4945C67.87 92.4242 67.91 92.1933 68 91.9925C69.61 90.9887 70.89 90.3763 72.8 90.6273C74.98 90.9184 77.09 91.7717 79.24 92.2837C81.59 92.8458 83.73 91.7014 85.16 89.1416C86.17 87.3447 85.13 85.8189 83.69 85.6181V85.588Z" fill="#FAD6BE"/>
<g style="mix-blend-mode:multiply">
<path d="M83.69 85.5879C83.22 85.5176 82.75 85.4975 82.28 85.4975C82.47 85.7686 82.64 86.0597 82.76 86.411C83.79 89.3924 79.38 88.9508 78.56 88.8504C74.34 88.3384 69.1 87.3948 65.36 90.7577C63.52 92.414 61.67 94.4619 60.26 96.7707C58.8 99.1699 57.9 101.93 56.64 104.5C56.49 104.812 56.13 104.852 55.99 104.5C54.68 101.298 55.57 96.7004 56.99 93.8094C57.33 93.1167 57.7 92.4642 58.09 91.8318C57.24 92.4341 56.44 92.8557 55.87 92.7854C55.63 92.7553 55.93 92.1831 56.08 92.1631C56.34 92.1329 56.65 91.9623 57 91.7214C55.33 90.8781 53.7 89.6534 52.18 88.3083C52.23 88.4187 52.28 88.5291 52.32 88.6496C53.44 91.6812 54.7 98.2163 51.09 99.0695C49.45 99.451 47.6 98.4271 46.11 97.6842C43.76 96.5097 41.51 95.0541 39.24 93.6287C17.95 80.3177 6.06999 67.2576 2.18999 60.7427C1.33999 62.5797 0.66999 64.5473 0.23999 66.5951C3.08999 69.6167 20.28 84.0721 23.32 86.7021C32.36 94.5321 42.72 99.7321 52.79 104.631C52.79 104.581 52.79 104.551 52.78 104.5C53.07 104.731 53.36 104.942 53.66 105.163C53.81 106.117 54.19 107.01 54.41 107.964C54.63 108.957 54.88 109.871 55.18 110.453C55.52 111.106 55.89 111.778 56.25 112.471C57.18 108.084 58.13 104.189 60.64 100.876C62.92 97.8749 65.34 94.9538 67.97 92.4943C67.87 92.4241 67.91 92.1932 68 91.9924C69.61 90.9886 70.89 90.3762 72.8 90.6272C74.98 90.9183 77.09 91.7716 79.24 92.2835C81.59 92.8457 83.73 91.7013 85.16 89.1415C86.17 87.3446 85.13 85.8188 83.69 85.618V85.5879Z" fill="#F9CEB2"/>
</g>
<path d="M83.06 119.869C83.06 120 83.01 120.09 82.96 120.17C82.57 121.696 81.91 123.212 81.38 124.206C80.2 126.414 78.62 126.484 76.92 126.334C77.19 125.832 77.46 125.3 77.71 124.748C77.9 124.326 78.09 123.905 78.28 123.483C78.18 122.911 78.15 122.298 78.17 121.666C78.15 121.706 78.14 121.736 78.12 121.776C78.14 121.636 78.17 121.495 78.19 121.355C78.34 119.136 79.16 116.817 80.37 115.713C81.15 115 82 114.599 82.77 115.523C83.22 116.065 83.3 116.888 83.26 117.731C83.29 118.333 83.22 118.976 83.08 119.638C83.08 119.719 83.06 119.799 83.06 119.879V119.869Z" fill="#F4C2A1"/>
<path d="M86.12 119.237C85.81 120.03 85.36 120.662 84.78 121.144C84.6 121.315 83.81 121.847 83.21 122.078C83.91 120.01 84.22 117.721 83.97 115.874C83.91 115.452 83.8 115.131 83.68 114.85C83.39 114.599 83.05 114.438 82.73 114.308C82.43 114.188 82.39 113.756 82.56 113.455C82.7 113.214 82.88 112.943 83.08 112.672C83.16 112.511 83.24 112.35 83.33 112.19C83.74 111.467 84.15 111.256 84.55 111.337C84.55 111.347 84.57 111.357 84.58 111.367C85.1 111.186 85.62 111.347 86.03 112.19C86.37 112.872 86.53 113.706 86.58 114.569C86.59 114.639 86.62 114.72 86.63 114.77C86.87 116.245 86.59 117.892 86.11 119.227L86.12 119.237Z" fill="#F4C2A1"/>
<path d="M89.63 111.326C89.55 111.929 89.33 112.531 89.07 113.083C89.01 113.254 88.96 113.414 88.92 113.575C88.87 113.756 88.77 113.856 88.67 113.896C88.62 113.987 88.57 114.087 88.53 114.167C88.38 114.448 87.92 115.051 87.55 115.633C87.55 115.502 87.55 115.382 87.55 115.251C87.55 115.091 87.53 114.91 87.51 114.739C87.47 114.679 87.44 114.609 87.42 114.499C87.25 113.093 86.88 111.989 86.13 110.955C86.08 110.895 86.06 110.824 86.04 110.754C85.91 110.644 85.77 110.543 85.62 110.463C85.91 110.112 86.2 109.77 86.54 109.469C87.11 108.967 87.85 108.746 88.47 108.947C88.87 108.947 89.24 109.098 89.48 109.56C89.77 110.122 89.75 110.714 89.62 111.316L89.63 111.326Z" fill="#F4C2A1"/>
<g style="mix-blend-mode:multiply">
<path d="M78.53 126.334C80.56 124.838 79.88 119.628 80.66 117.039C80.95 116.085 81.55 115.272 82.18 115.071C82.09 115.031 81.99 115.001 81.89 114.991C81.83 115.091 81.74 115.151 81.61 115.151H81.53C81.45 115.151 81.39 115.111 81.33 115.071C81 115.191 80.67 115.422 80.36 115.713C79.16 116.818 78.33 119.137 78.18 121.355C78.16 121.496 78.14 121.636 78.11 121.777C78.13 121.737 78.14 121.706 78.16 121.666C78.14 122.299 78.16 122.911 78.27 123.483C78.08 123.905 77.89 124.326 77.7 124.748C77.45 125.3 77.18 125.832 76.91 126.334C77.46 126.384 78 126.404 78.52 126.334H78.53Z" fill="#F9CEB2"/>
</g>
<g style="mix-blend-mode:multiply">
<path d="M83.98 115.874C84.22 117.691 83.92 119.939 83.25 121.977C83.29 121.887 83.35 121.817 83.44 121.766C84.61 121.174 84.98 119.046 84.92 117.54C84.87 116.245 84.23 115.091 84.23 113.816C84.23 112.902 84.67 111.658 85.25 111.357C85.04 111.286 84.82 111.296 84.6 111.367C84.6 111.367 84.58 111.357 84.57 111.336C84.17 111.246 83.76 111.467 83.35 112.19C83.26 112.35 83.18 112.511 83.1 112.672C82.9 112.943 82.72 113.214 82.58 113.455C82.4 113.746 82.45 114.187 82.75 114.308C83.07 114.438 83.41 114.599 83.7 114.85C83.83 115.121 83.94 115.442 83.99 115.874H83.98Z" fill="#F9CEB2"/>
</g>
<g style="mix-blend-mode:multiply">
<path d="M89.56 109.75C89.54 109.69 89.52 109.64 89.5 109.58C89.26 109.108 88.89 108.957 88.49 108.967C87.87 108.767 87.13 108.987 86.56 109.489C86.22 109.78 85.93 110.132 85.64 110.483C85.79 110.563 85.93 110.654 86.06 110.774C86.08 110.844 86.1 110.915 86.15 110.975C86.74 111.778 87.09 112.631 87.29 113.635C87.65 112.27 88.61 110.162 89.57 109.76L89.56 109.75Z" fill="#F9CEB2"/>
</g>
<path d="M92.55 107.371C91.85 107.923 91.13 108.415 90.4 108.877C90.38 108.817 90.37 108.757 90.35 108.696C89.26 105.655 86.11 108.114 84.93 110.282C84.91 110.282 84.9 110.282 84.88 110.282C83.4 110.282 82.39 112.15 81.84 113.906C81.02 114.077 80.15 114.669 79.59 115.262C77.9 117.068 77.08 120.883 77.28 123.684C77.17 123.945 77.05 124.206 76.94 124.477C76.58 125.461 76.11 126.314 75.54 127.047C75.3 127.488 75.04 127.91 74.74 128.251C74.11 128.974 73.07 129.697 72.26 129.004C71.12 128.04 71.74 125.772 72.4 124.216C72.92 121.947 73.96 119.909 74.75 117.751C75.67 116.145 76.64 114.569 77.41 112.852C76.9 113.234 76.42 113.655 75.94 114.107C74.94 115.643 73.71 118.002 73.45 118.474C73.12 119.076 72.84 119.668 72.57 120.261C72.12 121.897 71.76 123.543 71.27 125.18C70.67 127.197 69.74 129.687 67.8 129.446C66.45 129.275 66.24 126.595 66.27 125.25C66.33 122.489 67.14 119.96 68.04 117.5C68.07 117.38 68.1 117.259 68.12 117.139C68.75 114.589 70.11 112.431 71.26 110.282C72.07 108.777 72.63 107.04 73.37 105.474C73.39 105.424 73.4 105.344 73.35 105.313L73.29 105.283C73.23 105.253 73.16 105.394 73.18 105.464C73.15 105.364 71.21 108.676 71.09 108.907C70.15 110.704 69.04 112.34 68.28 114.288C67.66 115.884 67.1 117.56 66.57 119.247C65.79 123.071 64.66 127.599 61.17 126.234C58.89 125.35 60.86 119.207 61.96 115.553C62.14 114.76 62.34 113.987 62.56 113.234C62.56 113.214 62.56 113.194 62.56 113.184C62.57 113.083 62.6 113.013 62.64 112.953C63.09 111.477 63.64 110.052 64.42 108.606C66.68 104.39 70.04 100.866 71.58 96.0379C71.62 95.9174 71.51 95.9475 71.47 95.9977C68.55 100.224 65.58 104.54 63.06 109.218C61.83 111.507 61.12 114.187 60.58 116.908C60.53 117.329 60.46 117.731 60.35 118.112C60.34 118.183 60.32 118.243 60.31 118.313C60.29 118.333 60.27 118.353 60.24 118.373C60.11 118.715 59.96 119.036 59.73 119.307C59.12 120.04 58.02 119.99 57.36 119.427C54.84 117.259 57.04 111.889 57.78 109.018C57.78 108.998 57.78 108.977 57.79 108.957C57.79 108.917 57.81 108.877 57.82 108.847C58.38 106.638 59.1 104.621 60.27 102.673C60.79 101.81 66.11 95.0039 68.4 92.3738C71.62 91.2796 74.59 92.5043 77.77 93.3777C79.45 93.8394 81.64 94.4317 83.19 92.9962C84.79 91.5105 87.91 88.1677 85.93 85.4573C84.73 83.8211 80.56 84.4334 78.95 84.052C85.69 82.1446 93.15 79.3339 97.14 89.2318C99.89 96.0479 97.1 103.697 92.53 107.361L92.55 107.371Z" fill="#FAD6BE"/>
<g style="mix-blend-mode:multiply">
<path d="M60.33 118.323C60.34 118.253 60.36 118.193 60.37 118.123C60.48 117.741 60.55 117.34 60.6 116.918C61.14 114.187 61.85 111.507 63.08 109.228C65.44 104.842 68.21 100.766 70.95 96.7908C71.05 96.329 71.16 95.8673 71.27 95.4155C67.75 98.0657 63.89 101.669 61.96 106.438C60.77 109.379 60.44 112.511 59.39 115.472C58.91 116.828 57.85 118.384 56.89 116.657C56.6 116.135 56.41 115.593 56.3 115.031C56.07 116.807 56.24 118.464 57.39 119.448C58.05 120.02 59.16 120.07 59.76 119.327C59.99 119.056 60.14 118.735 60.27 118.394C60.29 118.373 60.31 118.353 60.34 118.333L60.33 118.323Z" fill="#F9CEB2"/>
</g>
<g style="mix-blend-mode:multiply">
<path d="M68.29 114.278C69.04 112.32 70.15 110.694 71.1 108.897C71.13 108.827 71.32 108.505 71.57 108.084C71.57 108.074 71.57 108.054 71.59 108.044C72.67 106.297 73.62 104.5 74.33 102.482C70.9 105.976 67.35 109.62 66.03 115.291C65.42 117.932 64.91 120.742 63.65 123.001C62.76 124.597 61.7 124.286 61.05 122.63C60.76 121.897 60.66 121.074 60.67 120.21C60.01 123.011 59.75 125.671 61.19 126.233C64.69 127.599 65.81 123.071 66.59 119.247C67.12 117.56 67.68 115.894 68.3 114.288L68.29 114.278Z" fill="#F9CEB2"/>
</g>
<g style="mix-blend-mode:multiply">
<path d="M97.16 89.2519C96.34 87.2141 95.37 85.7284 94.29 84.6543C95.77 86.9531 96.51 89.8341 95.74 93.458C95.01 96.9113 93.31 99.6116 91.19 101.669C90.98 101.93 90.75 102.181 90.52 102.422C89.32 103.647 87.81 104.039 86.62 105.203C85.12 106.659 83.85 108.526 82.52 110.232C81.36 111.728 79.61 113.023 78.61 114.669C77.58 116.346 77.11 118.353 76.44 120.301C75.88 121.947 74.7 125.501 72.95 125.26C72.56 125.21 72.36 124.919 72.27 124.517C71.66 126.063 71.18 128.111 72.25 129.014C73.07 129.707 74.1 128.984 74.73 128.261C75.03 127.92 75.29 127.498 75.53 127.057C76.1 126.324 76.56 125.471 76.93 124.487C77.04 124.226 77.16 123.965 77.27 123.694C77.07 120.903 77.9 117.079 79.58 115.272C80.14 114.669 81.01 114.077 81.83 113.916C82.38 112.15 83.39 110.303 84.87 110.293C84.89 110.293 84.9 110.293 84.92 110.293C86.1 108.124 89.24 105.665 90.34 108.706C90.36 108.767 90.37 108.827 90.39 108.887C91.12 108.425 91.85 107.933 92.54 107.381C97.11 103.717 99.9 96.068 97.15 89.2519H97.16Z" fill="#F9CEB2"/>
</g>
<g style="mix-blend-mode:multiply">
<path d="M69.79 93.0964C70.85 93.1968 71.82 93.5883 72.8 94.1605C74.42 95.1041 76.14 95.5859 77.89 95.7465C80.32 95.9674 83.15 96.0778 85.35 94.4215C86.63 93.4678 88.15 91.42 87.54 89.1814C87.34 88.4285 86.99 87.8563 86.58 87.3945C86.58 89.603 84.44 91.8516 83.21 92.996C81.66 94.4315 79.47 93.8392 77.79 93.3775C74.61 92.5041 71.64 91.2794 68.42 92.3736C67.99 92.8655 67.45 93.518 66.85 94.2508C67.82 93.508 68.81 92.996 69.79 93.0964Z" fill="#F9CEB2"/>
</g>
<g style="mix-blend-mode:multiply">
<path d="M73.44 118.464C73.7 117.992 74.93 115.633 75.93 114.097C76.06 113.966 76.2 113.846 76.34 113.725C76.35 113.635 76.38 113.545 76.44 113.454C77.79 111.647 79.27 109.861 80.22 107.622C78.79 108.696 77.5 110.051 76.2 111.407C74.96 112.691 73.55 113.776 72.76 115.673C71.78 118.062 71.37 121.003 70.18 123.232C69.58 124.356 68.48 125.691 67.48 124.426C66.96 123.774 66.72 122.961 66.64 122.108C66.43 123.121 66.29 124.165 66.26 125.25C66.23 126.595 66.44 129.275 67.79 129.446C69.73 129.687 70.65 127.207 71.26 125.179C71.75 123.543 72.11 121.897 72.56 120.26C72.83 119.668 73.11 119.076 73.44 118.474V118.464Z" fill="#F9CEB2"/>
</g>
<path opacity="0.6" d="M72.98 85.2665C67.63 84.2727 60.9 88.8703 57.4 94.1706C57.36 94.2208 57.38 94.3413 57.44 94.281C62.32 89.9745 67.1 87.3043 72.81 85.7584C72.91 85.7283 73.18 85.3067 72.98 85.2665Z" fill="#FAEAE1"/>
<path opacity="0.6" d="M65.75 97.0718C63.85 99.0193 61.87 101.017 60.37 103.537C58.87 106.076 58.09 109.409 57.63 112.581C57.61 112.752 57.77 112.601 57.79 112.531C58.85 109.339 59.66 106.388 61.26 103.577C62.58 101.258 64.33 99.3204 65.8 97.1521C65.84 97.0919 65.8 97.0216 65.75 97.0718Z" fill="#FAEAE1"/>
<path opacity="0.6" d="M68.07 104.561C64.79 108.004 63.14 112.31 62.2 117.681C62.16 117.902 62.38 117.711 62.41 117.611C63.16 115.392 63.96 113.204 64.73 111.005C65.57 108.636 66.97 106.729 68.12 104.651C68.16 104.581 68.13 104.49 68.06 104.561H68.07Z" fill="#FAEAE1"/>
<path opacity="0.6" d="M72.53 109.781C72.5 109.64 72.37 109.871 72.36 109.921C72.38 109.791 71.67 110.493 71.63 110.564C71.08 111.477 70.53 112.391 70.02 113.334C69.09 115.041 68.7 116.888 68.3 118.906C68.25 119.187 68.46 119.076 68.53 118.926C69.5 116.918 70.18 114.709 71.18 112.722C71.62 111.859 71.99 110.915 72.47 110.102C72.53 110.001 72.56 109.891 72.53 109.771V109.781Z" fill="#FAEAE1"/>
<path d="M13.95 57.4097L19.65 63.1617C19.65 63.1617 19.53 65.852 17.37 66.5648L10.19 59.3873C10.19 59.3873 8.94003 58.1425 9.03003 57.4498C9.12003 56.7672 10.79 53.4746 13.94 57.3996L13.95 57.4097Z" fill="#386698"/>
<path d="M10.12 59.5277C9.90001 59.3068 8.81001 58.1825 8.92001 57.4296C8.98001 56.9779 9.50001 55.9038 10.4 55.5022C11.14 55.171 12.38 55.2111 14.04 57.2791L19.79 63.0813V63.1716C19.79 63.1716 19.63 65.9924 17.41 66.7252L17.35 66.7453L10.13 59.5277H10.12ZM13.88 57.5501C12.63 55.9841 11.46 55.3918 10.49 55.8235C9.68001 56.1849 9.23001 57.1586 9.18001 57.4899C9.12001 57.8914 9.79001 58.7647 10.29 59.2566L17.42 66.3839C19.22 65.7515 19.5 63.6936 19.55 63.2419L13.9 57.5501H13.88Z" fill="#22446A"/>
<g style="mix-blend-mode:multiply">
<path d="M9.04003 57.4596C9.13003 56.777 10.8 53.4844 13.95 57.4094L15.37 58.8449C14.79 59.0256 14.09 59.3769 13.9 60.2101C13.78 60.7221 13.9 61.1537 14.18 61.5151C14.51 61.9267 15.87 63.834 16.31 63.7838C16.8 63.7236 17.39 62.5491 17.86 62.4086C18.31 62.2781 18.72 62.3885 19.1 62.6194L19.65 63.1715C19.65 63.1715 19.53 65.8618 17.37 66.5745L10.19 59.397C10.19 59.397 8.94003 58.1523 9.03003 57.4596H9.04003Z" fill="#386698"/>
</g>
<path d="M17.46 63.6635C16.83 64.6272 16.8 65.9623 17.39 66.655C17.98 67.3376 18.96 67.1167 19.59 66.153C20.22 65.1893 20.25 63.8542 19.66 63.1616C19.07 62.479 18.09 62.6998 17.46 63.6635Z" fill="#4A85C5"/>
<path d="M17.3 66.7853C16.66 66.0424 16.69 64.5868 17.36 63.5629C17.68 63.071 18.11 62.7398 18.55 62.6394C19 62.539 19.43 62.6795 19.74 63.0509C20.38 63.7938 20.35 65.2494 19.68 66.2733C19.36 66.7652 18.94 67.0965 18.49 67.1968C18.47 67.1968 18.46 67.1968 18.44 67.1968C18 67.2771 17.6 67.1366 17.3 66.7752V66.7853ZM18.59 62.9606C18.2 63.0509 17.83 63.3421 17.55 63.7737C16.97 64.6671 16.93 65.9019 17.46 66.5243C17.72 66.8254 18.06 66.9358 18.44 66.8555C18.83 66.7652 19.2 66.4741 19.48 66.0424C20.06 65.149 20.1 63.9143 19.57 63.2919C19.32 63.0008 18.99 62.8803 18.63 62.9506C18.62 62.9506 18.6 62.9506 18.59 62.9506V62.9606Z" fill="#22446A"/>
<path d="M17.84 64.1151C17.38 64.8278 17.35 65.8116 17.79 66.3135C18.22 66.8154 18.95 66.6548 19.41 65.9421C19.87 65.2293 19.9 64.2456 19.46 63.7436C19.03 63.2417 18.3 63.4023 17.84 64.1151Z" fill="#386698"/>
<path d="M21.33 68.733C20.18 67.6087 19.06 66.4744 17.99 65.3902C17.99 65.059 18.08 64.7076 18.22 64.4767C18.34 64.276 18.5 64.1756 18.7 64.1655C18.76 64.1655 18.82 64.1655 18.87 64.1756C19.93 65.2597 21.06 66.384 22.2 67.5083C21.91 67.9199 21.62 68.3315 21.32 68.733H21.33Z" fill="#B01A1F"/>
<path d="M21.26 68.8635C20.2 67.8196 19.07 66.6952 17.92 65.5207L17.87 65.4706V65.3902C17.86 65.0289 17.96 64.6374 18.13 64.3563C18.28 64.1154 18.47 63.9949 18.7 63.9849C18.76 63.9849 18.83 63.9849 18.89 64.0049H18.92L18.95 64.0351C20.1 65.2096 21.22 66.3238 22.28 67.3578L22.39 67.4682L22.29 67.6087C22 68.0203 21.71 68.4319 21.41 68.8435L21.33 68.9439L21.24 68.8535L21.26 68.8635ZM18.83 64.3362C18.83 64.3362 18.75 64.3362 18.71 64.3362C18.55 64.3362 18.42 64.4265 18.32 64.5872C18.2 64.7779 18.12 65.059 18.12 65.32C19.22 66.4443 20.3 67.5184 21.32 68.5222C21.56 68.201 21.79 67.8697 22.02 67.5385C21 66.5447 19.93 65.4706 18.83 64.3462V64.3362Z" fill="#5A0000"/>
<path d="M20.81 55.2419C20.81 55.2419 11.99 57.8117 7.82999 68.4023L3.54999 64.0155C3.54999 64.0155 9.68999 50.9856 16.68 50.9956L20.82 55.2419H20.81Z" fill="white"/>
<path d="M3.38 64.0454L3.44 63.9149C3.5 63.7844 9.70001 50.8147 16.67 50.8247H16.71L21.1 55.3219L20.84 55.4022C20.75 55.4324 12.02 58.0825 7.94 68.4723L7.87 68.653L3.38 64.0554V64.0454ZM16.63 51.166C10.18 51.2062 4.38 62.6299 3.72 63.9751L7.79 68.1511C11.56 58.7651 19.06 55.6934 20.53 55.1714L16.63 51.1761V51.166Z" fill="#D8D9DA"/>
<g style="mix-blend-mode:multiply">
<path d="M11.98 52.8025C11.68 53.2141 11.44 53.716 11.5 54.2782C11.55 54.7701 11.93 55.1013 12.22 55.3322C12.57 55.6133 12.93 55.8542 13.27 56.1453C13.7 56.5268 14.13 56.9484 14.6 57.2395C14.83 57.3801 15.07 57.5005 15.32 57.5407C15.6 57.5909 15.88 57.5407 16.15 57.4604C16.31 57.4202 16.47 57.37 16.62 57.3198C16.07 57.6812 15.49 58.1028 14.9 58.5746C14.67 58.3638 14.43 58.1631 14.2 57.9522C12.88 56.7677 11.57 55.543 10.34 54.1778C10.86 53.6759 11.41 53.2041 11.97 52.7925L11.98 52.8025Z" fill="#D8D9DA"/>
</g>
<g style="mix-blend-mode:multiply">
<path d="M10.55 62.7703C10.65 61.9371 10.09 61.3248 9.63001 60.9232C9.38001 60.7024 9.11001 60.5117 8.85001 60.3008C8.56001 60.0599 8.30001 59.7588 8.02001 59.4978C7.73001 59.2368 7.44001 59.0661 7.09001 59.0661C6.80001 59.0661 6.52001 59.1565 6.26001 59.297C6.73001 58.5843 7.24001 57.8515 7.80001 57.1187C7.88001 57.1889 7.96001 57.2592 8.05001 57.3295C9.45001 58.5642 10.84 59.8391 12.11 61.3147C11.5 62.0174 10.89 62.8004 10.32 63.6637C10.44 63.3927 10.54 63.1016 10.57 62.7803L10.55 62.7703Z" fill="#D8D9DA"/>
</g>
<g opacity="0.53">
<path d="M82.66 67.0262C82.66 67.0262 82.6 45.5238 82.66 41.7092C82.72 37.9046 82.19 37.0714 79.75 34.7927C77.22 32.4236 77.62 30.0646 77.62 30.0646H71.55V26.26C71.55 25.3566 71.19 25.4068 71.19 25.4068H70.43C70.43 25.4068 70.07 25.3566 70.07 26.26V30.0646H61.58C61.58 30.0646 61.98 32.4337 59.45 34.7927C57.01 37.0714 56.48 37.9046 56.54 41.7092C56.6 45.5138 56.54 67.0262 56.54 67.0262C56.54 67.0262 56.18 72.3366 60.98 74.2439C63.78 75.3581 66.67 76.1211 69.59 76.1311C72.52 76.1311 75.43 75.3581 78.23 74.2439C83.03 72.3366 82.67 67.0262 82.67 67.0262H82.66ZM71.97 75.3983H67.2C66.95 75.3983 66.74 75.1172 66.74 74.7859C66.74 74.4547 66.95 74.1736 67.2 74.1736H71.97C72.22 74.1736 72.43 74.4547 72.43 74.7859C72.43 75.1172 72.22 75.3983 71.97 75.3983Z" fill="#C9CACC"/>
<path d="M69.62 76.1816C69.62 76.1816 69.59 76.1816 69.58 76.1816C66.96 76.1816 64.14 75.5592 60.96 74.2944C58.47 73.3005 57.39 71.3832 56.92 69.9377C56.41 68.3717 56.49 67.0265 56.5 67.0165C56.5 66.8057 56.56 45.4739 56.5 41.7095C56.44 37.9049 56.96 37.0517 59.43 34.7428C60.73 33.5282 61.23 32.3235 61.43 31.5205C61.64 30.6572 61.55 30.0749 61.55 30.0649V30.0047H70.04V26.2503C70.04 25.8688 70.1 25.5978 70.22 25.4572C70.32 25.3267 70.43 25.3468 70.44 25.3468H71.2C71.2 25.3468 71.31 25.3368 71.41 25.4572C71.53 25.6078 71.59 25.8688 71.59 26.2503V30.0047H77.67V30.0649C77.67 30.0649 77.3 32.4239 79.78 34.7428C82.25 37.0517 82.77 37.9049 82.71 41.7095C82.65 45.4639 82.71 66.6952 82.71 67.0165C82.71 67.0867 82.78 68.4018 82.28 69.9377C81.81 71.3732 80.73 73.3005 78.24 74.2944C75.04 75.5692 72.22 76.1816 69.63 76.1816H69.62ZM61.62 30.1151C61.66 30.5166 61.75 32.695 59.46 34.8432C57.02 37.1219 56.5 37.9652 56.56 41.7195C56.62 45.484 56.56 66.8157 56.56 67.0365C56.56 67.0566 56.48 68.3817 56.98 69.9176C57.44 71.333 58.51 73.2303 60.97 74.204C64.15 75.4688 66.96 76.0812 69.57 76.0912C69.58 76.0912 69.6 76.0912 69.61 76.0912C72.19 76.0912 75 75.4789 78.19 74.204C80.65 73.2303 81.72 71.333 82.18 69.9075C82.68 68.3717 82.6 67.0466 82.6 67.0365C82.6 66.8157 82.54 45.484 82.6 41.7195C82.66 37.9652 82.14 37.1219 79.7 34.8432C77.41 32.705 77.5 30.5166 77.54 30.1151H71.48V26.2603C71.48 25.8287 71.4 25.6379 71.32 25.5476C71.24 25.4572 71.16 25.4572 71.16 25.4572H70.39C70.39 25.4572 70.3 25.4572 70.23 25.5476C70.16 25.6379 70.07 25.8287 70.07 26.2603V30.1151H61.59H61.62ZM71.97 75.4588H67.2C66.92 75.4588 66.7 75.1577 66.7 74.7862C66.7 74.4148 66.92 74.1137 67.2 74.1137H71.97C72.25 74.1137 72.47 74.4148 72.47 74.7862C72.47 75.1577 72.25 75.4588 71.97 75.4588ZM67.21 74.2241C66.98 74.2241 66.79 74.475 66.79 74.7862C66.79 75.0974 66.98 75.3484 67.21 75.3484H71.98C72.21 75.3484 72.4 75.0974 72.4 74.7862C72.4 74.475 72.21 74.2241 71.98 74.2241H67.21Z" fill="#929496"/>
</g>
<g style="mix-blend-mode:multiply">
<path d="M81.46 41.6996C81.39 40.3444 81.12 39.1297 80.67 38.0857C80.31 37.2726 79.8 36.4896 79.08 35.6464C78.67 35.1645 78.33 34.7931 78.01 34.4618C77.67 34.1205 77.46 33.8093 77.36 33.5283C77.18 33.0364 77.1 32.4541 77.04 31.9422C77 31.6009 76.97 30.7978 76.95 30.1453H74.41C74.41 31.2796 74.35 32.6449 74.14 33.0866C73.94 33.5082 73.56 33.6387 73.27 33.6588C73.19 33.6588 73.11 33.6688 73.04 33.6688C72.66 33.6688 72.37 33.5584 72.17 33.3275C71.76 32.8758 71.08 32.675 70.59 32.675C70.48 32.675 70.38 32.675 70.28 32.7051C69.8 32.7954 69.5 33.1066 69.26 33.3576C69.01 33.6086 68.87 33.7391 68.62 33.7391C68.6 33.7391 68.57 33.7391 68.54 33.7391C68.49 33.7391 68.42 33.7089 68.34 33.5885C67.97 32.9862 67.95 31.1692 68.03 30.1353H65.78C65.86 31.0488 65.88 33.0364 65.48 33.6387C65.42 33.7391 65.35 33.7792 65.26 33.7792H65.24C65.24 33.7792 65.19 33.7792 65.13 33.6889C64.8 33.197 64.67 31.5808 64.65 30.1353H62.03C61.97 31.3399 61.74 33.1267 60.94 34.1607C60.65 34.5421 60.34 34.8935 60.04 35.2448C58.74 36.7606 57.39 38.3266 57.22 41.6694C57.12 43.6069 57.25 46.518 57.38 49.5998C57.51 52.6917 57.65 55.8939 57.56 58.1727C57.54 58.5742 57.53 58.9858 57.51 59.3873C57.33 63.7842 57.17 67.5787 57.86 69.0744C59.49 72.6582 65.54 73.5616 68.05 73.7825C68.08 73.7825 68.78 73.8728 69.22 73.8728C69.26 73.8728 69.3 73.8728 69.33 73.8728C69.36 73.8728 69.4 73.8728 69.44 73.8728C69.88 73.8728 70.58 73.7925 70.6 73.7825C73.12 73.5616 79.17 72.6481 80.8 69.0744C81.48 67.5787 81.33 63.7842 81.15 59.3873C81.13 58.9858 81.12 58.5843 81.1 58.1727C81.01 55.8839 81.15 52.6917 81.28 49.5998C81.41 46.518 81.54 43.6069 81.44 41.6694L81.46 41.6996Z" fill="#CACBCD"/>
</g>
<path d="M81.06 41.7399C81 40.5553 80.77 39.3909 80.32 38.3669C79.93 37.4835 79.39 36.7407 78.81 36.0581C78.47 35.6565 78.12 35.265 77.76 34.8936C77.48 34.6025 77.15 34.221 76.99 33.7794C76.79 33.2373 76.7 32.635 76.64 32.0427C76.58 31.5006 76.54 29.9748 76.54 29.4227H74.79C74.79 29.4227 74.9 32.4643 74.48 33.3879C74.22 33.94 73.77 34.1709 73.3 34.221C72.82 34.2712 72.3 34.201 71.92 33.7794C71.57 33.3879 70.84 33.177 70.34 33.2774C69.52 33.428 69.37 34.4017 68.52 34.3114C67.32 34.1909 67.65 30.0651 67.65 30.0651H66.18C66.18 30.0651 66.56 34.4319 65.23 34.3515C64.06 34.2813 64.29 28.8906 64.29 28.8906H62.46C62.46 28.8906 62.67 32.7354 61.24 34.5824C59.67 36.6102 57.84 37.8951 57.64 41.7399C57.45 45.5946 58.16 53.6555 57.98 58.233C57.8 62.8106 57.54 67.3379 58.22 68.8236C59.4 71.4135 63.52 72.8792 68.11 73.2807C68.11 73.2807 68.95 73.3811 69.36 73.361C69.77 73.3811 70.61 73.2807 70.61 73.2807C75.2 72.8792 79.32 71.4135 80.5 68.8236C81.18 67.3379 80.92 62.8005 80.74 58.233C80.56 53.6555 81.28 45.5946 81.08 41.7399H81.06Z" fill="#B01A1F"/>
<path d="M73.8 42.9443H65.18C62.3357 42.9443 60.03 45.2589 60.03 48.1141V63.1216C60.03 65.9768 62.3357 68.2914 65.18 68.2914H73.8C76.6442 68.2914 78.95 65.9768 78.95 63.1216V48.1141C78.95 45.2589 76.6442 42.9443 73.8 42.9443Z" fill="white"/>
<path d="M65.29 47.1703C64.91 46.3572 64.52 45.6746 64.21 45.1626C63.9 45.6645 63.51 46.3572 63.13 47.1703C62.19 49.1679 61.33 51.9084 61.94 54.4682C61.96 54.5686 61.99 54.669 62.02 54.7694C62.25 55.5524 62.6 56.0744 63.02 56.3856C63.39 56.6667 63.81 56.7771 64.22 56.7671C64.63 56.7771 65.05 56.6667 65.42 56.3856C65.84 56.0744 66.19 55.5524 66.42 54.7694C66.45 54.669 66.47 54.5686 66.5 54.4682C67.11 51.9084 66.25 49.1679 65.31 47.1703H65.29Z" fill="#CD1E25"/>
<path d="M64.41 47.3107C64.23 46.9393 64.05 46.6181 63.91 46.3872C63.77 46.6181 63.59 46.9393 63.41 47.3107C62.98 48.2343 62.58 49.4891 62.86 50.6636C62.87 50.7138 62.88 50.7539 62.89 50.8041C62.99 51.1655 63.16 51.4064 63.35 51.547C63.52 51.6775 63.71 51.7277 63.9 51.7277C64.09 51.7277 64.28 51.6775 64.45 51.547C64.64 51.4064 64.81 51.1655 64.91 50.8041C64.92 50.7539 64.93 50.7138 64.94 50.6636C65.22 49.4891 64.83 48.2242 64.39 47.3107H64.41Z" fill="white"/>
<path d="M68.5 56.8975H68.04V59.2465H68.5V56.8975Z" fill="#231F20"/>
<path d="M68.86 56.8975H68.63V59.2465H68.86V56.8975Z" fill="#231F20"/>
<path d="M69.1 56.8975H68.98V59.2465H69.1V56.8975Z" fill="#231F20"/>
<path d="M69.42 56.8975H69.21V59.2465H69.42V56.8975Z" fill="#231F20"/>
<path d="M69.64 56.8975H69.54V59.2465H69.64V56.8975Z" fill="#231F20"/>
<path d="M69.81 56.8975H69.76V59.2465H69.81V56.8975Z" fill="#231F20"/>
<path d="M70.39 56.8975H69.93V59.2465H70.39V56.8975Z" fill="#231F20"/>
<path d="M73.2099 56.8975H71.8199V59.2465H73.2099V56.8975Z" fill="#231F20"/>
<path d="M70.74 56.8975H70.51V59.2465H70.74V56.8975Z" fill="#231F20"/>
<path d="M70.98 56.8975H70.86V59.2465H70.98V56.8975Z" fill="#231F20"/>
<path d="M71.31 56.8975H71.1V59.2465H71.31V56.8975Z" fill="#231F20"/>
<path d="M71.52 56.8975H71.42V59.2465H71.52V56.8975Z" fill="#231F20"/>
<path d="M71.7 56.8975H71.65V59.2465H71.7V56.8975Z" fill="#231F20"/>
<path d="M73.97 56.8975H73.29V59.2465H73.97V56.8975Z" fill="#231F20"/>
<path d="M74.31 56.8975H74.08V59.2465H74.31V56.8975Z" fill="#231F20"/>
<path d="M74.55 56.8975H74.43V59.2465H74.55V56.8975Z" fill="#231F20"/>
<path d="M74.88 56.8975H74.67V59.2465H74.88V56.8975Z" fill="#231F20"/>
<path d="M75.09 56.8975H74.99V59.2465H75.09V56.8975Z" fill="#231F20"/>
<path d="M75.27 56.8975H75.22V59.2465H75.27V56.8975Z" fill="#231F20"/>
<path d="M75.85 56.8975H75.39V59.2465H75.85V56.8975Z" fill="#231F20"/>
<path d="M77.96 56.8975H77.27V59.2465H77.96V56.8975Z" fill="#231F20"/>
<path d="M76.2 56.8975H75.97V59.2465H76.2V56.8975Z" fill="#231F20"/>
<path d="M76.4399 56.8975H76.3199V59.2465H76.4399V56.8975Z" fill="#231F20"/>
<path d="M76.76 56.8975H76.55V59.2465H76.76V56.8975Z" fill="#231F20"/>
<path d="M76.98 56.8975H76.88V59.2465H76.98V56.8975Z" fill="#231F20"/>
<path d="M77.15 56.8975H77.1V59.2465H77.15V56.8975Z" fill="#231F20"/>
<path d="M77.85 59.959H68.16V60.491H77.85V59.959Z" fill="#5F6062"/>
<path d="M77.85 60.792H68.16V61.324H77.85V60.792Z" fill="#5F6062"/>
<path d="M74.08 61.6255H68.16V62.1575H74.08V61.6255Z" fill="#B6B8BA"/>
<path d="M77.8499 61.6255H74.3199V62.1575H77.8499V61.6255Z" fill="#B6B8BA"/>
<path d="M73.41 62.5791H68.16V62.9104H73.41V62.5791Z" fill="#B6B8BA"/>
<path d="M73.41 63.1011H68.16V63.4323H73.41V63.1011Z" fill="#B6B8BA"/>
<path d="M71.37 63.6133H68.16V63.9445H71.37V63.6133Z" fill="#B6B8BA"/>
<path d="M73.4 63.6133H71.49V63.9445H73.4V63.6133Z" fill="#B6B8BA"/>
<path d="M77.85 62.5791H73.58V62.9104H77.85V62.5791Z" fill="#B6B8BA"/>
<path d="M77.85 63.1011H73.58V63.4323H77.85V63.1011Z" fill="#B6B8BA"/>
<path d="M76.19 63.6133H73.58V63.9445H76.19V63.6133Z" fill="#B6B8BA"/>
<path d="M77.85 63.6133H76.29V63.9445H77.85V63.6133Z" fill="#B6B8BA"/>
<path d="M72.6 64.627H77.85V64.2957H72.6V64.627Z" fill="#B6B8BA"/>
<path d="M72.6 65.1392H77.85V64.8079H72.6V65.1392Z" fill="#B6B8BA"/>
<path d="M74.64 65.6611H77.85V65.3299H74.64V65.6611Z" fill="#B6B8BA"/>
<path d="M72.61 65.6611H74.52V65.3299H72.61V65.6611Z" fill="#B6B8BA"/>
<path d="M68.16 64.627H72.43V64.2957H68.16V64.627Z" fill="#B6B8BA"/>
<path d="M68.16 65.1392H72.43V64.8079H68.16V65.1392Z" fill="#B6B8BA"/>
<path d="M69.82 65.6611H72.43V65.3299H69.82V65.6611Z" fill="#B6B8BA"/>
<path d="M68.16 65.6611H69.72V65.3299H68.16V65.6611Z" fill="#B6B8BA"/>
<path d="M66.91 59.9893H61.23V60.1699H66.91V59.9893Z" fill="#E2E3E4"/>
<path d="M66.91 60.3809H61.23V60.5616H66.91V60.3809Z" fill="#E2E3E4"/>
<path d="M66.91 59.5977H61.23V59.7783H66.91V59.5977Z" fill="#E2E3E4"/>
<path d="M66.91 60.7822H61.23V60.9629H66.91V60.7822Z" fill="#E2E3E4"/>
<path d="M66.91 61.5654H61.23V61.7461H66.91V61.5654Z" fill="#E2E3E4"/>
<path d="M66.91 61.9565H61.23V62.1372H66.91V61.9565Z" fill="#E2E3E4"/>
<path d="M66.91 61.1738H61.23V61.3545H66.91V61.1738Z" fill="#E2E3E4"/>
<path d="M66.91 62.3481H61.23V62.5288H66.91V62.3481Z" fill="#E2E3E4"/>
<path d="M66.91 63.2114H61.23V63.3921H66.91V63.2114Z" fill="#E2E3E4"/>
<path d="M66.91 63.603H61.23V63.7837H66.91V63.603Z" fill="#E2E3E4"/>
<path d="M66.91 62.8101H61.23V62.9907H66.91V62.8101Z" fill="#E2E3E4"/>
<path d="M66.91 63.9946H61.23V64.1753H66.91V63.9946Z" fill="#E2E3E4"/>
<path d="M66.91 64.7778H61.23V64.9585H66.91V64.7778Z" fill="#E2E3E4"/>
<path d="M66.91 65.1689H61.23V65.3496H66.91V65.1689Z" fill="#E2E3E4"/>
<path d="M66.91 64.3862H61.23V64.5669H66.91V64.3862Z" fill="#E2E3E4"/>
<path d="M66.91 65.5708H61.23V65.7515H66.91V65.5708Z" fill="#E2E3E4"/>
<g style="mix-blend-mode:multiply">
<path d="M81.06 41.7399C81 40.5553 80.77 39.3909 80.32 38.3669C79.93 37.4835 79.39 36.7407 78.81 36.0581C78.47 35.6565 78.12 35.265 77.76 34.8936C77.48 34.6025 77.15 34.221 76.99 33.7794C76.79 33.2373 76.7 32.635 76.64 32.0427C76.58 31.5006 76.54 29.9748 76.54 29.4227H74.79C74.79 29.4227 74.9 32.4643 74.48 33.3879C74.22 33.94 73.77 34.1709 73.3 34.221C72.82 34.2712 72.3 34.201 71.92 33.7794C71.57 33.3879 70.84 33.177 70.34 33.2774C69.52 33.428 69.37 34.4017 68.52 34.3114C67.32 34.1909 67.65 30.0651 67.65 30.0651H66.18C66.18 30.0651 66.56 34.4319 65.23 34.3515C64.06 34.2813 64.29 28.8906 64.29 28.8906H62.46C62.46 28.8906 62.67 32.7354 61.24 34.5824C59.67 36.6102 57.84 37.8951 57.64 41.7399C57.45 45.5946 58.16 53.6555 57.98 58.233C57.8 62.8106 57.54 67.3379 58.22 68.8236C59.4 71.4135 63.52 72.8792 68.11 73.2807C68.11 73.2807 68.95 73.3811 69.36 73.361C69.77 73.3811 70.61 73.2807 70.61 73.2807C75.2 72.8792 79.32 71.4135 80.5 68.8236C81.18 67.3379 80.92 62.8005 80.74 58.233C80.56 53.6555 81.28 45.5946 81.08 41.7399H81.06ZM80.01 66.4545C79.48 69.5665 76.43 70.7811 71.3 71.524C66.17 72.2668 59.97 70.0684 58.86 68.4823C57.74 66.8962 58.45 62.0778 58.95 57.9921C59.45 53.9065 58.07 45.173 58.04 43.1352C58.01 41.0974 58.23 38.8086 60.01 37.072C61.79 35.3353 62.39 33.5384 62.39 33.5384C62.57 32.3338 63.8 32.7454 63.91 33.2574C64.03 33.7794 64.29 35.5361 65.23 35.5662C65.99 35.5963 65.84 34.9438 67.09 34.9639C67.81 34.9739 68 36.0079 70 34.6326C71.49 33.6087 72.36 35.6967 73.59 35.5662C74.82 35.4457 75.46 33.7593 76.43 35.2249C77.57 36.9515 78.62 37.6944 79.64 39.7322C80.67 41.77 79.96 50.7945 79.85 54.3682C79.73 57.952 80.55 63.3326 80.03 66.4445L80.01 66.4545Z" fill="#B7B8BA"/>
</g>
<g style="mix-blend-mode:multiply">
<path d="M81.06 41.7399C81 40.5553 80.77 39.3909 80.32 38.3669C79.93 37.4835 79.39 36.7407 78.81 36.0581C78.47 35.6565 78.12 35.265 77.76 34.8936C77.48 34.6025 77.15 34.221 76.99 33.7794C76.79 33.2373 76.7 32.635 76.64 32.0427C76.58 31.5006 76.54 29.9748 76.54 29.4227H74.79C74.79 29.4227 74.9 32.4643 74.48 33.3879C74.22 33.94 73.77 34.1709 73.3 34.221C72.82 34.2712 72.3 34.201 71.92 33.7794C71.57 33.3879 70.84 33.177 70.34 33.2774C69.52 33.428 69.37 34.4017 68.52 34.3114C67.86 34.2411 67.66 32.9562 67.62 31.8219C67.53 31.7315 67.43 31.6612 67.33 31.591C67.03 31.4002 66.67 31.3099 66.35 31.4906C66.31 31.5107 66.27 31.5408 66.24 31.5709C66.22 32.8257 66.04 34.3917 65.24 34.3515C64.07 34.2813 64.3 28.8906 64.3 28.8906H62.47C62.47 28.8906 62.68 32.7354 61.25 34.5824C59.68 36.6102 57.85 37.8951 57.65 41.7399C57.46 45.5946 58.17 53.6555 57.99 58.233C57.81 62.8106 57.55 67.3379 58.23 68.8236C59.41 71.4135 63.53 72.8792 68.12 73.2807C68.12 73.2807 68.96 73.3811 69.37 73.361C69.78 73.3811 70.62 73.2807 70.62 73.2807C75.21 72.8792 79.33 71.4135 80.51 68.8236C81.19 67.3379 80.93 62.8005 80.75 58.233C80.57 53.6555 81.29 45.5946 81.09 41.7399H81.06ZM80.01 66.4545C79.48 69.5665 76.43 70.7811 71.3 71.524C66.17 72.2668 59.97 70.0684 58.86 68.4823C57.74 66.8962 58.45 62.0778 58.95 57.9921C59.45 53.9065 58.07 45.173 58.04 43.1352C58.01 41.0974 58.23 38.8086 60.01 37.072C61.79 35.3353 62.39 33.5384 62.39 33.5384C62.57 32.3338 63.8 32.7454 63.91 33.2574C64.03 33.7794 64.29 35.5361 65.23 35.5662C65.99 35.5963 65.84 34.9438 67.09 34.9639C67.81 34.9739 68 36.0079 70 34.6326C71.49 33.6087 72.36 35.6967 73.59 35.5662C74.82 35.4457 75.46 33.7593 76.43 35.2249C77.57 36.9515 78.62 37.6944 79.64 39.7322C80.67 41.77 79.96 50.7945 79.85 54.3682C79.73 57.952 80.55 63.3326 80.03 66.4445L80.01 66.4545Z" fill="#B7B8BA"/>
</g>
<g opacity="0.53">
<path d="M64.0899 24.1821H62.5099C62.5099 24.1821 62.0499 24.1218 62.0499 25.196V31.1789H64.5399V25.196C64.5399 24.1118 64.0799 24.1821 64.0799 24.1821H64.0899Z" fill="#C9CACC"/>
<path d="M64.59 31.2394H62.02V25.2063C62.02 24.7646 62.09 24.4534 62.24 24.2727C62.37 24.1121 62.51 24.1322 62.52 24.1322H64.09C64.09 24.1322 64.24 24.1322 64.37 24.2727C64.52 24.4534 64.59 24.7646 64.59 25.2063V31.2394ZM62.1 31.129H64.51V25.1962C64.51 24.7947 64.44 24.5036 64.32 24.343C64.21 24.2125 64.1 24.2225 64.1 24.2225H62.52C62.52 24.2225 62.4 24.2125 62.3 24.343C62.17 24.4935 62.11 24.7947 62.11 25.1962V31.129H62.1Z" fill="#929496"/>
</g>
<path d="M64.14 25.2164H62.47C62.36 25.2164 62.27 25.0959 62.27 24.9454C62.27 24.7948 62.36 24.6743 62.47 24.6743H64.14C64.25 24.6743 64.34 24.7948 64.34 24.9454C64.34 25.0959 64.25 25.2164 64.14 25.2164Z" fill="#B7B8BA"/>
<path d="M64.14 25.9391H62.47C62.36 25.9391 62.27 25.8186 62.27 25.668C62.27 25.5174 62.36 25.397 62.47 25.397H64.14C64.25 25.397 64.34 25.5174 64.34 25.668C64.34 25.8186 64.25 25.9391 64.14 25.9391Z" fill="#B7B8BA"/>
<path d="M64.14 26.6519H62.47C62.36 26.6519 62.27 26.5315 62.27 26.3809C62.27 26.2303 62.36 26.1099 62.47 26.1099H64.14C64.25 26.1099 64.34 26.2303 64.34 26.3809C64.34 26.5315 64.25 26.6519 64.14 26.6519Z" fill="#B7B8BA"/>
<path d="M64.14 27.3746H62.47C62.36 27.3746 62.27 27.2541 62.27 27.1036C62.27 26.953 62.36 26.8325 62.47 26.8325H64.14C64.25 26.8325 64.34 26.953 64.34 27.1036C64.34 27.2541 64.25 27.3746 64.14 27.3746Z" fill="#B7B8BA"/>
<path d="M64.14 28.0875H62.47C62.36 28.0875 62.27 27.967 62.27 27.8164C62.27 27.6659 62.36 27.5454 62.47 27.5454H64.14C64.25 27.5454 64.34 27.6659 64.34 27.8164C64.34 27.967 64.25 28.0875 64.14 28.0875Z" fill="#B7B8BA"/>
<path d="M64.14 28.8101H62.47C62.36 28.8101 62.27 28.6897 62.27 28.5391C62.27 28.3885 62.36 28.2681 62.47 28.2681H64.14C64.25 28.2681 64.34 28.3885 64.34 28.5391C64.34 28.6897 64.25 28.8101 64.14 28.8101Z" fill="#B7B8BA"/>
<path d="M64.14 29.523H62.47C62.36 29.523 62.27 29.4026 62.27 29.252C62.27 29.1014 62.36 28.981 62.47 28.981H64.14C64.25 28.981 64.34 29.1014 64.34 29.252C64.34 29.4026 64.25 29.523 64.14 29.523Z" fill="#B7B8BA"/>
<path d="M64.14 30.2457H62.47C62.36 30.2457 62.27 30.1252 62.27 29.9747C62.27 29.8241 62.36 29.7036 62.47 29.7036H64.14C64.25 29.7036 64.34 29.8241 64.34 29.9747C64.34 30.1252 64.25 30.2457 64.14 30.2457Z" fill="#B7B8BA"/>
<g opacity="0.53">
<path d="M76.44 24.1821H74.86C74.86 24.1821 74.4 24.1218 74.4 25.196V31.1789H76.89V25.196C76.89 24.1118 76.43 24.1821 76.43 24.1821H76.44Z" fill="#C9CACC"/>
<path d="M76.93 31.2394H74.36V25.2063C74.36 24.7646 74.43 24.4534 74.58 24.2727C74.71 24.1121 74.85 24.1322 74.86 24.1322H76.43C76.43 24.1322 76.58 24.1322 76.71 24.2727C76.86 24.4534 76.93 24.7646 76.93 25.2063V31.2394ZM74.45 31.129H76.86V25.1962C76.86 24.7947 76.79 24.5036 76.67 24.343C76.56 24.2125 76.45 24.2225 76.45 24.2225H74.87C74.87 24.2225 74.75 24.2125 74.65 24.343C74.52 24.4935 74.46 24.7947 74.46 25.1962V31.129H74.45Z" fill="#929496"/>
</g>
<path d="M76.49 25.2164H74.82C74.71 25.2164 74.62 25.0959 74.62 24.9454C74.62 24.7948 74.71 24.6743 74.82 24.6743H76.49C76.6 24.6743 76.69 24.7948 76.69 24.9454C76.69 25.0959 76.6 25.2164 76.49 25.2164Z" fill="#B7B8BA"/>
<path d="M76.49 25.9391H74.82C74.71 25.9391 74.62 25.8186 74.62 25.668C74.62 25.5174 74.71 25.397 74.82 25.397H76.49C76.6 25.397 76.69 25.5174 76.69 25.668C76.69 25.8186 76.6 25.9391 76.49 25.9391Z" fill="#B7B8BA"/>
<path d="M76.49 26.6519H74.82C74.71 26.6519 74.62 26.5315 74.62 26.3809C74.62 26.2303 74.71 26.1099 74.82 26.1099H76.49C76.6 26.1099 76.69 26.2303 76.69 26.3809C76.69 26.5315 76.6 26.6519 76.49 26.6519Z" fill="#B7B8BA"/>
<path d="M76.49 27.3746H74.82C74.71 27.3746 74.62 27.2541 74.62 27.1036C74.62 26.953 74.71 26.8325 74.82 26.8325H76.49C76.6 26.8325 76.69 26.953 76.69 27.1036C76.69 27.2541 76.6 27.3746 76.49 27.3746Z" fill="#B7B8BA"/>
<path d="M76.49 28.0875H74.82C74.71 28.0875 74.62 27.967 74.62 27.8164C74.62 27.6659 74.71 27.5454 74.82 27.5454H76.49C76.6 27.5454 76.69 27.6659 76.69 27.8164C76.69 27.967 76.6 28.0875 76.49 28.0875Z" fill="#B7B8BA"/>
<path d="M76.49 28.8101H74.82C74.71 28.8101 74.62 28.6897 74.62 28.5391C74.62 28.3885 74.71 28.2681 74.82 28.2681H76.49C76.6 28.2681 76.69 28.3885 76.69 28.5391C76.69 28.6897 76.6 28.8101 76.49 28.8101Z" fill="#B7B8BA"/>
<path d="M76.49 29.523H74.82C74.71 29.523 74.62 29.4026 74.62 29.252C74.62 29.1014 74.71 28.981 74.82 28.981H76.49C76.6 28.981 76.69 29.1014 76.69 29.252C76.69 29.4026 76.6 29.523 76.49 29.523Z" fill="#B7B8BA"/>
<path d="M76.49 30.2457H74.82C74.71 30.2457 74.62 30.1252 74.62 29.9747C74.62 29.8241 74.71 29.7036 74.82 29.7036H76.49C76.6 29.7036 76.69 29.8241 76.69 29.9747C76.69 30.1252 76.6 30.2457 76.49 30.2457Z" fill="#B7B8BA"/>
<g style="mix-blend-mode:color-dodge">
<path d="M67.43 36.2283C67.34 35.9171 67.03 35.8669 66.82 35.8869C66.56 35.907 66.31 35.9873 66.06 36.0676C65.83 36.1379 65.6 36.2082 65.38 36.2684C64.92 36.3889 64.35 36.4993 63.95 36.1078C63.72 35.8869 63.58 35.5155 63.48 35.1642C63.38 34.8229 63.3 34.4615 63.23 34.1101C63.18 33.8893 63.13 33.5982 62.99 33.4476C62.82 33.2669 62.61 33.4878 62.54 33.6986C62.44 33.9696 62.41 34.2607 62.34 34.5418C62.24 34.9233 62.11 35.3047 61.93 35.636C61.56 36.3086 61.01 36.7603 60.51 37.2321C60.01 37.6939 59.53 38.1958 59.21 38.8985C58.91 39.561 58.75 40.334 58.67 41.1069C58.65 41.3178 58.64 41.5386 58.63 41.7494C58.62 41.8598 58.61 41.9703 58.6 42.0807C58.57 42.5324 58.56 42.9841 58.6 43.4359C58.61 43.6266 58.64 43.8274 58.66 44.0181C58.68 44.1486 58.7 44.3393 58.78 44.4196C58.97 44.6104 59.12 44.2992 59.17 44.0884C59.25 43.737 59.31 43.3756 59.38 43.0243C59.47 42.6027 59.57 42.1811 59.71 41.7896C59.85 41.378 60.04 41.0066 60.25 40.6653C60.67 39.9726 61.17 39.4104 61.76 38.9989C62.91 38.2058 64.23 37.9448 65.5 37.724C66.08 37.6236 66.71 37.473 67.17 36.951C67.32 36.7904 67.52 36.5093 67.45 36.2182L67.43 36.2283ZM59.36 38.9386C59.51 38.6074 59.71 38.3263 59.92 38.0753C60.03 37.9448 60.15 37.8244 60.27 37.7039C60.05 37.9348 59.85 38.1858 59.66 38.4668C59.45 38.7881 59.28 39.1494 59.14 39.5209C59.12 39.5811 59.1 39.6413 59.08 39.7016C59.15 39.4406 59.25 39.1796 59.36 38.9386Z" fill="#B01A1F"/>
</g>
<g style="mix-blend-mode:color-dodge">
<path d="M72.42 36.0373C72.42 36.0373 72.39 35.937 72.37 35.8968C72.16 35.4652 71.67 35.2945 71.32 35.1941C70.64 34.9933 69.7 35.1038 69.13 35.696C68.89 35.947 68.67 36.5192 69.07 36.73C69.19 36.7902 69.33 36.7902 69.46 36.7702C69.9 36.7099 70.29 36.4288 70.71 36.3485C71.16 36.2582 71.6 36.5092 72.05 36.4991C72.19 36.4991 72.35 36.4489 72.42 36.2783C72.45 36.208 72.45 36.1277 72.43 36.0474L72.42 36.0373Z" fill="#B01A1F"/>
</g>
<g style="mix-blend-mode:color-dodge">
<path d="M76.2 36.0175C76.17 35.907 76.11 35.7966 76.05 35.7163C75.83 35.4252 75.49 35.385 75.2 35.4553C74.84 35.5356 74.49 35.7364 74.17 35.9673C73.58 36.409 74.32 36.4391 74.59 36.409C75 36.3588 75.32 36.5093 75.71 36.5896C75.84 36.6198 75.99 36.6298 76.11 36.5194C76.24 36.3889 76.25 36.1881 76.19 36.0074L76.2 36.0175Z" fill="#B01A1F"/>
</g>
<g style="mix-blend-mode:color-dodge">
<path d="M61.66 69.5664C61.59 69.4158 61.27 69.1548 61.25 69.1247C60.45 68.412 59.84 67.6993 59.48 66.4645C59.17 65.3904 59.09 64.2059 59.13 63.0615C59.15 62.5395 59.18 62.0275 59.23 61.5055C59.27 61.0638 59.39 60.5519 59.31 60.1102C59.24 59.7588 59.09 59.7388 58.98 60.0901C58.91 60.311 58.91 60.582 58.9 60.833C58.88 61.3048 58.86 61.7866 58.82 62.2584C58.76 63.1017 58.69 63.9348 58.63 64.7781C58.55 65.8823 58.52 66.9263 58.99 67.88C59.43 68.7834 60.2 69.3054 60.96 69.5463C61.04 69.5664 61.75 69.7371 61.66 69.5564V69.5664Z" fill="#B01A1F"/>
</g>
<g style="mix-blend-mode:color-dodge">
<path d="M75.27 70.1988C75.27 70.1988 75.28 70.1988 75.29 70.1787C75.36 70.1185 75.46 70.0281 75.48 69.9177C75.53 69.6065 74.88 69.8675 74.79 69.9077C74.65 69.9679 74.51 70.0281 74.37 70.0884C74.12 70.1988 73.85 70.259 73.58 70.3193C72.91 70.4698 72.24 70.5301 71.57 70.6003C70.19 70.7409 68.8 70.8312 67.42 70.6706C67.08 70.6304 66.74 70.5903 66.4 70.4899C66.13 70.4096 65.87 70.2891 65.61 70.2088C65.41 70.1486 65.19 70.0783 64.98 70.1285C64.52 70.259 65.57 70.7208 65.69 70.7609C67.09 71.1926 68.53 71.3432 69.96 71.2528C71.6 71.1524 73.23 70.781 74.83 70.3393C74.95 70.3092 75.11 70.2691 75.25 70.1988H75.27Z" fill="#B01A1F"/>
</g>
<g style="mix-blend-mode:color-dodge">
<path d="M79.93 45.1726C79.8 42.7633 79.93 39.6715 78.26 38.0955C78.15 37.9951 78.03 37.9047 77.89 37.8746C77.76 37.8445 77.61 37.8947 77.5199 38.0352C77.3199 38.3464 77.63 38.7982 77.7699 39.0391C78.08 39.5711 78.71 40.2537 78.75 40.9564C78.78 41.3881 78.46 41.5387 78.2 41.619C77.63 41.7896 77.05 41.7796 76.47 41.7695C76.22 41.7695 75.92 41.7495 75.68 41.8599C75.43 41.9703 75.42 42.1711 75.6 42.3618C75.82 42.5927 76.28 42.5325 76.53 42.5124C77.08 42.4522 77.64 42.4722 78.18 42.5425C78.83 42.6228 79.22 43.185 79.38 44.0081C79.54 44.8413 79.48 45.7247 79.69 46.5478C79.71 46.6181 79.78 46.598 79.81 46.5478C79.91 46.3973 79.93 46.1664 79.94 45.9757C79.95 45.7046 79.94 45.4336 79.92 45.1726H79.93Z" fill="#B01A1F"/>
</g>
<path d="M59.21 35.3754C58.9 35.6966 58.55 35.9376 58.24 36.2688C57.93 36.5901 57.69 37.0016 57.47 37.4333C57.25 37.875 57.06 38.3267 56.93 38.8286C56.81 39.3105 56.74 39.8124 56.71 40.3244C56.69 40.6155 56.69 40.9166 56.69 41.2078C56.69 41.4888 56.69 41.78 56.74 42.061C56.74 42.1012 56.79 42.061 56.79 42.041C56.79 41.529 56.84 41.0271 56.87 40.5151C56.9 40.0132 56.95 39.5113 57.06 39.0194C57.17 38.5275 57.34 38.0858 57.54 37.6541C57.75 37.2225 57.98 36.8009 58.27 36.4596C58.59 36.0982 58.94 35.8071 59.24 35.4156C59.27 35.3854 59.24 35.3453 59.21 35.3754Z" fill="white"/>
<path d="M60 73.3003C59.3 72.8285 58.62 72.2262 58.11 71.4131C57.65 70.6803 57.33 69.8169 57.13 68.8934C57.02 68.3814 56.96 67.8594 56.89 67.3374C56.89 67.3073 56.85 67.3374 56.84 67.3575C56.8 67.8494 56.85 68.3513 56.92 68.8332C56.99 69.305 57.12 69.7668 57.28 70.2085C57.6 71.0918 58.07 71.8849 58.66 72.4671C59.05 72.8486 59.5 73.1497 59.95 73.3906C59.98 73.4107 60.03 73.3304 60 73.3103V73.3003Z" fill="white"/>
<path d="M82.31 67.5686C82.31 67.5686 82.25 67.5686 82.25 67.5887C82.25 67.8296 82.21 68.0906 82.17 68.3215C82.13 68.5524 82.08 68.7833 82.0199 69.0142C81.9 69.4759 81.74 69.9176 81.56 70.3392C81.21 71.1524 80.75 71.8751 80.17 72.4172C79.8 72.7585 79.39 72.9994 79.03 73.3307C79 73.3608 79.01 73.411 79.05 73.3909C79.42 73.15 79.81 72.9392 80.16 72.6381C80.47 72.3771 80.75 72.0458 81 71.6844C81.49 70.9616 81.88 70.0883 82.13 69.1748C82.2 68.9037 82.26 68.6327 82.3 68.3516C82.33 68.0806 82.33 67.8296 82.3 67.5586L82.31 67.5686Z" fill="white"/>
<path d="M82.16 38.7182C82.01 38.1861 81.78 37.6942 81.51 37.2726C81.43 37.1522 81.35 37.0417 81.26 36.9313C81.17 36.8209 81.07 36.7205 80.97 36.6101C80.95 36.59 80.9 36.6402 80.92 36.6703C81.02 36.8008 81.1 36.9413 81.18 37.0819C81.26 37.2124 81.34 37.3429 81.42 37.4834C81.58 37.7645 81.73 38.0657 81.85 38.3768C82.09 39.0193 82.23 39.732 82.23 40.4548C82.23 40.505 82.28 40.4749 82.29 40.4347C82.35 39.8525 82.31 39.2703 82.16 38.7182Z" fill="white"/>
<path d="M70.86 25.8085H70.63C70.53 25.8085 70.4 25.8587 70.4 26.1197V30.366H68.28C68.28 30.366 69.17 31.4602 70.87 31.4301C72.56 31.3999 74.09 30.366 74.09 30.366H71.31V26.3907C71.31 26.3907 71.44 25.7382 70.87 25.8085H70.86Z" fill="#C9CACC"/>
<path d="M73.01 51.4567L72.6 53.4543H71.24L73.01 45.6846H74.73L76.53 53.4543H75.12L74.67 51.4567H73.01ZM74.49 50.1417L74.13 48.4953C74.03 48.0336 73.92 47.4614 73.84 46.9996H73.82C73.73 47.4614 73.65 48.0436 73.55 48.4953L73.21 50.1417H74.49Z" fill="black"/>
<path d="M36.02 27.5752C35.92 27.5752 35.84 27.5752 35.77 27.5752C35.74 27.5752 35.72 27.5451 35.72 27.4949C35.72 27.4547 35.75 27.4246 35.77 27.4246C36.02 27.4346 36.5 27.4447 36.92 27.3242C36.95 27.3242 36.98 27.3443 36.98 27.3845C36.98 27.4246 36.97 27.4648 36.94 27.4748C36.62 27.5651 36.27 27.5852 36.01 27.5852L36.02 27.5752Z" fill="#5A0000"/>
<path d="M35.93 29.0209C35.85 29.0209 35.78 29.0209 35.71 29.0209C35.68 29.0209 35.66 28.9908 35.66 28.9406C35.66 28.9005 35.69 28.8703 35.71 28.8703C36.02 28.8804 36.52 28.8703 36.94 28.79C36.97 28.79 37 28.8101 37 28.8503C37 28.8904 36.98 28.9306 36.95 28.9306C36.61 28.9908 36.23 29.0209 35.93 29.0209Z" fill="#5A0000"/>
<path d="M31.08 76.8543C25.99 73.9733 20.15 67.2576 19.9 66.9664C19.67 66.7054 19.65 66.2437 19.84 65.9425C20.04 65.6414 20.38 65.6012 20.61 65.8622C20.67 65.9325 26.57 72.7185 31.5 75.5092C34.81 77.3864 38.15 76.5431 39.81 73.4312C40.73 71.6946 43.1 65.0792 34.81 52.7018C30.84 46.7791 32.33 42.1413 33.91 37.2325C34.74 34.6326 35.59 31.9925 35.76 28.9408C34.29 28.8705 32.88 28.1778 31.66 26.8728C28.55 23.5601 28.83 20.659 29.09 19.5648C29.48 17.9587 30.55 16.8645 31.82 16.7842C33.43 16.6838 34.87 18.1595 35.7 20.7293C36.49 23.1686 36.82 25.3771 36.86 27.4049C37.18 27.3446 37.51 27.2443 37.83 27.1037C41.51 25.5979 44.8 20.0969 46.62 12.3873C49.03 2.25853 53.73 -0.562281 57.31 0.190604C61.12 0.983643 63.89 5.53107 63.89 11.002V31.4203C63.89 31.8218 63.65 32.1531 63.35 32.1531C63.05 32.1531 62.81 31.8218 62.81 31.4203V11.002C62.81 6.25384 60.43 2.30872 57.15 1.6261C52.35 0.632296 49.11 6.7658 47.68 12.8391C45.75 21.0104 42.19 26.8628 38.17 28.5091C37.73 28.6898 37.29 28.8103 36.86 28.8805C36.7 32.2535 35.77 35.1345 34.92 37.8047C33.36 42.6633 32.13 46.498 35.63 51.7281C41.59 60.6221 43.48 69.0544 40.7 74.2744C39.42 76.6837 37.33 77.9586 34.98 77.9586C33.73 77.9586 32.4 77.5972 31.09 76.8543H31.08ZM31.88 18.2398C31.06 18.29 30.37 18.9926 30.13 20.0166C29.73 21.693 30.55 23.8312 32.34 25.7385C33.38 26.8528 34.55 27.445 35.79 27.4952C35.76 25.618 35.44 23.5802 34.71 21.3115C34.09 19.3741 33.07 18.2398 31.98 18.2398C31.95 18.2398 31.91 18.2398 31.88 18.2398Z" fill="#B01A1F"/>
<path d="M34.97 78.0388C33.68 78.0388 32.36 77.6674 31.06 76.9245C25.97 74.0435 20.12 67.3177 19.87 67.0266C19.62 66.7355 19.59 66.2336 19.81 65.8923C19.91 65.7316 20.06 65.6312 20.22 65.6112C20.38 65.5911 20.53 65.6614 20.66 65.8019C20.9 66.083 26.69 72.6883 31.54 75.4388C34.82 77.2959 38.14 76.4728 39.78 73.3809C40.7 71.6543 43.05 65.0791 34.79 52.7419C30.8 46.7891 32.3 42.1312 33.88 37.1923C34.7 34.6425 35.54 32.0024 35.72 29.0009C34.25 28.9206 32.85 28.1978 31.65 26.9229C28.52 23.5801 28.8 20.6389 29.07 19.5346C29.46 17.8984 30.56 16.7841 31.85 16.7038C33.48 16.6034 34.95 18.0991 35.78 20.6891C36.51 22.9577 36.89 25.1261 36.94 27.3144C37.24 27.2542 37.54 27.1538 37.84 27.0334C41.5 25.5376 44.78 20.0566 46.6 12.3672C48.99 2.18817 53.71 -0.632638 57.32 0.110208C61.16 0.903247 63.94 5.48079 63.94 11.0019V31.4202C63.94 31.8619 63.67 32.2232 63.34 32.2232C63.01 32.2232 62.74 31.8619 62.74 31.4202V11.0019C62.74 6.28386 60.38 2.36886 57.13 1.69629C52.37 0.702478 49.15 6.8159 47.72 12.8591C45.78 21.0504 42.21 26.9229 38.17 28.5793C37.75 28.7499 37.32 28.8804 36.9 28.9507C36.73 32.3136 35.83 35.1244 34.96 37.8347C33.41 42.6733 32.19 46.4879 35.66 51.6878C41.64 60.612 43.53 69.0744 40.74 74.3246C39.48 76.6836 37.38 78.0388 34.97 78.0388ZM31.1 76.784C32.39 77.5168 33.69 77.8882 34.97 77.8882C37.34 77.8882 39.41 76.5531 40.65 74.2342C43.41 69.0443 41.52 60.6421 35.58 51.7782C32.06 46.518 33.29 42.6632 34.86 37.7745C35.73 35.0441 36.64 32.2333 36.8 28.8704C36.8 28.8302 36.82 28.8102 36.85 28.8001C37.28 28.7299 37.72 28.6094 38.15 28.4287C42.16 26.7924 45.7 20.9501 47.63 12.8089C49.07 6.70548 52.33 0.551901 57.16 1.54571C60.46 2.22832 62.86 6.20355 62.86 10.9919V31.4101C62.86 31.7715 63.08 32.0626 63.35 32.0626C63.62 32.0626 63.84 31.7715 63.84 31.4101V11.0019C63.84 5.56109 61.09 1.04379 57.31 0.260785C53.74 -0.482061 49.08 2.32871 46.69 12.4174C44.86 20.157 41.56 25.6681 37.86 27.1839C37.53 27.3144 37.2 27.4148 36.88 27.4851C36.86 27.4851 36.85 27.4851 36.84 27.465C36.83 27.455 36.82 27.4349 36.82 27.4148C36.78 25.2164 36.4 23.0381 35.66 20.7593C34.87 18.2999 33.5 16.8544 31.98 16.8544C31.93 16.8544 31.88 16.8544 31.83 16.8544C30.58 16.9347 29.52 18.0088 29.14 19.5848C28.88 20.669 28.61 23.5299 31.69 26.8125C32.89 28.0874 34.29 28.8001 35.76 28.8604C35.77 28.8604 35.79 28.8604 35.8 28.8804C35.8 28.9005 35.81 28.9106 35.81 28.9306C35.64 31.9924 34.78 34.6626 33.96 37.2425C32.39 42.1312 30.91 46.7489 34.85 52.6415C43.16 65.0591 40.78 71.7146 39.85 73.4613C38.17 76.6133 34.81 77.4566 31.48 75.5693C26.62 72.8087 20.82 66.1934 20.58 65.9123C20.48 65.8019 20.35 65.7417 20.22 65.7517C20.09 65.7617 19.97 65.8421 19.89 65.9726C19.71 66.2436 19.74 66.6652 19.94 66.8961C20.19 67.1772 26.02 73.8929 31.1 76.7739V76.784ZM35.79 27.5654C34.53 27.5152 33.36 26.9129 32.31 25.7886C30.5 23.8612 29.67 21.6929 30.08 19.9864C30.33 18.9323 31.04 18.2196 31.88 18.1594C33.03 18.0791 34.11 19.2636 34.76 21.2713C35.45 23.4095 35.8 25.4473 35.84 27.4851C35.84 27.5052 35.84 27.5252 35.82 27.5353C35.81 27.5453 35.8 27.5554 35.78 27.5554L35.79 27.5654ZM31.88 18.3099C31.09 18.3601 30.42 19.0427 30.18 20.0366C29.78 21.6829 30.6 23.801 32.37 25.6782C33.39 26.7623 34.52 27.3446 35.73 27.4148C35.69 25.4172 35.33 23.4296 34.66 21.3315C34.05 19.4342 33.05 18.3099 31.98 18.3099C31.95 18.3099 31.91 18.3099 31.88 18.3099Z" fill="#5A0000"/>
<g style="mix-blend-mode:multiply">
<path d="M36.69 30.2758C36.67 30.2056 36.65 30.1453 36.62 30.0851C36.62 30.065 36.61 30.055 36.6 30.0349C36.57 29.9847 36.54 29.9345 36.5 29.8843C36.46 29.8442 36.42 29.804 36.38 29.7739C36.35 29.7538 36.3 29.7337 36.27 29.7237C36.27 29.7237 36.26 29.7237 36.25 29.7237C36.2 29.7137 36.15 29.7036 36.1 29.7137C36.06 29.7137 36 29.7337 35.95 29.7639C35.91 29.7839 35.85 29.8241 35.81 29.8642C35.74 29.9345 35.71 29.9747 35.68 30.0449C35.72 29.7036 35.75 29.3623 35.77 29.011C35.96 29.031 36.16 29.031 36.35 29.011C36.52 28.9909 36.7 28.9809 36.86 28.9307C36.83 29.4527 36.78 29.9646 36.73 30.4666C36.73 30.4063 36.72 30.3561 36.7 30.2959L36.69 30.2758Z" fill="#B01A1F"/>
</g>
<g style="mix-blend-mode:multiply">
<path d="M35.73 27.4949C35.73 27.4949 35.76 27.4949 35.78 27.4949C35.78 26.9729 35.74 26.4509 35.68 25.9088C35.68 25.9189 35.68 25.9389 35.69 25.949C35.7 25.9891 35.73 26.0192 35.74 26.0494C35.74 26.0694 35.74 26.0795 35.74 26.0996C35.8 26.3505 35.94 26.5613 36.14 26.6115C36.31 26.6617 36.5 26.5714 36.61 26.3907C36.68 26.2802 36.73 26.1497 36.74 26.0092C36.74 25.9389 36.74 25.8586 36.74 25.7783C36.79 26.3304 36.83 26.8725 36.84 27.4045C36.57 27.4648 36.3 27.515 36.03 27.525C36.01 27.525 36 27.525 35.98 27.525C35.94 27.515 35.9 27.5049 35.87 27.5049C35.82 27.5049 35.76 27.5049 35.71 27.5049L35.73 27.4949Z" fill="#B01A1F"/>
</g>
<path d="M36.01 27.5757C35.91 27.5757 35.83 27.5757 35.76 27.5757C35.73 27.5757 35.71 27.5456 35.71 27.4954C35.71 27.4552 35.74 27.4251 35.76 27.4251C36.01 27.4351 36.49 27.4452 36.91 27.3247C36.94 27.3247 36.97 27.3448 36.97 27.3849C36.97 27.4251 36.96 27.4652 36.93 27.4753C36.61 27.5656 36.26 27.5857 36 27.5857L36.01 27.5757Z" fill="#5A0000"/>
<path d="M35.93 29.0209C35.85 29.0209 35.78 29.0209 35.71 29.0209C35.68 29.0209 35.66 28.9908 35.66 28.9406C35.66 28.9005 35.69 28.8703 35.71 28.8703C36.02 28.8804 36.52 28.8703 36.94 28.79C36.97 28.79 37 28.8101 37 28.8503C37 28.8904 36.98 28.9306 36.95 28.9306C36.61 28.9908 36.23 29.0209 35.92 29.0209H35.93Z" fill="#5A0000"/>
<g style="mix-blend-mode:color-dodge">
<path d="M48.22 9.74719C48.27 9.74719 48.32 9.70704 48.34 9.63677C49.29 6.826 52.03 0.381306 56.85 1.38515C56.93 1.40523 56.99 1.33496 57.01 1.23457C57.02 1.13419 56.97 1.04384 56.9 1.02377C53.37 0.290959 50.16 3.37277 48.1 9.48619C48.07 9.57654 48.1 9.68696 48.17 9.72711C48.19 9.73715 48.21 9.74719 48.23 9.74719H48.22Z" fill="#B01A1F"/>
</g>
<g style="mix-blend-mode:color-dodge">
<path d="M37.89 28.2682C37.89 28.2682 37.92 28.2682 37.93 28.2682C40.25 27.3245 42.44 24.9956 44.27 21.5223C44.31 21.442 44.3 21.3215 44.24 21.2713C44.18 21.2111 44.09 21.2312 44.05 21.3115C42.25 24.7145 40.11 26.9933 37.85 27.9168C37.78 27.9469 37.74 28.0473 37.76 28.1477C37.78 28.228 37.83 28.2782 37.89 28.2782V28.2682Z" fill="#B01A1F"/>
</g>
<path d="M28.5 64.8378C28.5 64.8378 22.11 68.2208 18.81 75.7496L15.48 72.186C15.48 72.186 20.5 62.017 26.03 62.1877L28.5 64.8378Z" fill="white"/>
<path d="M15.34 72.2263L15.39 72.1158C15.44 72.0155 20.51 61.8867 26.03 62.0573H26.07L28.71 64.8882L28.54 64.9785C28.48 65.0086 22.14 68.4317 18.91 75.8301L18.85 75.9706L15.35 72.2162L15.34 72.2263ZM25.99 62.3384C20.91 62.228 16.19 71.0718 15.63 72.166L18.78 75.549C21.77 68.8433 27.26 65.4102 28.29 64.8078L25.99 62.3484V62.3384Z" fill="#D8D9DA"/>
<g style="mix-blend-mode:multiply">
<path d="M23.4101 68.5424C22.3501 67.4281 21.2101 66.4945 20.1201 65.4405C20.2701 65.2899 20.4101 65.1293 20.5601 64.9888C20.5701 64.9988 20.5901 65.0088 20.6001 65.0289C21.4001 65.7617 22.1801 66.5548 22.9701 67.3177C23.1501 67.4883 23.3301 67.669 23.5101 67.8497C23.6401 67.9802 23.7801 68.1107 23.9401 68.2011C23.9801 68.2212 24.0301 68.2412 24.0701 68.2513C23.9101 68.4119 23.7401 68.5725 23.5801 68.7432C23.5201 68.6829 23.4701 68.6127 23.4101 68.5524V68.5424Z" fill="#D8D9DA"/>
</g>
<g style="mix-blend-mode:multiply">
<path d="M21.48 71.1423C21.54 70.8613 21.56 70.5701 21.46 70.2991C21.35 70.008 21.17 69.7771 20.99 69.5563C20.6 69.0744 20.15 68.6829 19.74 68.2412C19.49 67.9702 19.18 67.7895 18.86 67.7895C18.56 67.7895 18.28 67.92 18.02 68.1208C17.98 68.1509 17.94 68.181 17.9 68.2211C18.31 67.6389 18.76 67.0366 19.25 66.4443C19.29 66.4845 19.33 66.5347 19.37 66.5748C20.02 67.2775 20.64 68.0304 21.34 68.6428C21.77 69.0142 22.21 69.3756 22.61 69.7972C22.22 70.2489 21.83 70.7308 21.45 71.2427C21.45 71.2126 21.47 71.1825 21.47 71.1624L21.48 71.1423Z" fill="#D8D9DA"/>
</g>
</g>
<defs>
<clipPath id="clip0_210_715">
<rect width="135" height="130.5" fill="white"/>
</clipPath>
</defs>
</svg>
