<svg width="135" height="131" viewBox="0 0 135 131" fill="none" xmlns="http://www.w3.org/2000/svg">
<g clip-path="url(#clip0_210_181)">
<path d="M38.33 125.82H95.92C98.5 125.82 100.6 127.92 100.6 130.5H33.66C33.66 127.92 35.76 125.82 38.34 125.82H38.33Z" fill="#96C1FA"/>
<path opacity="0.25" d="M132.4 14.25H132.02C131.098 14.25 130.35 14.9977 130.35 15.92C130.35 16.8423 131.098 17.59 132.02 17.59H132.4C133.322 17.59 134.07 16.8423 134.07 15.92C134.07 14.9977 133.322 14.25 132.4 14.25Z" fill="#96C1FA"/>
<path opacity="0.25" d="M77.33 7.83984H76.95C76.0277 7.83984 75.28 8.58753 75.28 9.50984C75.28 10.4322 76.0277 11.1798 76.95 11.1798H77.33C78.2523 11.1798 79 10.4322 79 9.50984C79 8.58753 78.2523 7.83984 77.33 7.83984Z" fill="#96C1FA"/>
<path opacity="0.25" d="M12.6899 12.6899H9.62994C8.42044 12.6899 7.43994 13.6704 7.43994 14.8799V17.1799C7.43994 18.3894 8.42044 19.3699 9.62994 19.3699H12.6899C13.8994 19.3699 14.8799 18.3894 14.8799 17.1799V14.8799C14.8799 13.6704 13.8994 12.6899 12.6899 12.6899Z" fill="#96C1FA"/>
<path opacity="0.25" d="M8.97 6H2.19C0.980496 6 0 6.9805 0 8.19V13.83C0 15.0395 0.980496 16.02 2.19 16.02H8.97C10.1795 16.02 11.16 15.0395 11.16 13.83V8.19C11.16 6.9805 10.1795 6 8.97 6Z" fill="#96C1FA"/>
<path opacity="0.25" d="M122.32 105.47H125.38C126.589 105.47 127.57 104.489 127.57 103.28V100.98C127.57 99.7702 126.589 98.7897 125.38 98.7897H122.32C121.11 98.7897 120.13 99.7702 120.13 100.98V103.28C120.13 104.489 121.11 105.47 122.32 105.47Z" fill="#96C1FA"/>
<path opacity="0.25" d="M126.03 102.13H132.81C134.02 102.13 135 101.149 135 99.9399V94.2999C135 93.0904 134.02 92.1099 132.81 92.1099H126.03C124.82 92.1099 123.84 93.0904 123.84 94.2999V99.9399C123.84 101.149 124.82 102.13 126.03 102.13Z" fill="#96C1FA"/>
<path opacity="0.25" d="M130.02 21.48H126.96C125.751 21.48 124.77 22.4605 124.77 23.67V25.97C124.77 27.1795 125.751 28.16 126.96 28.16H130.02C131.23 28.16 132.21 27.1795 132.21 25.97V23.67C132.21 22.4605 131.23 21.48 130.02 21.48Z" fill="#96C1FA"/>
<path opacity="0.25" d="M18.09 100.03H15.03C13.8205 100.03 12.84 101.01 12.84 102.22V104.52C12.84 105.729 13.8205 106.71 15.03 106.71H18.09C19.2995 106.71 20.28 105.729 20.28 104.52V102.22C20.28 101.01 19.2995 100.03 18.09 100.03Z" fill="#96C1FA"/>
<path opacity="0.25" d="M5.76997 93.9302H5.38997C4.46766 93.9302 3.71997 94.6779 3.71997 95.6002C3.71997 96.5225 4.46766 97.2702 5.38997 97.2702H5.76997C6.69229 97.2702 7.43997 96.5225 7.43997 95.6002C7.43997 94.6779 6.69229 93.9302 5.76997 93.9302Z" fill="#96C1FA"/>
<path opacity="0.25" d="M129.61 68.6899H129.23C128.308 68.6899 127.56 69.4376 127.56 70.3599C127.56 71.2823 128.308 72.0299 129.23 72.0299H129.61C130.532 72.0299 131.28 71.2823 131.28 70.3599C131.28 69.4376 130.532 68.6899 129.61 68.6899Z" fill="#96C1FA"/>
<path d="M45.67 28.3902V30.4902C52.23 30.0102 59.49 29.7502 67.13 29.7502C74.77 29.7502 82.03 30.0102 88.59 30.4902V28.3902C88.59 27.6902 87.99 27.1102 87.22 27.0602C81.02 26.6402 74.24 26.4102 67.13 26.4102C60.02 26.4102 53.23 26.6402 47.04 27.0602C46.27 27.1102 45.67 27.6902 45.67 28.3902Z" fill="#96C1FA"/>
<path d="M82.4301 36.6401V47.4901C83.1801 47.5301 83.9201 47.5701 84.6601 47.6101V36.7601C83.9201 36.7201 83.1801 36.6801 82.4301 36.6401Z" fill="#9973D1"/>
<path d="M80.0202 32.4704V47.3804C79.2802 47.3504 78.5402 47.3204 77.7902 47.2904V32.3804C78.5402 32.4104 79.2802 32.4304 80.0202 32.4604V32.4704Z" fill="#9973D1"/>
<path d="M75.3801 34.3503V47.2403C74.6401 47.2203 73.9001 47.2003 73.1501 47.1903V34.3003C73.9001 34.3103 74.6401 34.3303 75.3801 34.3503Z" fill="#9973D1"/>
<path d="M68.5001 36.2803V47.1403C69.2501 47.1403 69.9901 47.1403 70.7301 47.1503V36.3003C69.9901 36.2903 69.2501 36.2803 68.5001 36.2803Z" fill="#9973D1"/>
<path d="M66.0901 38.3105V47.1305C65.3401 47.1305 64.6001 47.1305 63.8601 47.1405V38.3205C64.6001 38.3205 65.3401 38.3105 66.0901 38.3105Z" fill="#9973D1"/>
<g style="mix-blend-mode:multiply">
<path d="M82.4301 42.6702V47.4902C83.1801 47.5102 83.9201 47.5802 84.6601 47.6102V42.7402C83.9201 42.7102 83.1801 42.6902 82.4301 42.6602V42.6702Z" fill="#9973D1"/>
<path d="M80.0202 37.7202V47.3902C79.2802 47.3702 78.5402 47.3202 77.7902 47.3002V37.6602C78.5402 37.6802 79.2802 37.6902 80.0202 37.7102V37.7202Z" fill="#9973D1"/>
<path d="M75.3801 39.6504V47.2304C74.6401 47.2104 73.9001 47.1904 73.1501 47.1804V39.6104C73.9001 39.6104 74.6401 39.6304 75.3801 39.6404V39.6504Z" fill="#9973D1"/>
<path d="M68.5001 40.21V47.14C69.2501 47.14 69.9901 47.14 70.7301 47.15V40.22C69.9901 40.22 69.2501 40.21 68.5001 40.21Z" fill="#9973D1"/>
<path d="M66.0901 41.5303V47.1303C65.3401 47.1303 64.6001 47.1303 63.8601 47.1403V41.5403C64.6001 41.5403 65.3401 41.5403 66.0901 41.5403V41.5303Z" fill="#9973D1"/>
</g>
<path opacity="0.4" d="M45.67 28.3902V48.0902C45.67 48.8702 46.4 49.4802 47.26 49.4202C53.4 49.0102 60.1 48.7902 67.13 48.7902C74.16 48.7902 80.86 49.0102 87 49.4202C87.86 49.4802 88.59 48.8602 88.59 48.0902V28.3902C88.59 27.6902 87.99 27.1102 87.22 27.0602C81.02 26.6402 74.24 26.4102 67.13 26.4102C60.02 26.4102 53.23 26.6402 47.04 27.0602C46.27 27.1102 45.67 27.6902 45.67 28.3902Z" fill="#96C1FA"/>
<path d="M47.52 32.8303V33.9103C51.82 33.6303 56.29 33.4403 60.89 33.3603V32.2803C56.29 32.3603 51.82 32.5503 47.52 32.8303Z" fill="#FAFAFF"/>
<path d="M58.25 34.5005C54.58 34.6005 50.99 34.7605 47.52 34.9905V36.0705C50.99 35.8405 54.58 35.6805 58.25 35.5805V34.5005Z" fill="#FAFAFF"/>
<path d="M54.84 36.7803C52.35 36.8803 49.91 37.0003 47.52 37.1603V38.2403C49.9 38.0803 52.35 37.9603 54.84 37.8603V36.7803Z" fill="#FAFAFF"/>
<path d="M56.51 40.9102C53.44 41.0102 50.44 41.1602 47.52 41.3502V42.4302C50.44 42.2402 53.44 42.0902 56.51 41.9902V40.9102Z" fill="#FAFAFF"/>
<path d="M59.51 38.8003C55.4 38.8903 51.39 39.0703 47.53 39.3203V40.4003C51.38 40.1503 55.37 39.9703 59.47 39.8803L59.51 38.8003Z" fill="#FAFAFF"/>
<g opacity="0.6">
<path d="M115.49 2.47021H102.37V14.2602H115.49V2.47021Z" stroke="#96C1FA" stroke-linecap="round" stroke-linejoin="round"/>
<path d="M110.76 6.79004H97.64V18.58H110.76V6.79004Z" stroke="#96C1FA" stroke-linecap="round" stroke-linejoin="round"/>
<path d="M110.76 6.79021L115.49 2.47021" stroke="#96C1FA" stroke-linecap="round" stroke-linejoin="round"/>
<path d="M115.49 14.25L110.76 18.58" stroke="#96C1FA" stroke-linecap="round" stroke-linejoin="round"/>
<path d="M102.37 14.25L97.64 18.58" stroke="#96C1FA" stroke-linecap="round" stroke-linejoin="round"/>
<path d="M97.64 6.79021L102.37 2.47021" stroke="#96C1FA" stroke-linecap="round" stroke-linejoin="round"/>
</g>
<g opacity="0.6">
<path d="M39.32 20.54C45.4835 20.54 50.48 16.0539 50.48 10.52C50.48 4.98611 45.4835 0.5 39.32 0.5C33.1565 0.5 28.16 4.98611 28.16 10.52C28.16 16.0539 33.1565 20.54 39.32 20.54Z" stroke="#96C1FA" stroke-miterlimit="10"/>
<path d="M39.32 20.54C41.5788 20.54 43.41 16.0539 43.41 10.52C43.41 4.98611 41.5788 0.5 39.32 0.5C37.0611 0.5 35.23 4.98611 35.23 10.52C35.23 16.0539 37.0611 20.54 39.32 20.54Z" stroke="#96C1FA" stroke-miterlimit="10"/>
<path d="M39.32 14.1901C45.4835 14.1901 50.48 12.547 50.48 10.5201C50.48 8.49321 45.4835 6.8501 39.32 6.8501C33.1565 6.8501 28.16 8.49321 28.16 10.5201C28.16 12.547 33.1565 14.1901 39.32 14.1901Z" stroke="#96C1FA" stroke-miterlimit="10"/>
</g>
<path d="M27.15 91.7401C27.15 88.5101 45.05 85.8901 67.13 85.8901C89.21 85.8901 107.11 88.5101 107.11 91.7401" stroke="#96C1FA" stroke-linecap="round" stroke-linejoin="round"/>
<path d="M32.54 109.65C32.54 107.34 48.03 105.47 67.13 105.47C86.23 105.47 101.72 107.34 101.72 109.65" stroke="#96C1FA" stroke-linecap="round" stroke-linejoin="round"/>
<path d="M20.64 72.73C20.64 68.58 41.45 65.21 67.13 65.21C92.81 65.21 113.62 68.58 113.62 72.73" stroke="#96C1FA" stroke-linecap="round" stroke-linejoin="round"/>
<path d="M54.55 116.62L54.42 121.51L60.32 122.44L60.7 116.82L54.55 116.62Z" fill="#E7B7B7"/>
<path d="M43.2301 125.33H60.5601C60.5601 125.33 60.9301 122.2 60.6501 121.34C60.6101 121.21 60.5501 121.13 60.4701 121.13C59.8501 121.12 59.6101 121.8 57.0501 121.8C55.9301 121.8 55.2701 121.01 54.7401 120.72C54.6801 120.69 54.6301 120.66 54.5801 120.65C53.5801 120.32 53.8701 121.25 52.9901 122.05C52.8601 122.17 52.7101 122.28 52.5201 122.39C52.4601 122.43 52.3801 122.46 52.3001 122.5C52.2701 122.51 52.2501 122.52 52.2201 122.54C52.2201 122.54 52.1201 122.58 52.0601 122.61C51.9201 122.66 51.7501 122.72 51.5701 122.78C51.3901 122.83 51.1901 122.89 50.9801 122.95C48.2201 123.71 43.2501 124.6 43.2501 125.34L43.2301 125.33Z" fill="#9973D1"/>
<path d="M60.5601 125.33H43.2301V125.83H60.5601V125.33Z" fill="#193B59"/>
<path d="M60.7501 122.93C60.0001 123.02 59.3101 123.34 58.7301 123.89C58.2701 124.32 57.9401 124.84 57.7401 125.34H58.1001C58.2901 124.91 58.5901 124.47 58.9801 124.1C59.3501 123.75 59.9301 123.34 60.7401 123.24C60.7401 123.14 60.7401 123.04 60.7501 122.94V122.93Z" fill="#193B59"/>
<path d="M53.32 123.05C53.61 122.82 53.2 122.5 52.74 122.24C52.67 122.29 52.6 122.34 52.51 122.39C52.45 122.43 52.37 122.46 52.29 122.5C52.26 122.51 52.24 122.52 52.21 122.54C52.21 122.54 52.11 122.58 52.05 122.61C51.91 122.66 51.74 122.72 51.56 122.78C51.38 122.83 51.18 122.89 50.97 122.95C49.96 123.23 48.66 123.52 47.42 123.82C47.42 123.82 52.78 123.5 53.33 123.06L53.32 123.05Z" fill="#193B59"/>
<path d="M73.6101 115.89L75.3901 122.44H81.0501L79.3701 115.7L73.6101 115.89Z" fill="#E7B7B7"/>
<path d="M81.7801 125.33H73.5101C73.5101 124.06 74.5201 122.81 74.5901 122.73C74.6401 122.15 74.7201 121.63 74.8101 121.35C74.8501 121.22 74.9101 121.14 74.9901 121.14C75.4501 121.13 75.3601 121.61 76.2801 121.86C76.4401 121.73 76.8901 121.44 77.7101 121.44C78.6201 121.44 79.0701 121.8 79.1801 121.9C80.3801 121.66 80.4901 121.13 80.9701 121.14C81.0501 121.14 81.1101 121.22 81.1501 121.35C81.7901 123.36 81.7901 125.33 81.7901 125.33H81.7801Z" fill="#9973D1"/>
<path d="M81.7801 125.33H73.5101V125.83H81.7801V125.33Z" fill="#193B59"/>
<path d="M76.2101 122.99C77.5901 122.67 78.9701 123.15 78.9701 123.15C78.9701 123.15 78.3401 123.97 76.7101 123.97C76.2101 123.97 76.2101 122.98 76.2101 122.98V122.99Z" fill="#193B59"/>
<path d="M81.5701 123.19C80.9301 123.43 80.6801 124.54 80.5901 125.33H80.9301C81.0201 124.56 81.2401 123.74 81.6201 123.52C81.6001 123.42 81.5901 123.31 81.5701 123.2V123.19Z" fill="#193B59"/>
<path d="M53.7201 95.9498C53.5301 100.22 53.3301 107.65 53.3301 117.04C55.9301 117.84 59.6301 117.8 62.8501 117.47L64.2401 98.2898C64.2401 96.6398 64.8401 94.3098 64.9401 86.3798C66.4501 93.2898 67.1901 97.7698 67.5701 100.18C67.9301 102.48 69.8101 109.11 71.7901 117.09C75.0701 117.57 80.0001 116.48 80.8401 115.69L77.4001 99.3098C77.4001 99.3098 75.3601 86.1898 76.1201 83.9698C76.8201 81.9198 77.1401 75.8298 74.5101 72.7998H56.0601C56.0601 72.7998 53.8901 92.2798 53.7201 95.9698V95.9498Z" fill="#193B59"/>
<mask id="mask0_210_181" style="mask-type:luminance" maskUnits="userSpaceOnUse" x="53" y="72" width="28" height="46">
<path d="M56.0501 72.79H74.5001C77.1301 75.81 76.8201 81.91 76.1101 83.96C75.3501 86.18 77.3901 99.3 77.3901 99.3L80.8301 115.68C79.9901 116.47 75.0601 117.57 71.7801 117.08C69.8001 109.1 67.9201 102.48 67.5601 100.17C67.1801 97.76 66.4401 93.28 64.9301 86.37C64.8201 94.31 64.2301 96.64 64.2301 98.28L62.8401 117.46C59.6201 117.79 55.9301 117.83 53.3201 117.03C53.3201 107.65 53.5301 100.21 53.7101 95.94C53.8701 92.25 56.0501 72.77 56.0501 72.77V72.79Z" fill="white"/>
</mask>
<g mask="url(#mask0_210_181)">
<g style="mix-blend-mode:multiply">
<path d="M55.7101 120.58C54.4901 108.62 58.4601 69.6001 58.4601 69.6001L63.4101 70.9301C59.0101 90.1801 60.4701 121.13 60.4701 121.13L75.6201 119.07C68.1701 98.5201 66.3401 70.9301 66.3401 70.9301L70.7301 71.6001C70.9801 88.6401 79.7701 120.13 79.7701 120.13" stroke="#193B59" stroke-linecap="round" stroke-linejoin="round"/>
</g>
<g style="mix-blend-mode:multiply">
<path d="M64.9401 86.3701C64.3901 82.0101 64.3901 79.3701 64.3901 79.3701" stroke="#193B59" stroke-linecap="round" stroke-linejoin="round"/>
</g>
</g>
<path d="M71.96 58.9701C65.79 53.4801 62.91 46.0501 62.91 46.0501C60.49 44.7801 58.96 39.7901 61.19 37.0601C62.14 35.9001 63.41 35.3001 64.81 35.0501C68.01 34.4701 70.74 35.0701 72.49 36.8901C73.48 37.9201 73.7 38.7701 74.22 40.7001C76.94 47.8501 82.84 50.6101 82.84 50.6101C80.9 50.0801 79.32 49.1701 78.07 48.1401C78.84 49.0301 79.77 49.9501 80.9 50.8901C85.78 54.9501 78.14 64.4601 71.97 58.9701H71.96Z" fill="#193B59"/>
<path d="M56.2101 56.1305C56.2101 56.1305 50.7901 58.4405 49.1601 58.2605C46.8301 58.0005 37.4401 53.1805 37.4401 53.1805L39.2701 50.2505C39.2701 50.2505 47.8301 53.5605 48.6901 53.4605C49.1101 53.4105 52.1801 52.3105 55.3901 51.3205L56.2001 56.1205L56.2101 56.1305Z" fill="#E7B7B7"/>
<path d="M39.2701 50.2502C39.2701 50.2502 35.0201 47.6902 34.1101 47.5002C33.2101 47.3102 30.0401 46.6302 29.7301 46.6402C29.3101 46.6602 29.1901 47.1802 29.4501 47.3702C29.6801 47.5402 32.7001 48.4202 32.7001 48.4202C32.7001 48.4202 28.9401 47.6602 28.3601 47.7102C27.9501 47.7402 27.7301 48.3202 28.1201 48.5202C28.5101 48.7202 32.1901 49.5702 32.1901 49.5702C32.1901 49.5702 28.5301 49.0202 28.3601 49.0202C28.0001 49.0302 27.8901 49.5202 28.1901 49.6702C28.4401 49.7902 31.7901 50.6102 31.7901 50.6102C31.7901 50.6102 30.5901 50.6902 30.4201 50.7202C30.2101 50.7502 29.0901 50.9602 29.0101 51.0002C28.8001 51.1202 28.9301 51.4402 29.2501 51.4702C29.4501 51.4902 30.3901 51.3902 30.5301 51.3602C30.6001 51.3502 32.3501 51.4602 32.5601 51.5902C34.5801 52.8102 37.4401 53.1702 37.4401 53.1702L39.2701 50.2402V50.2502Z" fill="#E7B7B7"/>
<path d="M35.59 51.4301C34.67 50.9601 33.54 49.6001 33.54 49.6001L31.83 49.4301C31.5 49.2001 31.48 48.7701 32.01 48.6201C32.54 48.4701 33.75 48.4901 33.75 48.4901L35.39 48.9101" stroke="#7A1F0C" strokeWidth="0.5" stroke-linecap="round" stroke-linejoin="round"/>
<path d="M83.67 57.7204C85.44 59.3404 81.69 64.8104 79.59 63.2004C77.48 61.5904 81.73 55.9404 83.67 57.7204Z" fill="#193B59"/>
<path d="M92.08 71.6103C92.23 71.8103 93.24 72.4803 92.95 73.7303C92.81 74.3603 93.26 75.6303 93.28 75.8303C93.34 76.4803 93.78 77.3103 93.85 77.5303C93.88 77.6303 94.48 77.6603 94.65 77.0303C94.72 76.7803 94.65 76.4603 94.43 75.9203C94.31 75.6303 94.29 74.8203 94.51 74.7103C94.8 74.5703 95.05 74.6003 95.34 74.9003C96.08 75.6603 97.34 78.0503 97.65 78.2103C97.9 78.3403 98.57 78.2103 98.41 77.6203C98.26 77.0303 98.88 78.0303 99.18 78.2903C99.75 78.7903 100.23 78.3203 100.11 78.0003C99.83 77.2303 99.95 77.2003 100.28 77.4203C100.69 77.7003 101.2 77.2703 101.01 76.9103C100.94 76.7703 99.77 74.8003 100.24 75.1103C100.69 75.4003 101.23 74.9503 100.84 74.4803C100.49 74.0703 99.5 72.7003 99.1 72.2803C98.58 71.7203 98.13 71.0003 94.97 68.8403L92.09 71.6203L92.08 71.6103Z" fill="#E7B7B7"/>
<path d="M99.95 77.3106C99.29 75.9206 97.77 73.8506 97.77 73.8506" stroke="#7A1F0C" strokeWidth="0.5" stroke-linecap="round" stroke-linejoin="round"/>
<path d="M100.11 75.0505C99.44 74.0305 98.67 73.2104 98.67 73.2104" stroke="#7A1F0C" strokeWidth="0.5" stroke-linecap="round" stroke-linejoin="round"/>
<path d="M98.39 77.4204C97.99 76.0304 96.37 74.1704 96.37 74.1704" stroke="#7A1F0C" strokeWidth="0.5" stroke-linecap="round" stroke-linejoin="round"/>
<path d="M94.95 68.8305L92.07 71.6105L82.31 64.2004L77.13 60.6404L80.78 55.7104L82.32 56.9204C88.54 62.3004 94.95 68.8404 94.95 68.8404V68.8305Z" fill="#E7B7B7"/>
<path d="M55.65 74.2104C56.72 67.5904 56.87 60.9004 56.87 60.9004C55.22 59.3004 56.26 57.0504 56.26 57.0504L51.82 58.2704C50.84 57.0804 50.21 54.4204 50.32 52.7504C58.84 49.4004 61.86 49.4004 61.86 49.4004C61.86 49.4004 67.77 49.6604 73.69 50.8204C75.27 51.1304 79.37 54.0704 83.66 57.7204C81.56 56.9004 77.56 61.7604 79.58 63.2004L74.34 59.2104C73.49 62.4104 72.95 68.8104 74.55 72.8004C70.18 75.1204 60.28 75.0104 55.64 74.2204L55.65 74.2104Z" fill="#9973D1"/>
<path d="M64.49 61.6004C67.91 62.9804 70.42 61.1904 70.42 61.1904" stroke="#193B59" stroke-linecap="round" stroke-linejoin="round"/>
<path d="M74.3601 59.2406C73.3601 58.4406 72.3101 57.3906 72.3101 57.3906" stroke="#193B59" stroke-linecap="round" stroke-linejoin="round"/>
<path d="M56.89 60.9204C57.2 61.2104 58 61.6804 59.37 61.6304" stroke="#193B59" stroke-linecap="round" stroke-linejoin="round"/>
<path d="M56.27 57.0506C56.92 55.0706 58.46 52.8706 58.46 52.8706" stroke="#193B59" stroke-linecap="round" stroke-linejoin="round"/>
<path d="M70.74 69.6006C67.13 73.6106 57.37 71.9006 57.37 71.9006" stroke="#193B59" stroke-linecap="round" stroke-linejoin="round"/>
<path d="M71.9601 50.5105C68.6901 49.9605 65.6001 49.6605 63.7301 49.5205C61.9401 52.4805 63.3901 55.7005 63.3901 55.7005C63.3901 55.7005 70.4801 53.5605 71.9601 50.5105Z" fill="#FAFAFF"/>
<path d="M70.4801 50.7703L70.4301 50.2603C67.9801 49.9003 65.7401 49.6803 64.1601 49.5503L64.0201 50.7603C63.6701 52.5503 64.0201 54.2503 64.0201 54.2503C64.0201 54.2503 70.2401 52.3003 70.4801 50.7603V50.7703Z" fill="#E7B7B7"/>
<path d="M64.71 43.2203C64.8 44.0803 64.02 50.7703 64.02 50.7703C63.78 53.9903 70.29 52.1703 70.48 50.7703L69.65 42.3203L64.72 43.2103L64.71 43.2203Z" fill="#E7B7B7"/>
<path d="M64.2101 49.0904C67.2401 48.1104 66.9401 46.2704 66.9401 46.2704L64.5201 46.1904C64.4201 47.1804 64.3101 48.2404 64.2201 49.0904H64.2101Z" fill="#7A1F0C"/>
<path d="M61.2901 39.3103C60.3301 40.6703 60.9801 41.4103 60.9801 42.7703C60.9801 44.2303 60.3601 46.2903 61.6601 47.3703C63.0101 48.4903 66.1301 48.5403 68.2601 46.1203C70.4201 43.6803 69.9201 39.6003 67.5801 38.5503C65.5801 37.6503 62.6101 37.4103 61.2901 39.3003V39.3103Z" fill="#E7B7B7"/>
<path d="M62.62 44.8706C61.88 44.8706 61.73 44.7407 61.61 44.5607C61.54 44.4507 61.61 44.2406 61.76 43.7706C61.87 43.4506 61.99 43.0807 62.05 42.7407C62.05 42.7007 62.1 42.6706 62.15 42.6806C62.2 42.6806 62.23 42.7306 62.22 42.7706C62.15 43.1206 62.02 43.5006 61.92 43.8206C61.83 44.0806 61.72 44.4106 61.75 44.4806C61.83 44.6006 61.91 44.7206 62.61 44.7206C62.66 44.7206 62.7 44.7506 62.7 44.8006C62.7 44.8506 62.66 44.8806 62.61 44.8806L62.62 44.8706Z" fill="#7A1F0C"/>
<path d="M67.8001 42.9905C68.1501 43.5705 67.9601 44.2705 67.3901 44.5405C66.8201 44.8105 66.0701 44.5605 65.7201 43.9805C65.3701 43.4005 65.5601 42.7005 66.1301 42.4305C66.7001 42.1605 67.4501 42.4105 67.8001 42.9905Z" fill="#E3A2A2"/>
<path d="M64.9 44.6401C64.27 45.0401 63.34 45.4001 62.75 45.2801C63.08 45.6901 63.48 46.2901 64.46 45.9801C65.06 45.7901 65.13 45.2301 64.9 44.6401Z" fill="#7A1F0C"/>
<path d="M65 45.0304C64.98 44.9004 64.95 44.7704 64.89 44.6304C64.81 44.6804 64.73 44.7304 64.64 44.7804C64.47 44.8804 64.28 44.9704 64.09 45.0404C63.61 45.2304 63.11 45.3404 62.74 45.2704C62.83 45.3904 62.93 45.5204 63.05 45.6404C64.04 45.5904 64.64 45.3004 65 45.0304Z" fill="#FAFAFF"/>
<path d="M64.07 42.1003C64.07 42.3803 63.92 42.6103 63.73 42.6103C63.54 42.6103 63.4 42.3803 63.4 42.1003C63.4 41.8203 63.55 41.5903 63.73 41.5903C63.91 41.5903 64.07 41.8203 64.07 42.1003Z" fill="#193B59"/>
<path d="M63.14 41.1705C63.23 41.3505 63.57 41.0705 64.03 41.0405C64.41 41.0205 64.84 41.1805 65 41.3005C65.03 41.0505 64.65 40.7405 64.13 40.7105C63.36 40.6605 63.14 41.1705 63.14 41.1705Z" fill="#193B59"/>
<path d="M63.73 41.5905C63.43 41.5505 63.13 41.5905 63.13 41.5905L63.73 41.7505V41.5805V41.5905Z" fill="#193B59"/>
<path d="M61.57 42.3204C61.57 42.5504 61.45 42.7404 61.29 42.7404C61.13 42.7404 61.01 42.5504 61.01 42.3204C61.01 42.0904 61.13 41.9004 61.29 41.9004C61.45 41.9004 61.57 42.0904 61.57 42.3204Z" fill="#193B59"/>
<path d="M61.7 41.4703C61.65 41.7003 61.3 41.4403 61.03 41.5303C60.78 41.6203 60.59 41.7803 60.5 41.9203C60.42 41.7603 60.56 41.4403 60.89 41.3203C61.39 41.1403 61.7 41.4703 61.7 41.4703Z" fill="#193B59"/>
<path d="M61.2901 41.9001C60.9901 41.8601 60.8101 41.9001 60.8101 41.9001L61.2901 42.0301V41.8901V41.9001Z" fill="#193B59"/>
<path d="M68.04 37.3101C65.94 36.4701 63.05 36.1001 61.56 37.1801C59.86 38.4201 60.32 40.6001 60.32 40.6001C61.28 41.1101 63.31 41.2901 65.89 39.2901C65.89 40.6101 67.51 42.4701 68.29 42.8901C69.01 43.2701 69.05 42.1401 69.64 41.6901C69.82 41.6201 70.13 38.1501 68.03 37.3101H68.04Z" fill="#193B59"/>
<path d="M66.3401 40.4204H62.2401C61.3178 40.4204 60.5701 41.1681 60.5701 42.0904C60.5701 43.0127 61.3178 43.7604 62.2401 43.7604H66.3401C67.2624 43.7604 68.0101 43.0127 68.0101 42.0904C68.0101 41.1681 67.2624 40.4204 66.3401 40.4204Z" fill="#FAFAFF"/>
<path d="M64.8501 40.4204H60.7501C59.8278 40.4204 59.0801 41.1681 59.0801 42.0904C59.0801 43.0127 59.8278 43.7604 60.7501 43.7604H64.8501C65.7724 43.7604 66.5201 43.0127 66.5201 42.0904C66.5201 41.1681 65.7724 40.4204 64.8501 40.4204Z" fill="#BF504C"/>
<path d="M64.81 43.4205C65.5501 43.4205 66.15 42.8228 66.15 42.0855C66.15 41.3482 65.5501 40.7505 64.81 40.7505H60.8C60.06 40.7505 59.46 41.3482 59.46 42.0855C59.46 42.8228 60.06 43.4205 60.8 43.4205H64.81Z" fill="#FAFAFF"/>
<path d="M67.2601 41.27H71.4601C71.7601 41.27 72.0101 41.52 72.0101 41.82C72.0101 42.12 71.7601 42.37 71.4601 42.37H67.2601V41.27Z" fill="#BF504C"/>
<mask id="mask1_210_181" style="mask-type:luminance" maskUnits="userSpaceOnUse" x="59" y="40" width="8" height="4">
<path d="M59.4501 42.0905C59.4501 41.3505 60.0501 40.7505 60.7901 40.7505H64.8101C65.5501 40.7505 66.1501 41.3505 66.1501 42.0905C66.1501 42.8305 65.5501 43.4305 64.8101 43.4305H60.7901C60.0501 43.4305 59.4501 42.8305 59.4501 42.0905Z" fill="white"/>
</mask>
<g mask="url(#mask1_210_181)">
<g opacity="0.35">
<path d="M59.9801 44.5807L59.4501 44.3107L63.0701 38.6807L63.6001 38.9607L59.9801 44.5807Z" fill="#96C1FA"/>
<path d="M62.2301 45.8404L61.2401 45.3204L64.8501 39.6904L65.8501 40.2104L62.2301 45.8404Z" fill="#96C1FA"/>
</g>
</g>
<path d="M63.3601 42.2604H62.2401C62.1401 42.2604 62.05 42.1904 62.05 42.0904C62.05 42.0004 62.1301 41.9204 62.2401 41.9204H63.3601C63.4601 41.9204 63.55 41.9904 63.55 42.0904C63.55 42.1804 63.4701 42.2604 63.3601 42.2604Z" fill="#BF504C"/>
<path d="M68.8801 41.3003C68.8801 38.8003 66.4901 34.6103 61.7401 36.4803C61.7401 36.4803 62.8001 35.1203 64.9101 35.0103C69.3801 35.0103 70.8401 38.0303 70.8401 41.3003H68.8901H68.8801Z" fill="#BF504C"/>
<path d="M69.6501 41.6901C70.2501 40.9901 71.4501 41.2001 71.7401 42.0801C71.9301 42.6801 71.7401 44.3801 69.8401 44.2701C68.0701 44.1601 69.2201 42.2101 69.6601 41.7001L69.6501 41.6901Z" fill="#E7B7B7"/>
<path d="M69.9101 43.3101C69.9101 43.3101 69.8201 43.2801 69.8101 43.2401C69.6701 42.7101 69.8301 42.1601 70.2001 41.9301C70.4401 41.7801 70.7401 41.7901 71.0301 41.9701C71.0801 42.0001 71.0901 42.0601 71.0601 42.1001C71.0301 42.1401 70.9601 42.1501 70.9201 42.1201C70.7001 41.9901 70.5001 41.9801 70.3301 42.0801C70.0301 42.2701 69.9001 42.7401 70.0201 43.1901C70.0301 43.2401 70.0001 43.2901 69.9401 43.3001H69.9201L69.9101 43.3101Z" fill="#7A1F0C"/>
<path d="M107.11 91.7402C107.11 94.9702 89.21 97.5902 67.13 97.5902C45.05 97.5902 27.15 94.9702 27.15 91.7402" stroke="#96C1FA" stroke-linecap="round" stroke-linejoin="round"/>
<path d="M113.62 72.73C113.62 76.88 92.81 80.25 67.13 80.25C41.45 80.25 20.64 76.88 20.64 72.73" stroke="#96C1FA" stroke-linecap="round" stroke-linejoin="round"/>
<path d="M101.72 109.65C101.72 111.96 86.23 113.83 67.13 113.83C48.03 113.83 32.54 111.96 32.54 109.65" stroke="#96C1FA" stroke-linecap="round" stroke-linejoin="round"/>
<path opacity="0.4" d="M25.84 31.36V50.99C25.84 51.61 25.37 52.14 24.7 52.29C18.06 53.74 14.13 55.54 14.13 57.49V35.11C14.13 33.23 17.78 31.49 23.98 30.07C24.92 29.85 25.84 30.49 25.84 31.37V31.36Z" fill="#96C1FA"/>
<path d="M36.66 44.6703L35.72 44.5103L35.75 44.0103L36.67 44.1703L36.66 44.6703Z" fill="#96C1FA"/>
<path d="M35.27 44.44L32.91 44.04L33 43.54L35.31 43.94L35.27 44.44Z" fill="#96C1FA"/>
<path d="M36.6399 45.7402L33.7 45.2702L33.7799 44.7202L36.65 45.1902L36.6399 45.7402Z" fill="#96C1FA"/>
<path d="M36.62 46.91L34.86 46.64L34.91 46.04L36.63 46.31L36.62 46.91Z" fill="#96C1FA"/>
<path d="M34.31 46.5602L32.5 46.2802L32.61 45.6802L34.37 45.9602L34.31 46.5602Z" fill="#96C1FA"/>
<path d="M29.11 55.4001V56.6501C25.88 56.0601 22.72 55.2401 19.63 54.1901V52.8901C22.7 53.9601 25.87 54.8001 29.11 55.4001Z" fill="#9973D1"/>
<path d="M19.64 58.0801V59.3701C23.08 60.4201 26.6 61.2401 30.19 61.7901V60.5501C26.6 59.9801 23.07 59.1601 19.64 58.0801Z" fill="#9973D1"/>
<path d="M24.84 56.9802C23.08 56.5502 21.35 56.0502 19.64 55.4902V56.7902C21.35 57.3402 23.09 57.8302 24.84 58.2502V56.9802Z" fill="#9973D1"/>
<path d="M24.06 45.9801L22.61 45.9501C22.64 44.4401 21.48 43.1901 20.04 43.1601L20.07 41.6401C22.32 41.6801 24.11 43.6301 24.07 45.9801H24.06Z" fill="#9973D1"/>
<g style="mix-blend-mode:multiply">
<path d="M24.0601 45.98C24.0401 47.16 23.5701 48.22 22.8201 48.98L21.8101 47.88C22.2901 47.39 22.6001 46.71 22.6101 45.96L24.0601 45.99V45.98Z" fill="#193B59"/>
</g>
<path opacity="0.6" d="M39.32 43.6801V63.3701C39.32 64.1701 38.54 64.7901 37.65 64.7001C23.46 63.1401 14.13 60.4901 14.13 57.4801V35.1001C14.13 38.1401 23.63 40.8101 38.01 42.3601C38.76 42.4401 39.32 43.0101 39.32 43.6901V43.6801Z" fill="#96C1FA"/>
<path d="M22.81 48.9698C22.06 49.7298 21.03 50.1898 19.91 50.1698C17.66 50.1298 15.87 48.1898 15.91 45.8298C15.95 43.4698 17.8 41.5998 20.05 41.6398L20.02 43.1598C18.58 43.1298 17.38 44.3398 17.36 45.8598C17.33 47.3698 18.49 48.6198 19.93 48.6498C20.65 48.6598 21.31 48.3698 21.79 47.8798L22.8 48.9798L22.81 48.9698Z" fill="#FAFAFF"/>
<path d="M33.68 58.5597V59.7897C30.69 59.4597 27.74 58.9397 24.85 58.2397V56.9697C24.97 56.9997 25.08 57.0297 25.2 57.0597C27.98 57.7197 30.81 58.2197 33.68 58.5497V58.5597Z" fill="#FAFAFF"/>
<path d="M33.68 56.0999V57.3299C32.15 57.1499 30.63 56.9199 29.12 56.6399V55.3999C29.21 55.4199 29.3 55.4299 29.39 55.4499C30.81 55.7099 32.24 55.9299 33.68 56.0999Z" fill="#FAFAFF"/>
<path d="M33.6799 61.0198V62.2498C32.5099 62.1298 31.3499 61.9698 30.1899 61.7898V60.5498C30.2699 60.5598 30.3499 60.5798 30.4299 60.5898C31.5099 60.7498 32.5899 60.8998 33.6799 61.0198Z" fill="#FAFAFF"/>
<path opacity="0.4" d="M108.42 31.36V50.99C108.42 51.61 108.89 52.14 109.56 52.29C116.2 53.74 120.13 55.54 120.13 57.49V35.11C120.13 33.23 116.48 31.49 110.28 30.07C109.34 29.85 108.42 30.49 108.42 31.37V31.36Z" fill="#96C1FA"/>
<path opacity="0.6" d="M94.9301 43.6801V63.3701C94.9301 64.1701 95.7101 64.7901 96.6001 64.7001C110.79 63.1401 120.12 60.4901 120.12 57.4801V35.1001C120.12 38.1401 110.62 40.8101 96.2401 42.3601C95.4901 42.4401 94.9301 43.0101 94.9301 43.6901V43.6801Z" fill="#96C1FA"/>
<path d="M96.79 43.9801C103.96 43.2001 109.96 42.1201 114.16 40.8701C115.47 40.4801 116.95 39.9901 118.26 39.3501V57.4901C118.14 58.1601 114.13 61.0601 96.79 63.0001V43.9801Z" fill="#FAFAFF"/>
<path opacity="0.25" d="M108.42 42.2601V50.9901C108.42 51.6101 108.89 52.1401 109.56 52.2901C113.5 53.1501 116.49 54.1401 118.27 55.2001V39.3501C116.95 39.9901 115.48 40.4801 114.17 40.8701C112.52 41.3601 110.59 41.8201 108.42 42.2501V42.2601Z" fill="#96C1FA"/>
<path d="M98.65 45.4502C105.22 44.6702 110.76 43.6402 114.75 42.4602C115.34 42.2802 115.9 42.1102 116.41 41.9302V56.8702C115.43 57.4902 111.38 59.5102 98.66 61.0902V45.4502H98.65Z" stroke="#96C1FA" stroke-linecap="round" stroke-linejoin="round"/>
<path d="M98.65 59.1404L105.49 54.4404C105.87 54.1804 106.36 54.1004 106.82 54.2204L109.63 54.9804C110.14 55.1204 110.69 55.0004 111.07 54.6804L112.29 53.6604C112.72 53.3004 113.33 53.2004 113.87 53.4004L116.4 54.3404" stroke="#96C1FA" stroke-linecap="round" stroke-linejoin="round"/>
<path d="M108.8 49.9801C108.8 50.7201 108.3 51.3201 107.68 51.3201C107.06 51.3201 106.56 50.7201 106.56 49.9801C106.56 49.2401 107.06 48.6401 107.68 48.6401C108.3 48.6401 108.8 49.2401 108.8 49.9801Z" stroke="#96C1FA" stroke-linecap="round" stroke-linejoin="round"/>
</g>
<defs>
<clipPath id="clip0_210_181">
<rect width="135" height="130.5" fill="white"/>
</clipPath>
</defs>
</svg>
