<svg width="135" height="131" viewBox="0 0 135 131" fill="none" xmlns="http://www.w3.org/2000/svg">
<path d="M74.4451 64.0678L45.7356 80.1585L45.6658 42.793L21.3173 56.8683L11.6134 86.8093L3.38185 91.568L1.27197 108.315L74.4876 66.6744L74.4451 64.0663V64.0678ZM14.6841 86.6513L22.7062 59.145L43.3784 47.5334L43.43 70.0347L14.6856 86.6513H14.6841Z" fill="#873A3A"/>
<path d="M36.4947 128.681L3.79018 105.073L47.1291 80.5898L80.9037 103.003L36.4947 128.681Z" fill="#662D2D"/>
<path d="M59.7078 114.901C59.7503 114.886 59.7943 114.867 59.8368 114.854C60.0175 114.793 60.1951 114.743 60.3681 114.705C60.4091 114.696 60.4485 114.691 60.4895 114.683C60.6231 114.658 60.7567 114.636 60.8857 114.623C60.9525 114.615 61.0178 114.612 61.083 114.607C61.1862 114.601 61.2864 114.6 61.3866 114.601C61.4701 114.603 61.5505 114.607 61.6325 114.615C61.7114 114.623 61.7904 114.632 61.8678 114.644C61.9998 114.665 62.1289 114.694 62.2533 114.731C62.311 114.747 62.3702 114.761 62.4279 114.781C62.6055 114.843 62.7785 114.918 62.9394 115.01L58.3812 112.358C58.2203 112.264 58.0472 112.191 57.8681 112.127C57.8514 112.121 57.8362 112.11 57.818 112.104C57.7786 112.091 57.7346 112.088 57.6951 112.077C57.5691 112.04 57.4416 112.012 57.308 111.99C57.2731 111.984 57.2428 111.972 57.2078 111.967C57.1638 111.961 57.1168 111.964 57.0727 111.96C56.9923 111.952 56.9103 111.948 56.8268 111.946C56.7828 111.946 56.7418 111.939 56.6978 111.94C56.6417 111.94 56.581 111.949 56.5233 111.952C56.458 111.957 56.3927 111.96 56.3259 111.967C56.2925 111.971 56.2592 111.971 56.2258 111.975C56.1286 111.987 56.0284 112.009 55.9298 112.028C55.8888 112.036 55.8493 112.04 55.8083 112.05C55.7962 112.053 55.7856 112.053 55.775 112.056C55.6292 112.089 55.482 112.13 55.3332 112.179C55.315 112.185 55.2953 112.192 55.2771 112.199C55.2346 112.212 55.1906 112.23 55.1465 112.246C55.0615 112.276 54.9765 112.303 54.89 112.34C54.8308 112.364 54.7716 112.395 54.7124 112.42C54.6593 112.443 54.6062 112.468 54.553 112.492C54.5151 112.51 54.4787 112.524 54.4407 112.542C54.2904 112.616 54.1387 112.697 53.9854 112.785L58.5436 115.437C58.7348 115.326 58.9246 115.231 59.1113 115.142C59.1644 115.117 59.2175 115.094 59.2707 115.071C59.4179 115.006 59.5621 114.948 59.7048 114.896L59.7078 114.901Z" fill="#292929"/>
<path d="M53.656 129.672C53.5726 129.593 53.4891 129.516 53.4132 129.426C53.3676 129.373 53.3282 129.313 53.2857 129.257C53.2204 129.171 53.1551 129.084 53.0975 128.99C53.0565 128.924 53.0216 128.853 52.9836 128.783C52.932 128.686 52.8804 128.588 52.8349 128.484C52.8045 128.414 52.7772 128.339 52.7499 128.265C52.6998 128.131 52.6542 127.991 52.6148 127.845C52.5905 127.759 52.5677 127.672 52.5465 127.582C52.5267 127.493 52.51 127.4 52.4933 127.306C52.4736 127.187 52.4554 127.067 52.4402 126.944C52.4311 126.866 52.4235 126.789 52.4174 126.71C52.4023 126.517 52.3901 126.322 52.3886 126.117C52.3886 125.883 52.3992 125.646 52.4174 125.407C52.4205 125.36 52.4281 125.312 52.4311 125.265C52.4478 125.084 52.469 124.901 52.4964 124.719C52.507 124.652 52.5161 124.584 52.5282 124.517C52.5601 124.327 52.5981 124.135 52.6406 123.944C52.6497 123.901 52.6573 123.86 52.6679 123.818C52.7225 123.584 52.7863 123.348 52.8561 123.114C52.8789 123.035 52.9077 122.957 52.932 122.878C52.9836 122.717 53.0352 122.556 53.0944 122.395C53.1445 122.258 53.1992 122.122 53.2538 121.985C53.3009 121.868 53.3449 121.751 53.395 121.634C53.524 121.331 53.6636 121.03 53.8139 120.735C53.8458 120.672 53.8822 120.611 53.9156 120.547C54.0294 120.33 54.1494 120.115 54.2738 119.904C54.3285 119.81 54.3877 119.719 54.4438 119.626C54.5562 119.444 54.673 119.264 54.7945 119.088C54.8567 118.997 54.9189 118.906 54.9827 118.816C55.1163 118.63 55.2529 118.45 55.394 118.272C55.4487 118.203 55.5003 118.132 55.5564 118.064C55.7538 117.823 55.9572 117.589 56.1666 117.367C56.2 117.332 56.2349 117.301 56.2683 117.266C56.4535 117.074 56.6417 116.89 56.8345 116.714C56.9256 116.63 57.0182 116.551 57.1123 116.471C57.211 116.387 57.3096 116.304 57.4098 116.223C57.5282 116.129 57.6496 116.039 57.7695 115.951C57.8378 115.902 57.9046 115.851 57.9729 115.805C58.1627 115.676 58.3539 115.551 58.5482 115.439L53.99 112.787C53.99 112.787 53.9809 112.791 53.9763 112.794C53.8109 112.89 53.6469 112.993 53.4845 113.101C53.4602 113.116 53.4375 113.136 53.4147 113.151C53.3464 113.198 53.2781 113.249 53.2113 113.299C53.1278 113.36 53.0413 113.417 52.9593 113.481C52.9229 113.509 52.888 113.542 52.8516 113.571C52.7514 113.65 52.6527 113.733 52.5541 113.817C52.4903 113.872 52.4235 113.922 52.3613 113.978C52.3324 114.004 52.3051 114.034 52.2763 114.06C52.0835 114.235 51.8953 114.419 51.7101 114.61C51.6828 114.639 51.6524 114.665 51.6236 114.694C51.6175 114.7 51.613 114.706 51.6069 114.714C51.3974 114.936 51.194 115.17 50.9967 115.41C50.9405 115.478 50.8889 115.55 50.8343 115.618C50.6946 115.796 50.5565 115.977 50.4244 116.162C50.3607 116.252 50.2985 116.343 50.2347 116.434C50.1148 116.611 49.9979 116.79 49.8856 116.972C49.8279 117.065 49.7702 117.156 49.7156 117.25C49.5911 117.462 49.4712 117.676 49.3574 117.893C49.33 117.945 49.2982 117.995 49.2708 118.047C49.2648 118.057 49.2602 118.07 49.2541 118.082C49.1039 118.378 48.9642 118.678 48.8352 118.98C48.8246 119.003 48.8124 119.026 48.8033 119.05C48.7639 119.143 48.732 119.237 48.694 119.331C48.6394 119.468 48.5848 119.605 48.5347 119.741C48.524 119.773 48.5089 119.804 48.4982 119.836C48.4527 119.966 48.4132 120.097 48.3722 120.226C48.348 120.304 48.3206 120.381 48.2979 120.459C48.2933 120.476 48.2857 120.492 48.2812 120.509C48.2205 120.714 48.1658 120.921 48.1172 121.126C48.1142 121.138 48.1127 121.15 48.1097 121.163C48.099 121.205 48.0914 121.249 48.0823 121.292C48.052 121.43 48.0201 121.568 47.9958 121.707C47.9867 121.76 47.9806 121.811 47.9715 121.863C47.9609 121.93 47.9503 121.998 47.9396 122.065C47.9305 122.131 47.9169 122.198 47.9093 122.263C47.8941 122.38 47.885 122.495 47.8744 122.611C47.8698 122.658 47.8638 122.707 47.8607 122.754C47.8607 122.772 47.8562 122.79 47.8546 122.809C47.841 122.992 47.8334 123.175 47.8319 123.356C47.8319 123.392 47.8319 123.427 47.8319 123.464C47.8319 123.616 47.8364 123.764 47.8455 123.91C47.8486 123.961 47.8562 124.008 47.8607 124.058C47.8668 124.137 47.8759 124.214 47.8835 124.29C47.8911 124.35 47.8926 124.413 47.9017 124.473C47.9108 124.535 47.926 124.593 47.9366 124.654C47.9533 124.748 47.97 124.841 47.9897 124.93C47.9988 124.973 48.0049 125.02 48.0155 125.061C48.0277 125.108 48.0459 125.148 48.058 125.193C48.0975 125.339 48.143 125.479 48.1931 125.613C48.2098 125.655 48.2189 125.705 48.2356 125.746C48.2478 125.777 48.2645 125.803 48.2781 125.831C48.3237 125.936 48.3738 126.034 48.4254 126.129C48.4633 126.199 48.4982 126.271 48.5392 126.336C48.5984 126.432 48.6622 126.518 48.7274 126.605C48.7699 126.661 48.8094 126.721 48.8534 126.772C48.9293 126.862 49.0143 126.941 49.0978 127.02C49.1388 127.058 49.1767 127.102 49.2192 127.139C49.3498 127.248 49.4864 127.347 49.6321 127.43L54.1903 130.082C54.0446 129.997 53.908 129.899 53.7775 129.791C53.735 129.754 53.697 129.71 53.6545 129.672H53.656Z" fill="#2D2D2D"/>
<path d="M58.5467 115.442C55.136 117.413 52.378 122.191 52.3886 126.116C52.3992 130.04 55.1754 131.624 58.5862 129.652C61.9969 127.681 64.7503 122.9 64.7397 118.975C64.7291 115.051 61.9574 113.469 58.5452 115.442H58.5467Z" fill="#4F4F4F"/>
<path d="M58.9186 119.094C57.0531 120.173 55.5443 122.786 55.5504 124.932C55.5564 127.078 57.0743 127.944 58.9398 126.866C60.8053 125.787 62.3111 123.173 62.305 121.027C62.2989 118.881 60.7826 118.016 58.9171 119.094H58.9186Z" fill="#D1D1D1"/>
<g style="mix-blend-mode:multiply">
<path d="M55.8206 125.363C55.8145 123.217 57.3233 120.603 59.1888 119.526C60.3894 118.831 61.4428 118.947 62.0439 119.685C61.5324 118.573 60.3257 118.281 58.9186 119.094C57.0531 120.173 55.5443 122.786 55.5504 124.932C55.5519 125.696 55.7492 126.295 56.0816 126.704C55.9147 126.341 55.8206 125.891 55.819 125.363H55.8206Z" fill="#D1D1D1"/>
</g>
<path d="M119.686 82.0854C119.728 82.0702 119.772 82.0519 119.815 82.0383C119.996 81.9775 120.173 81.9273 120.346 81.8893C120.387 81.8802 120.427 81.8756 120.468 81.868C120.601 81.8422 120.735 81.8209 120.864 81.8073C120.931 81.7997 120.996 81.7966 121.061 81.792C121.164 81.786 121.264 81.7845 121.365 81.786C121.448 81.7875 121.529 81.7921 121.611 81.7997C121.69 81.8073 121.768 81.8164 121.846 81.8285C121.978 81.8498 122.107 81.8787 122.231 81.9152C122.289 81.9319 122.348 81.9456 122.406 81.9653C122.584 82.0276 122.757 82.1021 122.917 82.1948L118.359 79.5427C118.198 79.4484 118.025 79.3755 117.846 79.3117C117.83 79.3056 117.814 79.2949 117.796 79.2889C117.757 79.2752 117.713 79.2721 117.673 79.2615C117.547 79.225 117.42 79.1961 117.286 79.1749C117.251 79.1688 117.221 79.1566 117.186 79.1521C117.142 79.146 117.095 79.149 117.051 79.1445C116.97 79.1369 116.888 79.1323 116.805 79.1308C116.761 79.1308 116.72 79.1232 116.676 79.1247C116.62 79.1247 116.559 79.1338 116.501 79.1369C116.436 79.1414 116.371 79.1445 116.304 79.1521C116.271 79.1551 116.237 79.1551 116.204 79.1597C116.107 79.1718 116.007 79.1931 115.908 79.2129C115.867 79.2205 115.827 79.225 115.786 79.2341C115.774 79.2372 115.764 79.2372 115.753 79.2402C115.607 79.2737 115.46 79.3147 115.311 79.3633C115.293 79.3694 115.273 79.377 115.255 79.3831C115.213 79.3968 115.169 79.415 115.125 79.4302C115.04 79.4606 114.955 79.488 114.868 79.5244C114.809 79.5488 114.75 79.5792 114.691 79.605C114.637 79.6278 114.584 79.6521 114.531 79.6764C114.493 79.6947 114.457 79.7083 114.419 79.7266C114.269 79.801 114.117 79.8816 113.963 79.9697L118.522 82.6219C118.713 82.5109 118.903 82.4152 119.089 82.327C119.142 82.3012 119.196 82.2784 119.249 82.2556C119.396 82.1903 119.54 82.1325 119.683 82.0808L119.686 82.0854Z" fill="#292929"/>
<path d="M113.634 96.8582C113.551 96.7792 113.467 96.7016 113.391 96.612C113.346 96.5588 113.306 96.4995 113.264 96.4433C113.198 96.3566 113.133 96.27 113.076 96.1758C113.035 96.1104 113 96.039 112.962 95.9691C112.91 95.8718 112.858 95.7745 112.813 95.6697C112.783 95.5997 112.755 95.5253 112.728 95.4508C112.678 95.3171 112.632 95.1772 112.593 95.0313C112.569 94.9447 112.546 94.8581 112.525 94.7684C112.505 94.6787 112.488 94.586 112.471 94.4918C112.452 94.3732 112.433 94.2532 112.418 94.1301C112.409 94.0525 112.402 93.975 112.396 93.896C112.38 93.703 112.368 93.5084 112.367 93.3033C112.367 93.0692 112.377 92.8321 112.396 92.5935C112.399 92.5464 112.406 92.4977 112.409 92.4506C112.426 92.2698 112.447 92.0874 112.474 91.905C112.485 91.8381 112.494 91.7697 112.506 91.7029C112.538 91.5129 112.576 91.3214 112.619 91.1299C112.628 91.0873 112.635 91.0463 112.646 91.0037C112.701 90.7697 112.764 90.5341 112.834 90.3C112.857 90.221 112.886 90.1435 112.91 90.0645C112.962 89.9034 113.013 89.7422 113.072 89.5811C113.123 89.4444 113.177 89.3076 113.232 89.1708C113.279 89.0538 113.323 88.9367 113.373 88.8197C113.502 88.5173 113.642 88.2163 113.792 87.9215C113.824 87.8576 113.86 87.7968 113.894 87.733C114.008 87.5157 114.127 87.3014 114.252 87.0901C114.307 86.9959 114.366 86.9047 114.422 86.812C114.534 86.6296 114.651 86.4503 114.773 86.274C114.835 86.1828 114.897 86.0916 114.961 86.0019C115.094 85.8165 115.231 85.6356 115.372 85.4578C115.427 85.3894 115.48 85.318 115.535 85.2496C115.732 85.0094 115.935 84.7754 116.145 84.5535C116.178 84.5185 116.213 84.4866 116.246 84.4516C116.432 84.2601 116.62 84.0763 116.813 83.9C116.904 83.8164 116.996 83.7373 117.09 83.6568C117.189 83.5732 117.288 83.4896 117.388 83.409C117.506 83.3148 117.628 83.2251 117.748 83.137C117.816 83.0883 117.883 83.0367 117.951 82.9911C118.141 82.8619 118.332 82.7373 118.526 82.6248L113.968 79.9727C113.968 79.9727 113.959 79.9772 113.954 79.9803C113.789 80.076 113.625 80.1794 113.463 80.2873C113.438 80.3025 113.416 80.3222 113.393 80.3374C113.324 80.3845 113.256 80.4347 113.189 80.4848C113.106 80.5456 113.019 80.6034 112.937 80.6672C112.901 80.6946 112.866 80.728 112.831 80.7569C112.731 80.8359 112.632 80.9195 112.534 81.0031C112.47 81.0578 112.403 81.108 112.341 81.1642C112.312 81.1901 112.285 81.2205 112.256 81.2463C112.063 81.4211 111.875 81.605 111.69 81.7965C111.662 81.8254 111.632 81.8512 111.603 81.8801C111.597 81.8861 111.593 81.8922 111.586 81.8998C111.377 82.1217 111.174 82.3558 110.976 82.5959C110.92 82.6643 110.869 82.7357 110.814 82.8041C110.674 82.982 110.536 83.1628 110.404 83.3482C110.34 83.4379 110.278 83.5291 110.214 83.6203C110.094 83.7966 109.978 83.9759 109.865 84.1583C109.808 84.251 109.75 84.3422 109.695 84.4365C109.571 84.6477 109.451 84.862 109.337 85.0793C109.31 85.131 109.278 85.1812 109.25 85.2329C109.244 85.2435 109.24 85.2557 109.234 85.2678C109.083 85.5642 108.944 85.8636 108.815 86.166C108.804 86.1888 108.792 86.2116 108.783 86.236C108.743 86.3287 108.712 86.4229 108.674 86.5171C108.619 86.6539 108.564 86.7907 108.514 86.9275C108.504 86.9594 108.488 86.9898 108.478 87.0217C108.432 87.1524 108.393 87.2831 108.352 87.4123C108.328 87.4898 108.3 87.5673 108.277 87.6449C108.273 87.6616 108.265 87.6783 108.261 87.695C108.2 87.9002 108.145 88.1069 108.097 88.3121C108.094 88.3242 108.092 88.3364 108.089 88.3485C108.079 88.3911 108.071 88.4352 108.062 88.4777C108.032 88.616 108 88.7543 107.975 88.8927C107.966 88.9459 107.96 88.9975 107.951 89.0492C107.94 89.1161 107.93 89.1845 107.919 89.2513C107.91 89.3167 107.896 89.3836 107.889 89.4489C107.874 89.5659 107.865 89.6815 107.854 89.797C107.849 89.8441 107.843 89.8927 107.84 89.9398C107.84 89.9581 107.836 89.9763 107.834 89.9945C107.821 90.1784 107.813 90.3608 107.811 90.5417C107.811 90.5782 107.811 90.6131 107.811 90.6496C107.811 90.8016 107.816 90.9505 107.825 91.0964C107.828 91.1466 107.836 91.1937 107.84 91.2439C107.846 91.3229 107.855 91.4004 107.863 91.4764C107.871 91.5357 107.872 91.5995 107.881 91.6588C107.89 91.7211 107.906 91.7789 107.916 91.8396C107.933 91.9339 107.95 92.0266 107.969 92.1163C107.978 92.1588 107.985 92.2059 107.995 92.247C108.007 92.2941 108.025 92.3336 108.038 92.3792C108.077 92.5251 108.123 92.6649 108.173 92.7987C108.189 92.8412 108.199 92.8914 108.215 92.9324C108.227 92.9628 108.244 92.9887 108.258 93.0175C108.303 93.1224 108.353 93.2197 108.405 93.3154C108.443 93.3853 108.478 93.4568 108.519 93.5221C108.578 93.6179 108.642 93.7045 108.707 93.7911C108.75 93.8474 108.789 93.9066 108.833 93.9583C108.909 94.048 108.994 94.127 109.077 94.2061C109.118 94.2441 109.156 94.2881 109.199 94.3246C109.329 94.434 109.466 94.5328 109.612 94.6164L114.17 97.2685C114.024 97.1834 113.888 97.0846 113.757 96.9767C113.715 96.9403 113.677 96.8962 113.634 96.8582Z" fill="#2D2D2D"/>
<path d="M118.525 82.6264C115.114 84.5976 112.356 89.376 112.367 93.3003C112.377 97.2245 115.154 98.8082 118.564 96.837C121.975 94.8657 124.728 90.0843 124.718 86.16C124.707 82.2358 121.935 80.6536 118.523 82.6264H118.525Z" fill="#4F4F4F"/>
<path d="M118.895 86.2785C117.03 87.3576 115.521 89.9702 115.527 92.1163C115.533 94.2623 117.051 95.1286 118.916 94.051C120.782 92.9719 122.288 90.3578 122.282 88.2118C122.275 86.0657 120.759 85.2009 118.894 86.2785H118.895Z" fill="#D1D1D1"/>
<g style="mix-blend-mode:multiply">
<path d="M115.797 92.5479C115.791 90.4019 117.3 87.7877 119.165 86.7101C120.366 86.0156 121.419 86.1311 122.02 86.8697C121.509 85.7572 120.302 85.4654 118.895 86.2785C117.03 87.3576 115.521 89.9702 115.527 92.1162C115.528 92.8807 115.726 93.4795 116.058 93.8884C115.891 93.5251 115.797 93.0753 115.796 92.5479H115.797Z" fill="#D1D1D1"/>
</g>
<g style="mix-blend-mode:multiply" opacity="0.27">
<path d="M90.5788 90.9023L93.4901 92.5924L94.7454 91.8644L91.8356 90.1743C91.4911 89.9737 90.9295 89.9752 90.5834 90.1743C90.2358 90.3749 90.2343 90.7002 90.5788 90.9008V90.9023Z" fill="#2F2F2F"/>
</g>
<g style="mix-blend-mode:multiply" opacity="0.27">
<path d="M80.7155 96.6182C80.371 96.4175 79.8109 96.4191 79.4633 96.6182L78.6967 97.062C78.3492 97.2626 78.3476 97.5878 78.6937 97.7884L81.6111 99.4816L83.6329 98.3098L80.7171 96.6166L80.7155 96.6182Z" fill="#2F2F2F"/>
</g>
<g style="mix-blend-mode:multiply" opacity="0.27">
<path d="M94.7454 91.8643L93.4901 92.5923L96.2254 94.1805L97.4837 93.454L94.7454 91.8643Z" fill="#2F2F2F"/>
</g>
<g style="mix-blend-mode:multiply" opacity="0.27">
<path d="M112.602 78.7846L115.084 80.0689L117.065 78.9199L114.624 77.6128C114.279 77.4122 113.719 77.4137 113.372 77.6128L112.603 78.0581C112.256 78.2587 112.254 78.584 112.6 78.7846H112.602Z" fill="#2F2F2F"/>
</g>
<g style="mix-blend-mode:multiply" opacity="0.27">
<path d="M101.811 84.394L104.716 86.081L105.97 85.353L103.067 83.6675C102.722 83.4669 102.162 83.4684 101.814 83.6675C101.467 83.8681 101.465 84.1933 101.811 84.394Z" fill="#2F2F2F"/>
</g>
<g style="mix-blend-mode:multiply" opacity="0.27">
<path d="M85.0886 61.519C84.7364 61.3153 84.1657 61.3153 83.812 61.519L83.0303 61.9719C82.6767 62.1771 82.6751 62.5084 83.0273 62.712L92.0451 67.9464L82.1591 73.6732L73.5511 68.6759C73.1989 68.4723 72.6282 68.4723 72.2745 68.6759C71.9209 68.8811 71.9193 69.2124 72.2715 69.4161L80.8795 74.4134L70.7096 80.3058L62.1016 75.3086C61.7495 75.1049 61.1787 75.1049 60.8251 75.3086C60.4714 75.5137 60.4684 75.8451 60.8205 76.0487L69.4285 81.046L63.703 84.3623L65.2725 85.2681L71.0283 81.9336L76.5003 85.1952L70.8356 88.4765L73.3188 89.9097L79.0125 86.6117L80.2936 85.87L90.4635 79.9775L91.743 79.2358L101.629 73.5091L102.815 72.8221C103.299 72.5409 103.3 72.088 102.819 71.8083L101.215 70.8767L95.8398 67.7564L94.1064 66.7503L85.0886 61.5159V61.519ZM82.5856 75.2417L88.1305 78.4607L77.9606 84.3532L72.4157 81.1341L82.5856 75.2417ZM93.6085 68.8553L99.1534 72.0743L89.2674 77.8011L83.7225 74.5821L93.6085 68.8553Z" fill="#2F2F2F"/>
</g>
<g opacity="0.18">
<path d="M22.7047 58.9657L43.3769 47.354L43.4285 66.9889L14.6841 83.607L22.7047 58.9657Z" fill="#9DB4C7"/>
</g>
<path d="M44.9767 45.0269C44.7323 46.2458 44.5016 82.2753 44.5016 82.2753L79.0626 102.035L79.7593 63.5827L44.9767 45.0269Z" fill="#3D3D3D"/>
<path d="M82.5355 50.2994L44.4728 28.1992L44.5487 67.3323L82.6175 88.516L82.5355 50.2994Z" fill="#C6C6C6"/>
<path d="M44.5547 66.2002L44.5897 81.8349L79.6864 102.213L79.776 86.5221L44.5547 66.2002Z" fill="#C6C6C6"/>
<path d="M82.6175 88.4793L79.776 86.8394L79.6864 102.213L82.6509 104.122L82.6175 88.4793Z" fill="#7F3434"/>
<g opacity="0.37">
<path d="M43.3769 47.354L22.7047 58.9657L19.2393 69.6107L43.3981 55.5597L43.3769 47.354Z" fill="#EFEFEF"/>
</g>
<path d="M57.7741 79.3724L78.4463 67.7607L78.4979 87.3957L49.752 104.012L57.7741 79.3724Z" fill="#434551"/>
<path d="M36.3399 128.722L1.27048 108.317L3.38035 91.3901L38.4498 111.797L36.3399 128.722Z" fill="#AF5454"/>
<path d="M38.4498 111.797L3.38036 91.39L11.6119 86.6313L46.6813 107.038L38.4498 111.797Z" fill="#CF6A67"/>
<path d="M56.3852 77.0976L21.3158 56.6906L45.6643 42.6152L80.7337 63.0207L56.3852 77.0976Z" fill="#EFEFEF"/>
<path d="M23.3376 61.2773L15.0256 85.4718L44.6686 102.789L53.14 78.6872L23.3376 61.2773Z" fill="#434551"/>
<path d="M72.8195 94.4387C72.8012 94.4281 72.783 94.4144 72.7648 94.4007C72.7481 94.3871 72.7314 94.3704 72.7162 94.3536C72.7011 94.3369 72.6874 94.3187 72.6737 94.2989C72.6616 94.2792 72.6495 94.2579 72.6388 94.2351C72.6282 94.2123 72.6191 94.188 72.61 94.1637C72.6024 94.1378 72.5948 94.1105 72.5887 94.0831C72.5827 94.0542 72.5796 94.0253 72.5766 93.9965C72.5766 93.995 72.5766 93.9934 72.5766 93.9919C72.5736 93.9615 72.572 93.9311 72.572 93.8977L71.634 93.3521C71.634 93.3612 71.634 93.3688 71.634 93.3779C71.634 93.3961 71.634 93.4144 71.637 93.4311C71.637 93.4356 71.637 93.4417 71.637 93.4463C71.637 93.4478 71.637 93.4493 71.637 93.4508C71.637 93.4539 71.637 93.4584 71.637 93.4615C71.637 93.4721 71.6401 93.4812 71.6401 93.4919C71.6401 93.4995 71.6431 93.5086 71.6446 93.5162C71.6446 93.5238 71.6476 93.5299 71.6476 93.5375C71.6476 93.5375 71.6507 93.5496 71.6522 93.5557C71.6522 93.5618 71.6552 93.5679 71.6567 93.5755C71.6567 93.58 71.6598 93.5861 71.6613 93.5907C71.6613 93.5952 71.6643 93.6013 71.6659 93.6059C71.6659 93.6104 71.6689 93.6135 71.6704 93.618V93.6195C71.6719 93.6241 71.6734 93.6287 71.675 93.6347C71.675 93.6393 71.678 93.6423 71.6795 93.6469C71.6795 93.6515 71.6826 93.6545 71.6841 93.6591C71.6856 93.6636 71.6871 93.6667 71.6886 93.6712C71.6901 93.6758 71.6917 93.6788 71.6932 93.6834C71.6932 93.6864 71.6947 93.6879 71.6962 93.691C71.6962 93.691 71.6962 93.6925 71.6962 93.694C71.6977 93.6971 71.6992 93.7001 71.7008 93.7047C71.7023 93.7077 71.7038 93.7107 71.7053 93.7153C71.7068 93.7183 71.7084 93.7214 71.7099 93.7244C71.7114 93.7275 71.7129 93.7305 71.7159 93.7335C71.7175 93.7366 71.719 93.7396 71.722 93.7427C71.7235 93.7457 71.7251 93.7487 71.7281 93.7518C71.7281 93.7518 71.7281 93.7533 71.7296 93.7548C71.7296 93.7548 71.7311 93.7579 71.7326 93.7594C71.7342 93.7624 71.7357 93.7655 71.7387 93.767C71.7402 93.77 71.7433 93.7731 71.7448 93.7746C71.7463 93.7776 71.7493 93.7791 71.7509 93.7822C71.7524 93.7852 71.7554 93.7867 71.7569 93.7898C71.7584 93.7928 71.7615 93.7943 71.763 93.7974C71.7645 93.8004 71.7676 93.8019 71.7691 93.805C71.7691 93.8065 71.7721 93.808 71.7736 93.8095C71.7736 93.8095 71.7736 93.8095 71.7751 93.811C71.7767 93.8126 71.7797 93.8156 71.7812 93.8171C71.7827 93.8187 71.7858 93.8217 71.7873 93.8232C71.7888 93.8247 71.7918 93.8278 71.7934 93.8293C71.7949 93.8308 71.7979 93.8338 71.7994 93.8354C71.8009 93.8369 71.804 93.8399 71.8055 93.8414C71.807 93.843 71.8101 93.846 71.8116 93.8475C71.8131 93.849 71.8161 93.8521 71.8176 93.8536C71.8176 93.8536 71.8176 93.8536 71.8192 93.8536C71.8192 93.8536 71.8222 93.8566 71.8237 93.8566C71.8252 93.8582 71.8283 93.8597 71.8313 93.8627C71.8343 93.8642 71.8359 93.8658 71.8389 93.8673C71.8419 93.8688 71.8434 93.8703 71.8465 93.8718C71.8495 93.8734 71.851 93.8749 71.8541 93.8764C71.8571 93.8779 71.8586 93.8794 71.8617 93.881C71.8647 93.8825 71.8662 93.884 71.8693 93.8855C71.8708 93.8855 71.8738 93.8886 71.8753 93.8901L72.8134 94.4357L72.8195 94.4387Z" fill="#EBEBEB"/>
<path d="M79.4451 89.9199C79.4466 90.4579 79.0686 91.116 78.5996 91.3866L73.4236 94.3792C72.9545 94.6497 72.572 94.4324 72.5705 93.8943L79.4451 89.9199Z" fill="#CFCFCF"/>
<path d="M72.5705 93.8945L71.634 93.3489L78.5085 89.3745L79.4451 89.9201L72.5705 93.8945Z" fill="#C9C9C9"/>
<path d="M49.6002 88.7593L53.14 78.6872L23.3361 61.2773L19.7979 71.5804C26.0213 75.38 43.4619 85.2834 49.6002 88.7608V88.7593Z" fill="#767884"/>
<path d="M78.4463 67.7607L57.7741 79.3724L54.3087 90.0174L78.4676 75.9649L78.4463 67.7607Z" fill="#767884"/>
<path d="M56.3852 77.1036L46.7496 106.838L80.7808 87.4113L80.7338 63.0283L56.3852 77.1036ZM49.752 104.02L57.8151 79.3986L78.4463 67.8098L78.4979 87.4021L49.7535 104.019L49.752 104.02Z" fill="#DDDDDD"/>
<path d="M36.5281 128.71L52.759 119.325C53.656 117.086 55.9754 114.478 57.8136 113.265L36.9319 125.479L36.5296 128.71H36.5281Z" fill="#994141"/>
<path d="M80.7808 87.4111L46.7496 106.838L46.6828 107.045L38.4513 111.803L36.3323 128.798L51.9408 117.504C52.0729 117.418 57.173 113.685 57.3081 113.607C57.4356 113.534 57.5494 113.443 57.6754 113.381L80.8081 103.064L80.7839 87.4111H80.7808Z" fill="#994141"/>
<path d="M80.8036 99.9331L57.6663 113.381C59.5121 112.457 61.1119 112.723 62.0212 113.923L80.8097 103.059V99.9377L80.8036 99.9407V99.9346V99.9331Z" fill="#994141"/>
<path d="M47.8759 105.21L49.1023 104.497C49.1023 104.497 49.0887 104.49 49.0826 104.487C49.0735 104.482 49.0644 104.478 49.0553 104.473C49.0447 104.468 49.034 104.464 49.0234 104.459C49.0098 104.455 48.9961 104.45 48.9824 104.446C48.9673 104.441 48.9551 104.444 48.9415 104.441C48.9278 104.44 48.9156 104.438 48.9035 104.438C48.8549 104.438 48.8094 104.443 48.773 104.464L47.5465 105.177C47.5829 105.155 47.6285 105.149 47.677 105.151C47.6892 105.151 47.7013 105.152 47.715 105.154C47.7651 105.161 47.8182 105.177 47.8744 105.209L47.8759 105.21Z" fill="#AEAEAE"/>
<path d="M49.1024 104.497L47.8759 105.21L48.8064 105.746L50.0313 105.034L49.1024 104.497Z" fill="#B3B3B3"/>
<path d="M48.8064 105.747L47.8774 105.21C47.6254 105.064 47.4175 105.18 47.4175 105.468C47.4175 105.762 47.6239 106.116 47.8744 106.262L48.8033 106.798C49.0583 106.946 49.2632 106.829 49.2632 106.535C49.2632 106.245 49.0614 105.894 48.8064 105.747Z" fill="#9E9E9E"/>
<path d="M50.4897 105.795C50.4897 105.788 50.4897 105.779 50.4897 105.771C50.4897 105.763 50.4897 105.756 50.4882 105.748C50.4882 105.741 50.4867 105.734 50.4852 105.727C50.4852 105.721 50.4836 105.715 50.4821 105.709C50.4821 105.703 50.4806 105.696 50.4791 105.69C50.4791 105.686 50.4776 105.681 50.476 105.675C50.476 105.671 50.4745 105.666 50.473 105.66C50.473 105.655 50.47 105.651 50.47 105.645C50.47 105.64 50.4685 105.636 50.4669 105.633C50.4669 105.628 50.4654 105.623 50.4639 105.62C50.4639 105.616 50.4609 105.611 50.4609 105.608C50.4609 105.605 50.4594 105.602 50.4578 105.601C50.4578 105.601 50.4578 105.598 50.4578 105.596C50.4578 105.592 50.4548 105.587 50.4533 105.582C50.4533 105.578 50.4502 105.573 50.4487 105.569C50.4472 105.564 50.4457 105.56 50.4442 105.555C50.4411 105.548 50.4396 105.54 50.4366 105.534C50.4335 105.526 50.4305 105.519 50.4275 105.513C50.4214 105.496 50.4138 105.481 50.4062 105.464C50.4032 105.458 50.4002 105.45 50.3971 105.444C50.3941 105.438 50.391 105.43 50.3865 105.424C50.385 105.42 50.3819 105.417 50.3804 105.412C50.3789 105.409 50.3759 105.405 50.3743 105.402C50.3728 105.399 50.3698 105.394 50.3683 105.391C50.3668 105.388 50.3637 105.383 50.3622 105.38C50.3607 105.377 50.3592 105.374 50.3561 105.371C50.3546 105.368 50.3531 105.365 50.3501 105.362C50.3485 105.359 50.3455 105.356 50.344 105.353C50.3425 105.35 50.3394 105.347 50.3379 105.344C50.3364 105.341 50.3334 105.338 50.3318 105.335C50.3303 105.332 50.3273 105.329 50.3258 105.326C50.3243 105.323 50.3212 105.32 50.3197 105.316C50.3182 105.313 50.3152 105.31 50.3136 105.307C50.3106 105.304 50.3091 105.3 50.306 105.297C50.303 105.292 50.3 105.289 50.2985 105.285C50.2954 105.282 50.2924 105.277 50.2893 105.274C50.2863 105.271 50.2833 105.266 50.2802 105.263C50.2772 105.259 50.2726 105.254 50.2696 105.25C50.2666 105.245 50.262 105.24 50.259 105.236C50.2544 105.231 50.2514 105.227 50.2468 105.222C50.2423 105.216 50.2377 105.212 50.2332 105.207C50.2286 105.202 50.2241 105.196 50.2195 105.192C50.2195 105.192 50.218 105.19 50.2165 105.189C50.2119 105.184 50.2074 105.18 50.2028 105.175C50.1968 105.169 50.1922 105.165 50.1861 105.158C50.1801 105.152 50.174 105.148 50.1679 105.142C50.1618 105.136 50.1558 105.131 50.1497 105.125C50.1436 105.119 50.136 105.114 50.13 105.108C50.1239 105.102 50.1163 105.098 50.1102 105.093C50.1026 105.087 50.0966 105.082 50.089 105.078C50.0814 105.073 50.0738 105.067 50.0662 105.063C50.0586 105.058 50.051 105.052 50.0419 105.047C50.0404 105.047 50.0374 105.044 50.0359 105.044L48.8094 105.757C48.8732 105.794 48.9339 105.844 48.9885 105.902C49.0978 106.019 49.1858 106.169 49.2314 106.321C49.2541 106.397 49.2663 106.473 49.2663 106.546C49.2663 106.619 49.2526 106.681 49.2299 106.731C49.2071 106.782 49.1737 106.818 49.1327 106.842L50.3592 106.13C50.3637 106.127 50.3668 106.125 50.3713 106.122C50.3774 106.117 50.3835 106.113 50.3895 106.108C50.3941 106.104 50.4002 106.099 50.4047 106.095C50.4093 106.09 50.4138 106.086 50.4168 106.081C50.4214 106.076 50.4244 106.072 50.429 106.066C50.432 106.061 50.4366 106.055 50.4396 106.051C50.4427 106.046 50.4457 106.04 50.4487 106.035C50.4518 106.031 50.4548 106.025 50.4563 106.019C50.4594 106.014 50.4609 106.008 50.4639 106.002C50.4654 105.996 50.4685 105.99 50.47 105.984C50.4715 105.978 50.4745 105.972 50.476 105.965C50.4776 105.959 50.4791 105.953 50.4806 105.946C50.4821 105.94 50.4836 105.932 50.4852 105.926C50.4852 105.918 50.4882 105.912 50.4882 105.905C50.4882 105.897 50.4897 105.889 50.4912 105.882C50.4912 105.874 50.4912 105.865 50.4927 105.858C50.4927 105.85 50.4927 105.842 50.4927 105.833C50.4927 105.823 50.4927 105.815 50.4927 105.806L50.4897 105.795Z" fill="#A7A7A7"/>
<path d="M55.6005 105.648C55.5913 105.572 55.5807 105.497 55.5655 105.421L55.5306 105.262L55.4988 105.142L55.4912 105.119C55.4912 105.119 55.4866 105.104 55.4851 105.098L55.4669 105.041L55.4502 104.987C55.4502 104.987 55.4502 104.993 55.4517 104.996L55.435 104.946C55.435 104.946 55.432 104.938 55.4304 104.935C55.4168 104.897 55.4031 104.859 55.3864 104.821C55.3834 104.813 55.3804 104.804 55.3773 104.797L55.3379 104.707C55.3303 104.689 55.3227 104.671 55.3136 104.651C55.2938 104.61 55.2665 104.557 55.2468 104.516L55.1724 104.38C55.1496 104.341 55.1162 104.288 55.092 104.25L55.007 104.122C55.007 104.122 55.007 104.12 55.0054 104.119H55.0039C54.9766 104.081 54.9402 104.032 54.9128 103.996L54.8142 103.874C54.7823 103.836 54.7368 103.788 54.7034 103.75L54.5941 103.64C54.5941 103.64 54.6047 103.651 54.6108 103.655C54.6047 103.649 54.5956 103.64 54.5895 103.634C54.588 103.634 54.5865 103.631 54.5835 103.63C54.5774 103.623 54.5698 103.616 54.5637 103.611C54.5637 103.611 54.5546 103.604 54.5501 103.601C54.547 103.598 54.544 103.596 54.541 103.593C54.5288 103.582 54.5182 103.572 54.5061 103.561C54.4878 103.544 54.4696 103.528 54.4544 103.514L54.3224 103.408C54.3102 103.398 54.2935 103.388 54.2799 103.377C54.2708 103.37 54.2602 103.364 54.251 103.356C54.2192 103.333 54.1873 103.31 54.16 103.292C54.1144 103.265 54.0537 103.227 54.0097 103.198L53.8898 103.129L53.6925 103.015L53.4951 102.901L53.2993 102.788C53.0732 102.657 52.847 102.526 52.6208 102.395L52.5237 102.339L52.3613 102.245C52.1943 102.148 52.0258 102.05 51.8588 101.955L51.7738 101.906L51.7298 101.88C51.6281 101.821 51.5264 101.762 51.4232 101.704L51.4126 101.698L51.3944 101.687C51.238 101.597 51.0817 101.506 50.9269 101.417L50.8935 101.397L50.8434 101.368C50.6764 101.272 50.511 101.176 50.344 101.079C50.3106 101.059 50.2757 101.041 50.2438 101.024C50.2074 101.006 50.1709 100.988 50.1345 100.973C50.1209 100.967 50.1072 100.962 50.0935 100.956C50.0875 100.953 50.0799 100.95 50.0738 100.948C50.0601 100.944 50.048 100.938 50.0343 100.933C50.0009 100.921 49.9691 100.912 49.9387 100.904C49.9068 100.895 49.8765 100.889 49.8461 100.885C49.8127 100.879 49.7808 100.876 49.7505 100.874C49.7141 100.874 49.6776 100.874 49.6427 100.879C49.6427 100.879 49.6397 100.879 49.6382 100.879C49.6215 100.88 49.6078 100.889 49.5926 100.892C49.5516 100.901 49.5091 100.91 49.4727 100.929C49.4651 100.932 49.4591 100.936 49.453 100.939L49.1388 101.122C49.1236 101.131 49.1099 101.14 49.0963 101.149C49.069 101.169 49.0492 101.201 49.0249 101.227C49.0067 101.248 48.9855 101.263 48.9688 101.287C48.9657 101.292 48.9597 101.295 48.9566 101.3C48.9369 101.33 48.9202 101.363 48.905 101.4C48.8914 101.43 48.8807 101.462 48.8701 101.497V101.499C48.861 101.531 48.8519 101.564 48.8443 101.599C48.8367 101.634 48.8306 101.67 48.8261 101.708C48.8231 101.733 48.8215 101.759 48.8185 101.784C48.8185 101.79 48.8185 101.797 48.817 101.803C48.817 101.812 48.8155 101.819 48.8139 101.828C48.8109 101.871 48.8109 101.914 48.8109 101.958V101.988C48.8109 102.126 48.8109 102.265 48.8109 102.403V102.484V102.544C48.8109 102.892 48.8094 103.24 48.8079 103.588V103.62V103.706L48.8048 104.587C48.8048 104.759 48.8048 104.931 48.8048 105.102V105.148V105.234C48.8048 105.382 48.8048 105.529 48.8048 105.677C48.8048 105.677 48.8124 105.674 48.8139 105.672C48.8124 105.672 48.8048 105.677 48.8048 105.677L48.8656 105.712L49.0234 105.803L49.1858 105.897L49.286 105.955L49.368 106.002C49.4408 106.045 49.5137 106.087 49.5866 106.128L49.626 106.151L49.8006 106.253L49.8658 106.291C49.9933 106.365 50.1209 106.438 50.2484 106.513L50.3425 106.567L50.5277 106.675L50.7113 106.782C51.0088 106.953 51.3048 107.125 51.6023 107.297L51.6797 107.342L51.7238 107.368C51.9712 107.511 52.2201 107.656 52.4675 107.798L52.4888 107.811L52.6481 107.894C52.6815 107.909 52.721 107.926 52.7605 107.943C52.7757 107.949 52.7908 107.957 52.806 107.963C52.8197 107.969 52.8349 107.976 52.8485 107.981C52.8515 107.981 52.8546 107.984 52.8561 107.984L53.0231 108.04C53.0307 108.042 53.0413 108.045 53.0489 108.046C53.0716 108.052 53.0914 108.057 53.1126 108.061C53.1506 108.071 53.187 108.08 53.2234 108.086C53.2325 108.087 53.2447 108.09 53.2538 108.093L53.272 108.096C53.3115 108.102 53.3418 108.107 53.3752 108.11L53.4253 108.116H53.4542C53.4754 108.119 53.4951 108.119 53.5164 108.121L53.6363 108.124C53.656 108.124 53.6788 108.119 53.7 108.118C53.7228 108.116 53.7456 108.115 53.7668 108.113C53.7866 108.112 53.8063 108.108 53.826 108.105C53.8442 108.104 53.864 108.102 53.8807 108.101L54.0446 108.064C54.116 108.043 54.207 108.008 54.2768 107.981C54.3209 107.958 54.3801 107.928 54.4256 107.905L54.7398 107.722C54.9113 107.615 54.922 107.604 55.0889 107.447L55.1982 107.32L55.2498 107.25L55.3212 107.137C55.3212 107.137 55.3303 107.124 55.3333 107.119L55.3363 107.113L55.3409 107.107C55.3409 107.107 55.3394 107.11 55.3379 107.111L55.4138 106.967C55.438 106.914 55.4532 106.874 55.4669 106.839C55.4714 106.83 55.4745 106.82 55.4775 106.811C55.4881 106.783 55.4957 106.754 55.5048 106.727C55.5079 106.719 55.5109 106.71 55.5139 106.703L55.5367 106.619C55.5428 106.599 55.5458 106.586 55.5534 106.561L55.5564 106.546L55.5595 106.532C55.5595 106.532 55.558 106.538 55.5564 106.543C55.564 106.505 55.5716 106.47 55.5777 106.435L55.5868 106.387C55.5898 106.365 55.5913 106.339 55.5944 106.315C55.5944 106.306 55.5974 106.298 55.5974 106.289C55.608 106.21 55.6126 106.131 55.6156 106.049C55.6202 105.874 55.6096 105.736 55.5974 105.649L55.6005 105.648ZM54.9462 107.04C54.9462 107.04 54.9462 107.035 54.9462 107.034C54.9462 107.035 54.9462 107.039 54.9462 107.04ZM54.9432 106.222C54.9432 106.222 54.9432 106.224 54.9432 106.225C54.9432 106.225 54.9432 106.221 54.9432 106.218C54.9432 106.218 54.9432 106.219 54.9432 106.221C54.9432 106.221 54.9432 106.221 54.9432 106.222ZM54.9417 106.213C54.9417 106.213 54.9402 106.207 54.9402 106.204C54.9402 106.204 54.9417 106.21 54.9432 106.213H54.9417ZM54.8354 105.754C54.8309 105.741 54.8263 105.727 54.8218 105.713C54.8248 105.722 54.8294 105.73 54.8309 105.739C54.8309 105.744 54.8339 105.748 54.8354 105.753V105.754ZM54.8309 107.441C54.8309 107.441 54.8324 107.435 54.8339 107.434C54.8339 107.437 54.8339 107.44 54.8309 107.441ZM54.6624 105.283C54.6624 105.283 54.6624 105.285 54.6624 105.286C54.6594 105.28 54.6578 105.276 54.6548 105.269C54.6548 105.269 54.6548 105.271 54.6548 105.272C54.6563 105.277 54.6578 105.28 54.6594 105.285L54.6624 105.283ZM52.038 105.204C52.038 105.204 52.038 105.206 52.038 105.207C52.0395 105.201 52.041 105.193 52.0425 105.187C52.044 105.181 52.0455 105.177 52.0471 105.171C52.044 105.183 52.041 105.193 52.038 105.204ZM51.9332 105.66C51.9332 105.66 51.9332 105.666 51.9317 105.669C51.9317 105.669 51.9332 105.663 51.9347 105.659C51.9347 105.659 51.9347 105.659 51.9347 105.66H51.9332ZM51.9287 105.683C51.9287 105.683 51.9287 105.678 51.9287 105.675C51.9287 105.675 51.9287 105.675 51.9287 105.674C51.9287 105.677 51.9287 105.68 51.9287 105.683ZM52.1928 104.715C52.1928 104.715 52.1958 104.707 52.1958 104.703C52.1973 104.696 52.2004 104.69 52.2019 104.684C52.2019 104.683 52.2019 104.681 52.2034 104.68C52.1989 104.69 52.1958 104.703 52.1913 104.713L52.1928 104.715ZM52.3719 104.297C52.3719 104.297 52.378 104.28 52.3825 104.272C52.3856 104.265 52.3901 104.259 52.3931 104.251C52.3962 104.247 52.3992 104.242 52.4023 104.236C52.3977 104.245 52.3947 104.254 52.3901 104.263C52.384 104.274 52.378 104.285 52.3734 104.295L52.3719 104.297ZM53.7259 103.122C53.7259 103.122 53.738 103.123 53.7441 103.123C53.741 103.123 53.7365 103.123 53.7334 103.123C53.7304 103.123 53.7289 103.123 53.7259 103.123V103.122ZM53.7547 103.125C53.7623 103.125 53.7699 103.126 53.779 103.128C53.7714 103.128 53.7638 103.126 53.7547 103.125ZM54.3027 104.627C54.3482 104.696 54.3968 104.763 54.4377 104.836C54.4408 104.842 54.4438 104.85 54.4484 104.856C54.4044 104.779 54.3512 104.706 54.3042 104.63C54.3042 104.63 54.3042 104.628 54.3042 104.627H54.3027ZM53.8792 103.14C53.8959 103.145 53.911 103.154 53.9277 103.16C53.905 103.151 53.8822 103.142 53.8579 103.136C53.8609 103.136 53.8655 103.136 53.8685 103.136C53.8716 103.136 53.8761 103.137 53.8792 103.139V103.14ZM53.7243 103.122C53.7122 103.122 53.6985 103.128 53.6849 103.128C53.697 103.128 53.7107 103.122 53.7228 103.122H53.7243ZM53.5953 103.145C53.5953 103.145 53.6014 103.145 53.6044 103.143C53.6014 103.143 53.5983 103.143 53.5953 103.145ZM53.5331 103.166C53.5452 103.161 53.5589 103.154 53.571 103.149C53.5741 103.149 53.5786 103.149 53.5817 103.148C53.5392 103.16 53.4967 103.18 53.4526 103.202C53.48 103.19 53.5058 103.177 53.5331 103.166ZM53.4435 103.205C53.4314 103.212 53.4177 103.215 53.4056 103.222C53.4192 103.215 53.4314 103.212 53.4435 103.205ZM52.85 103.596C52.85 103.596 52.8409 103.608 52.8348 103.613C52.8288 103.619 52.8242 103.623 52.8182 103.628C52.8227 103.623 52.8257 103.617 52.8303 103.613C52.8348 103.608 52.8394 103.604 52.844 103.599C52.8455 103.598 52.847 103.596 52.85 103.595V103.596ZM52.6026 103.894C52.5965 103.903 52.592 103.912 52.5859 103.921C52.5905 103.914 52.595 103.905 52.5996 103.897C52.5996 103.897 52.5996 103.895 52.6011 103.894H52.6026ZM54.8294 107.447C54.8294 107.447 54.8248 107.453 54.8233 107.456C54.8233 107.456 54.8294 107.447 54.8324 107.443C54.8324 107.443 54.8309 107.446 54.8294 107.447ZM54.9402 107.104C54.9402 107.104 54.9356 107.116 54.9341 107.124C54.9371 107.107 54.9417 107.09 54.9447 107.073C54.9447 107.08 54.9447 107.087 54.9432 107.095C54.9432 107.098 54.9432 107.102 54.9417 107.105L54.9402 107.104Z" fill="#1F222D"/>
<path d="M52.8652 104.075C52.5632 103.903 52.6117 103.93 52.8652 104.075V104.075Z" fill="#2B2F3E"/>
<path d="M52.9821 104.143C52.9396 104.119 52.9001 104.096 52.8652 104.075C52.9001 104.096 52.9366 104.116 52.9821 104.143Z" fill="#2B2F3E"/>
<path d="M54.2754 104.452C54.2769 104.213 54.4408 104.118 54.6579 104.239C53.9338 103.821 53.2144 103.405 52.8683 103.204C52.9032 103.225 52.9396 103.245 52.9852 103.272C52.9852 103.554 52.9852 103.68 52.9852 103.728C52.9852 103.715 52.9852 103.7 52.9852 103.687C52.9852 103.736 52.9852 103.864 52.9852 104.143C53.3616 104.361 54.0097 104.736 54.6579 105.11C54.4423 104.982 54.2799 104.701 54.2784 104.45L54.2754 104.452Z" fill="#2B2F3E"/>
<path d="M52.8212 103.177C52.5844 103.042 52.6193 103.062 52.8212 103.177V103.177Z" fill="#2B2F3E"/>
<path d="M52.8654 103.203C52.8507 103.194 52.8345 103.186 52.8212 103.178C52.8359 103.186 52.8507 103.194 52.8654 103.203Z" fill="#2B2F3E"/>
<path d="M53.7243 103.122C53.7729 103.12 53.8215 103.126 53.867 103.137C53.8701 103.137 53.8746 103.139 53.8776 103.14C53.9232 103.152 53.9687 103.171 54.0127 103.196L53.8928 103.128L53.6955 103.014L53.4982 102.9L53.3024 102.786C53.0762 102.655 52.85 102.525 52.6239 102.394L52.5267 102.338L52.3643 102.243C52.1973 102.146 52.0289 102.049 51.8619 101.953L51.7769 101.905L51.7329 101.879C51.6312 101.819 51.5295 101.76 51.4262 101.702L51.4156 101.696L51.3974 101.686C51.2411 101.596 51.0847 101.505 50.9299 101.415L50.8965 101.395L50.8464 101.367C50.6794 101.271 50.514 101.175 50.347 101.078C50.3136 101.058 50.2787 101.04 50.2468 101.023C50.2104 101.005 50.174 100.987 50.1376 100.971C50.1239 100.965 50.1102 100.961 50.0966 100.955C50.0905 100.952 50.0829 100.949 50.0768 100.947C50.0632 100.942 50.051 100.936 50.0374 100.932C50.004 100.92 49.9721 100.911 49.9417 100.903C49.9099 100.894 49.8795 100.888 49.8492 100.883C49.8158 100.877 49.7839 100.874 49.7535 100.873C49.7171 100.873 49.6807 100.873 49.6458 100.877C49.6458 100.877 49.6427 100.877 49.6412 100.877C49.6245 100.879 49.6108 100.888 49.5957 100.891C49.5547 100.9 49.5122 100.909 49.4758 100.927C49.4682 100.93 49.4621 100.935 49.456 100.938L49.1418 101.12L53.0914 103.403L53.4056 103.221C53.4496 103.195 53.4906 103.18 53.5331 103.163C53.5452 103.158 53.5589 103.151 53.571 103.146C53.6226 103.131 53.6742 103.12 53.7243 103.119V103.122Z" fill="#262B38"/>
<path d="M49.1418 101.122C49.1266 101.131 49.1129 101.14 49.0993 101.149C49.072 101.169 49.0522 101.201 49.0279 101.226C49.0097 101.248 48.9885 101.263 48.9718 101.287C48.9687 101.292 48.9627 101.295 48.9596 101.299C48.9399 101.33 48.9232 101.363 48.908 101.4C48.8944 101.43 48.8837 101.462 48.8731 101.497V101.499C48.864 101.53 48.8549 101.564 48.8473 101.599C48.8397 101.634 48.8337 101.67 48.8291 101.708C48.8261 101.733 48.8245 101.758 48.8215 101.784C48.8215 101.79 48.8215 101.796 48.82 101.802C48.82 101.812 48.8185 101.819 48.817 101.828C48.8139 101.871 48.8139 101.913 48.8139 101.957V101.988C48.8139 102.126 48.8139 102.265 48.8139 102.403V102.483V102.544C48.8139 102.892 48.8124 103.24 48.8109 103.588V103.62V103.705L48.8078 104.587C48.8078 104.759 48.8078 104.93 48.8078 105.102V105.148V105.234C48.8078 105.382 48.8078 105.529 48.8078 105.677C48.8078 105.677 48.8154 105.674 48.817 105.672C48.8154 105.672 48.8078 105.677 48.8078 105.677L48.8686 105.712L49.0264 105.803L49.1888 105.897L49.289 105.955L49.371 106.002C49.4438 106.044 49.5167 106.087 49.5896 106.128L49.629 106.151L49.8036 106.253L49.8689 106.291C49.9964 106.365 50.1239 106.438 50.2514 106.512L50.3455 106.567L50.5307 106.675L50.7143 106.781C51.0118 106.953 51.3078 107.125 51.6053 107.297L51.6827 107.342L51.7268 107.368C51.9742 107.511 52.2231 107.655 52.4705 107.798C52.1366 107.605 51.9074 107.031 51.8527 106.24C51.8527 106.231 51.8527 106.221 51.8527 106.212C51.8588 106.145 51.8725 106.081 51.8801 106.014C51.8952 105.9 51.9074 105.786 51.9271 105.675C51.9575 105.508 51.9954 105.345 52.0394 105.187C52.0455 105.164 52.0531 105.143 52.0592 105.12C52.1002 104.977 52.1442 104.836 52.1943 104.704C52.1958 104.698 52.1988 104.692 52.2003 104.686C52.255 104.54 52.3157 104.403 52.3794 104.274C52.3825 104.266 52.387 104.26 52.3901 104.252C52.4553 104.123 52.5252 104.005 52.598 103.898C52.598 103.898 52.598 103.897 52.5995 103.895C52.6724 103.789 52.7498 103.695 52.8287 103.614C52.8333 103.61 52.8379 103.605 52.8424 103.6C52.9229 103.521 53.0048 103.455 53.0883 103.406L49.1388 101.123L49.1418 101.122Z" fill="#2F3344"/>
<path d="M54.9812 106.675C54.9812 106.645 54.9812 106.615 54.9796 106.584C54.9796 106.584 54.9796 106.584 54.9781 106.584C54.9781 106.554 54.9781 106.523 54.9751 106.493C54.9751 106.493 54.9736 106.493 54.9721 106.493C54.9705 106.463 54.9721 106.432 54.9675 106.4C54.9675 106.4 54.966 106.4 54.9645 106.4C54.9614 106.373 54.9614 106.346 54.9584 106.318C54.9584 106.314 54.9584 106.311 54.9584 106.306C54.9584 106.301 54.9584 106.297 54.9569 106.292C54.9569 106.283 54.9538 106.273 54.9523 106.263C54.9523 106.254 54.9508 106.244 54.9493 106.235C54.9493 106.23 54.9493 106.225 54.9478 106.222C54.9478 106.219 54.9478 106.218 54.9478 106.215C54.9478 106.215 54.9478 106.213 54.9478 106.212C54.9478 106.209 54.9463 106.206 54.9447 106.203C54.9417 106.186 54.9371 106.169 54.9356 106.153C54.9341 106.14 54.9341 106.13 54.9311 106.119C54.9311 106.118 54.9311 106.116 54.9311 106.115C54.9296 106.105 54.925 106.095 54.9235 106.086C54.9204 106.067 54.9174 106.051 54.9144 106.032C54.9144 106.026 54.9144 106.02 54.9129 106.014C54.9129 106.014 54.9129 106.014 54.9113 106.014C54.9053 105.988 54.9007 105.964 54.8946 105.938C54.8916 105.929 54.8916 105.918 54.8886 105.909C54.8825 105.885 54.8749 105.861 54.8688 105.836C54.8658 105.824 54.8643 105.811 54.8597 105.798C54.8597 105.798 54.8582 105.798 54.8567 105.798C54.8521 105.783 54.8491 105.768 54.8446 105.753C54.84 105.739 54.8354 105.725 54.8309 105.713C54.8279 105.703 54.8263 105.694 54.8233 105.683C54.8233 105.683 54.8218 105.683 54.8203 105.683C54.8096 105.648 54.799 105.613 54.7854 105.576C54.7823 105.569 54.7823 105.563 54.7793 105.555C54.7793 105.555 54.7778 105.555 54.7762 105.555C54.7747 105.549 54.7717 105.543 54.7702 105.538C54.758 105.505 54.7459 105.472 54.7337 105.437C54.7307 105.429 54.7292 105.421 54.7262 105.414C54.7262 105.414 54.7246 105.414 54.7231 105.415C54.7186 105.405 54.7125 105.393 54.7079 105.382C54.7049 105.374 54.7034 105.368 54.7004 105.361C54.6897 105.335 54.6821 105.309 54.6715 105.285C54.6685 105.279 54.667 105.273 54.6639 105.266C54.6639 105.263 54.6609 105.259 54.6594 105.256C54.6487 105.233 54.6366 105.212 54.626 105.189C54.6093 105.151 54.5956 105.113 54.5774 105.076C54.5774 105.081 54.5774 105.086 54.5774 105.09C54.5774 105.09 54.5774 105.087 54.5759 105.087C54.5364 105.005 54.5 104.923 54.4545 104.844C54.456 104.847 54.4545 104.85 54.4575 104.853C54.3664 104.692 54.2678 104.537 54.16 104.389C54.16 104.389 54.16 104.389 54.1585 104.388C54.0977 104.306 54.0325 104.228 53.9672 104.151H53.9702C53.9642 104.145 53.9581 104.139 53.952 104.133C53.9247 104.102 53.8974 104.072 53.8701 104.043C53.8564 104.028 53.8427 104.011 53.8291 103.996C53.8109 103.976 53.7896 103.961 53.7699 103.941C53.7486 103.92 53.7289 103.897 53.7076 103.877C53.7076 103.877 53.7076 103.877 53.7092 103.876C53.7016 103.868 53.694 103.864 53.6864 103.856C53.6591 103.83 53.6302 103.806 53.6029 103.78C53.6029 103.78 53.6044 103.779 53.6044 103.777C53.5968 103.769 53.5877 103.766 53.5801 103.759C53.5604 103.741 53.5407 103.725 53.5209 103.709C53.5164 103.706 53.5118 103.699 53.5073 103.696C53.5073 103.696 53.5073 103.696 53.5088 103.695C53.5043 103.692 53.4997 103.689 53.4951 103.684C53.4891 103.68 53.4845 103.674 53.4784 103.669C53.4678 103.661 53.4572 103.655 53.4481 103.648C53.439 103.64 53.4299 103.631 53.4208 103.623C53.4208 103.623 53.4177 103.622 53.4162 103.62C53.4117 103.616 53.4056 103.613 53.3995 103.608C53.3767 103.592 53.354 103.576 53.3312 103.561C53.3312 103.561 53.3327 103.56 53.3342 103.56C53.3069 103.54 53.2766 103.523 53.2492 103.505C53.2492 103.505 53.2508 103.503 53.2523 103.503C53.225 103.485 53.1976 103.47 53.1703 103.453C53.146 103.438 53.1217 103.423 53.0975 103.409C53.0686 103.426 53.0413 103.453 53.014 103.475C53.0185 103.468 53.0231 103.461 53.0276 103.455C52.9988 103.475 52.9715 103.505 52.9441 103.529C52.9244 103.544 52.9047 103.557 52.8865 103.573C52.8865 103.573 52.8865 103.572 52.8865 103.57C52.8834 103.573 52.8819 103.576 52.8789 103.579C52.8774 103.581 52.8743 103.582 52.8728 103.584C52.8622 103.593 52.8546 103.607 52.844 103.617C52.8303 103.631 52.8182 103.642 52.8045 103.655C52.7848 103.675 52.7666 103.703 52.7468 103.725C52.7438 103.728 52.7408 103.731 52.7377 103.736C52.7377 103.736 52.7377 103.733 52.7377 103.731C52.7332 103.737 52.7301 103.745 52.7256 103.751C52.7089 103.771 52.6937 103.791 52.6785 103.812C52.6785 103.812 52.6785 103.812 52.677 103.813C52.677 103.813 52.677 103.813 52.677 103.812C52.6755 103.815 52.674 103.818 52.6709 103.821C52.6679 103.826 52.6649 103.829 52.6618 103.832C52.6573 103.838 52.6527 103.845 52.6482 103.853C52.6391 103.865 52.6315 103.876 52.6224 103.888C52.6208 103.891 52.6178 103.892 52.6163 103.896C52.6011 103.917 52.5874 103.944 52.5723 103.967C52.5677 103.975 52.5616 103.981 52.5571 103.988V103.985C52.5525 103.993 52.5495 104.002 52.5449 104.008C52.5282 104.034 52.5131 104.061 52.4979 104.089C52.4979 104.089 52.4979 104.087 52.4979 104.086C52.4949 104.092 52.4918 104.099 52.4873 104.105C52.4812 104.116 52.4736 104.125 52.4675 104.137C52.4615 104.149 52.4554 104.163 52.4478 104.177C52.4432 104.186 52.4387 104.192 52.4341 104.201C52.4341 104.201 52.4341 104.203 52.4326 104.204C52.4311 104.207 52.4296 104.21 52.4281 104.213C52.425 104.219 52.422 104.225 52.4205 104.231C52.4144 104.244 52.4098 104.256 52.4038 104.268C52.3947 104.285 52.3871 104.3 52.378 104.317C52.3749 104.323 52.3719 104.327 52.3689 104.333C52.3689 104.335 52.3673 104.338 52.3658 104.341C52.3613 104.35 52.3567 104.361 52.3522 104.37C52.3476 104.38 52.3431 104.391 52.3385 104.402C52.3309 104.42 52.3218 104.437 52.3127 104.456C52.3097 104.465 52.3051 104.473 52.3021 104.482C52.3021 104.485 52.299 104.487 52.2975 104.49C52.2975 104.49 52.2975 104.493 52.296 104.494C52.2899 104.51 52.2839 104.525 52.2763 104.541C52.2732 104.549 52.2702 104.555 52.2672 104.563C52.2596 104.581 52.2535 104.602 52.2459 104.62C52.2383 104.639 52.2307 104.654 52.2247 104.672C52.2247 104.674 52.2231 104.675 52.2231 104.678C52.2231 104.68 52.2232 104.681 52.2216 104.683C52.2156 104.7 52.2095 104.716 52.2049 104.731C52.2004 104.745 52.1943 104.757 52.1898 104.771C52.1898 104.771 52.1898 104.772 52.1898 104.774C52.1852 104.788 52.1806 104.803 52.1761 104.817C52.1715 104.832 52.167 104.845 52.1609 104.859C52.1503 104.891 52.1397 104.921 52.129 104.952C52.129 104.952 52.129 104.955 52.1275 104.956C52.1275 104.958 52.126 104.961 52.126 104.962C52.1215 104.975 52.1184 104.99 52.1154 105.002C52.1108 105.016 52.1063 105.028 52.1032 105.041C52.0987 105.055 52.0941 105.069 52.0911 105.083C52.0881 105.09 52.0865 105.099 52.0835 105.107C52.079 105.122 52.0744 105.137 52.0714 105.152C52.0668 105.171 52.0623 105.19 52.0577 105.209C52.0577 105.213 52.0547 105.218 52.0531 105.222C52.0531 105.222 52.0531 105.222 52.0531 105.221C52.0531 105.225 52.0516 105.231 52.0501 105.236C52.0471 105.25 52.0425 105.263 52.0395 105.279C52.0258 105.333 52.0122 105.387 52 105.441C52 105.441 52 105.443 52 105.444C52 105.449 51.9985 105.452 51.997 105.456C51.9955 105.466 51.9939 105.475 51.9909 105.482C51.9879 105.497 51.9848 105.514 51.9803 105.529C51.9788 105.538 51.9773 105.549 51.9742 105.558C51.9727 105.566 51.9712 105.572 51.9697 105.58C51.9697 105.586 51.9681 105.59 51.9666 105.596C51.9651 105.607 51.9621 105.618 51.9606 105.628C51.9575 105.64 51.956 105.652 51.953 105.665C51.953 105.668 51.953 105.671 51.9514 105.674C51.9514 105.674 51.9514 105.677 51.9514 105.678C51.9514 105.686 51.9499 105.694 51.9484 105.701C51.9484 105.704 51.9484 105.707 51.9469 105.712C51.9469 105.718 51.9439 105.722 51.9439 105.728C51.9089 105.92 51.8801 106.115 51.8634 106.311C51.8634 106.311 51.8619 106.311 51.8619 106.309C51.868 106.315 51.8695 106.323 51.871 106.33C51.9348 107.084 52.17 107.616 52.4949 107.805L52.5161 107.817L52.6755 107.9C52.7089 107.916 52.7483 107.932 52.7878 107.949C52.803 107.955 52.8182 107.963 52.8333 107.969C52.847 107.975 52.8622 107.982 52.8758 107.987C52.8789 107.987 52.8819 107.99 52.8834 107.99L53.0504 108.046C53.058 108.048 53.0686 108.051 53.0762 108.052C53.099 108.058 53.1187 108.063 53.14 108.068C53.1779 108.077 53.2143 108.086 53.2508 108.092C53.2599 108.093 53.272 108.096 53.2811 108.099L53.2993 108.102C53.3388 108.109 53.3692 108.113 53.4026 108.116L53.4526 108.122H53.4815C53.5027 108.125 53.5225 108.125 53.5437 108.127L53.6636 108.13C53.6834 108.13 53.7061 108.125 53.7274 108.124C53.7501 108.122 53.7729 108.121 53.7942 108.119C53.8139 108.118 53.8336 108.115 53.8534 108.112C53.8716 108.11 53.8913 108.109 53.908 108.107L54.0719 108.071C54.1433 108.049 54.2344 108.014 54.3042 107.987C54.3482 107.964 54.4074 107.934 54.4529 107.911C54.5197 107.871 54.582 107.824 54.6396 107.768C54.6412 107.767 54.6427 107.764 54.6457 107.761C54.6503 107.756 54.6533 107.753 54.6579 107.748C54.6609 107.744 54.6654 107.741 54.6685 107.736C54.6715 107.733 54.6761 107.729 54.6791 107.726C54.6806 107.724 54.6837 107.723 54.6852 107.721C54.6912 107.713 54.6958 107.703 54.7019 107.695C54.7125 107.683 54.7216 107.669 54.7322 107.657C54.7413 107.645 54.7489 107.634 54.758 107.622C54.7641 107.613 54.7717 107.605 54.7762 107.596C54.7808 107.589 54.7869 107.584 54.7914 107.577C54.7945 107.571 54.7975 107.563 54.8005 107.557C54.8066 107.546 54.8127 107.536 54.8187 107.525C54.8248 107.514 54.8294 107.504 54.8354 107.493C54.84 107.484 54.8461 107.473 54.8506 107.464C54.8537 107.46 54.8567 107.455 54.8597 107.45C54.8658 107.437 54.8688 107.419 54.8749 107.403C54.884 107.384 54.8946 107.367 54.9022 107.346C54.9022 107.343 54.9053 107.341 54.9053 107.34C54.9098 107.327 54.9113 107.315 54.9159 107.303C54.922 107.286 54.928 107.268 54.9326 107.25C54.9341 107.245 54.9371 107.242 54.9387 107.236H54.9371C54.9417 107.219 54.9463 107.203 54.9493 107.186C54.9523 107.172 54.9569 107.16 54.9599 107.146C54.9599 107.143 54.9614 107.142 54.9629 107.139C54.9629 107.139 54.9629 107.139 54.9614 107.139C54.9614 107.136 54.9614 107.133 54.9614 107.13C54.9645 107.113 54.969 107.096 54.9721 107.078C54.9736 107.066 54.9781 107.057 54.9796 107.045C54.9781 107.045 54.9766 107.045 54.9736 107.046C54.9736 107.043 54.9736 107.04 54.9736 107.037C54.9781 107.008 54.9872 106.982 54.9918 106.952C54.9903 106.952 54.9872 106.952 54.9857 106.953C54.9903 106.922 54.9979 106.894 55.0009 106.861C54.9994 106.861 54.9963 106.861 54.9948 106.862C54.9979 106.83 55.0055 106.803 55.007 106.77C55.0055 106.77 55.0024 106.77 55.0009 106.771C55.0009 106.741 55.0085 106.716 55.0085 106.686C55.0085 106.683 55.0085 106.681 55.0085 106.678L54.9812 106.675Z" fill="#2B303F"/>
<path d="M55.5792 106.432L55.5883 106.384C55.5914 106.362 55.5929 106.337 55.5959 106.312C55.5959 106.303 55.599 106.296 55.599 106.286C55.6096 106.207 55.6141 106.128 55.6172 106.046C55.6217 105.872 55.6111 105.733 55.599 105.647C55.5898 105.571 55.5792 105.496 55.564 105.42L55.5291 105.261L55.4973 105.14L55.4897 105.118C55.4897 105.118 55.4851 105.102 55.4836 105.096L55.4654 105.04L55.4487 104.985C55.4487 104.985 55.4487 104.992 55.4502 104.995L55.4335 104.944C55.4335 104.944 55.4305 104.937 55.429 104.934C55.4153 104.896 55.4016 104.858 55.3849 104.82C55.3819 104.812 55.3789 104.803 55.3758 104.795L55.3364 104.706C55.3288 104.688 55.3212 104.669 55.3121 104.65C55.2923 104.609 55.265 104.555 55.2453 104.514L55.1709 104.379C55.1481 104.34 55.1147 104.286 55.0905 104.248L55.0055 104.121C55.0055 104.121 55.0055 104.119 55.0039 104.118H55.0024C54.9751 104.08 54.9387 104.031 54.9113 103.995L54.8127 103.873C54.7808 103.835 54.7353 103.786 54.7019 103.748L54.5926 103.639C54.5926 103.639 54.6032 103.65 54.6093 103.654C54.6032 103.648 54.5941 103.639 54.588 103.633C54.5865 103.633 54.585 103.63 54.582 103.628C54.5759 103.622 54.5683 103.615 54.5622 103.61C54.5622 103.61 54.5531 103.602 54.5486 103.599C54.5455 103.596 54.5425 103.595 54.5395 103.592C54.5273 103.581 54.5167 103.57 54.5045 103.56C54.4863 103.543 54.4681 103.526 54.4529 103.513L54.3209 103.406C54.3087 103.397 54.292 103.387 54.2784 103.376C54.2693 103.368 54.2587 103.362 54.2495 103.355C54.2177 103.332 54.1858 103.309 54.1585 103.291C54.1129 103.263 54.0522 103.225 54.0082 103.197C53.9915 103.186 53.9733 103.178 53.9566 103.169C53.9642 103.172 53.9687 103.177 53.9763 103.181C53.9505 103.169 53.9247 103.156 53.8989 103.146C53.9065 103.151 53.9156 103.156 53.9247 103.16C53.9019 103.151 53.8777 103.142 53.8549 103.136C53.8503 103.136 53.8473 103.131 53.8427 103.131C53.8427 103.131 53.8428 103.131 53.8443 103.131C53.8367 103.13 53.8276 103.131 53.8185 103.13C53.8094 103.13 53.8018 103.127 53.7927 103.125C53.7896 103.125 53.7866 103.122 53.7835 103.122C53.7851 103.122 53.7866 103.125 53.7896 103.125C53.7851 103.125 53.7805 103.127 53.776 103.125C53.7653 103.125 53.7562 103.122 53.7456 103.122C53.741 103.122 53.7365 103.121 53.7304 103.121C53.7274 103.121 53.7259 103.121 53.7228 103.121C53.7107 103.121 53.697 103.127 53.6834 103.127C53.6743 103.127 53.6652 103.125 53.656 103.127C53.6591 103.127 53.6621 103.13 53.6652 103.13C53.6409 103.133 53.6181 103.136 53.5938 103.142C53.5877 103.143 53.5832 103.142 53.5771 103.143C53.5771 103.143 53.5786 103.143 53.5802 103.143C53.5377 103.156 53.4936 103.175 53.4496 103.198C53.4435 103.201 53.4375 103.2 53.4314 103.203C53.4344 103.203 53.439 103.203 53.442 103.203C53.4299 103.209 53.4162 103.212 53.4041 103.219L53.0899 103.402C53.2189 103.476 53.3449 103.564 53.4663 103.663C53.4693 103.666 53.4724 103.668 53.4754 103.671C53.5953 103.77 53.7122 103.879 53.823 103.998C53.8261 104.001 53.8291 104.004 53.8321 104.007C53.9414 104.124 54.0461 104.25 54.1433 104.382C54.1448 104.385 54.1463 104.387 54.1494 104.39C54.163 104.408 54.1736 104.429 54.1873 104.449C54.2753 104.574 54.3604 104.7 54.4362 104.833C54.5167 104.975 54.5911 105.122 54.6563 105.27C54.6579 105.274 54.6594 105.277 54.6609 105.282C54.7262 105.432 54.7823 105.586 54.8294 105.739C54.8294 105.744 54.8324 105.748 54.8339 105.753C54.881 105.908 54.9174 106.065 54.9417 106.218C54.9417 106.218 54.9417 106.218 54.9417 106.22C54.966 106.376 54.9797 106.53 54.9797 106.68C54.9797 106.828 54.966 106.964 54.9402 107.09C54.9402 107.093 54.9402 107.098 54.9387 107.101C54.9129 107.226 54.8764 107.34 54.8294 107.44C54.8294 107.442 54.8279 107.443 54.8263 107.445C54.7884 107.527 54.7383 107.595 54.6867 107.66C54.6685 107.683 54.6518 107.708 54.6321 107.729C54.5683 107.797 54.5 107.856 54.4226 107.902L54.7368 107.72C54.9083 107.612 54.9189 107.601 55.0859 107.445L55.1952 107.317L55.2468 107.247L55.3181 107.135C55.3181 107.135 55.3272 107.121 55.3303 107.116L55.3333 107.11L55.3379 107.104C55.3379 107.104 55.3364 107.107 55.3348 107.109L55.4107 106.964C55.435 106.911 55.4502 106.872 55.4639 106.837C55.4684 106.828 55.4714 106.817 55.4745 106.808C55.4851 106.78 55.4927 106.752 55.5018 106.724C55.5048 106.717 55.5079 106.707 55.5109 106.7L55.5337 106.616C55.5398 106.597 55.5428 106.583 55.5504 106.559L55.5534 106.543L55.5565 106.53C55.5565 106.53 55.5549 106.536 55.5534 106.54C55.561 106.502 55.5686 106.467 55.5747 106.432H55.5792ZM55.2711 107.212C55.2772 107.203 55.2832 107.194 55.2893 107.185C55.2832 107.194 55.2756 107.204 55.2711 107.212Z" fill="#1F222D"/>
<path d="M82.6266 87.1057L82.663 103.943L112.966 87.5222C114.083 85.0919 115.903 82.879 117.962 81.689C120.16 80.4184 122.09 80.6251 123.191 81.9808L135 75.5807L134.967 60.3047L82.6266 87.1042V87.1057Z" fill="#994141"/>
<path d="M58.6438 112.989C58.6438 112.989 57.6906 113.118 56.2683 114.499C54.8461 115.883 56.2623 112.08 56.2911 112.086C56.3199 112.092 58.6423 112.989 58.6423 112.989H58.6438Z" fill="#994141"/>
<path d="M134.885 21.9482L82.5476 50.3102L82.6235 88.4796L134.964 61.6801L134.885 21.9482Z" fill="#DDDDDD"/>
<path d="M82.5932 50.5168L44.4728 28.2418L96.8401 0L134.872 21.9846L82.5932 50.5168Z" fill="#EFEFEF"/>
<path opacity="0.31" d="M15.0256 85.6345L42.6331 72.5197L23.3877 61.2773L15.0256 85.6345Z" fill="#B3B9CE"/>
<path opacity="0.19" d="M18.9084 74.3572L32.9778 66.9661L23.3877 61.2773L18.9084 74.3572Z" fill="#EFEFEF"/>
<g style="mix-blend-mode:multiply" opacity="0.32">
<path d="M38.9416 69.5408L29.7993 96.1792L28.9508 95.7141L38.0931 69.0757L38.9416 69.5408Z" fill="#191A22"/>
</g>
<g opacity="0.53">
<path d="M40.6871 71.3051L40.2621 72.5407L42.5375 73.939L41.7557 76.2112L36.3308 72.9709L37.111 70.7002L39.5442 72.0985L39.9677 70.8628L40.6871 71.3051Z" fill="#191A22"/>
</g>
<path d="M21.3158 56.6904L11.6119 86.6315L46.6813 107.038L56.3852 77.0974L21.3158 56.6904ZM44.6686 102.789L15.0256 85.4718L23.3361 61.2773L53.14 78.6872L44.6686 102.789Z" fill="#C6C6C6"/>
<path d="M55.6749 40.7821L55.6627 45.0605L46.9864 40.045L46.9986 35.7666L55.6749 40.7821Z" fill="#B65D5B"/>
<path d="M79.7001 54.7767L79.6879 59.0551L71.0116 54.0396L71.0238 49.7612L79.7001 54.7767Z" fill="#B65D5B"/>
<path d="M94.3523 48.1987L94.3644 52.4771L85.6882 57.4926L85.676 53.2142L94.3523 48.1987Z" fill="#994141"/>
<path d="M107.816 40.9673L107.828 45.2457L99.1519 50.2612L99.1397 45.9828L107.816 40.9673Z" fill="#A7BFD7"/>
<path d="M120.639 34.0625L120.651 38.3409L111.974 43.3564L111.961 39.078L120.639 34.0625Z" fill="#A7BFD7"/>
<path d="M132.667 27.5957L132.679 31.8741L124.003 36.8896L123.991 32.6112L132.667 27.5957Z" fill="#994141"/>
<path d="M118.476 46.1577L112.16 49.8099L112.198 63.9126L118.476 60.2832V46.1577Z" fill="#A7BFD7"/>
<g opacity="0.37">
<path d="M118.476 46.1577L112.16 49.8099L112.174 55.0504L118.476 51.3845V46.1577Z" fill="#EFEFEF"/>
</g>
<path d="M127.081 41.0164C123.636 43.0089 120.85 47.839 120.861 51.8043C120.871 55.7681 123.675 57.367 127.122 55.376C130.568 53.385 133.352 48.5549 133.341 44.5911C133.33 40.6258 130.527 39.0269 127.081 41.0179V41.0164ZM128.517 49.0321L128.526 52.3104L125.677 53.9579L125.668 50.6796L122.819 52.3271L122.81 49.0488L125.659 47.4013L125.65 44.0956L128.499 42.4481L128.508 45.7538L131.381 44.0926L131.39 47.3709L128.517 49.0321Z" fill="#783333"/>
<path d="M25.5386 113.812L25.5188 114.016L14.1999 107.304L14.1392 107.95L13.9662 107.847L14.0466 106.997L25.5386 113.812Z" fill="#303030"/>
<path d="M14.206 105.283L14.127 106.135L14.3001 106.237L14.3608 105.591L25.6797 112.304L25.619 112.95L14.127 106.135L14.206 105.283Z" fill="#3F3F3F"/>
<path d="M25.698 112.098L25.6797 112.304L14.3608 105.591L14.3001 106.237L14.127 106.135L14.206 105.283L25.698 112.098Z" fill="#303030"/>
<path d="M11.6863 100.834L11.0822 107.722L28.1387 117.399L28.7429 110.804L11.6863 100.836V100.834ZM25.5188 114.016L25.4581 114.662L13.9662 107.847L14.0451 106.995L25.5371 113.81L25.5173 114.014L25.5188 114.016ZM25.6797 112.304L25.619 112.95L14.127 106.135L14.2075 105.283L25.6995 112.098L25.6797 112.304ZM25.8391 110.59L25.7784 111.236L14.2864 104.421L14.3654 103.57L25.8573 110.385L25.8376 110.588L25.8391 110.59Z" fill="#C6C6C6"/>
<path d="M14.0466 106.997L13.9662 107.847L14.1392 107.95L14.1999 107.304L25.5188 114.016L25.4581 114.662L13.9662 107.847L14.0466 106.997Z" fill="#3F3F3F"/>
<path d="M25.8589 110.386L25.8391 110.59L14.5217 103.878L14.461 104.524L14.2879 104.421L14.3669 103.571L25.8589 110.386Z" fill="#303030"/>
<path d="M14.3669 103.571L14.2879 104.421L14.461 104.524L14.5217 103.878L25.8391 110.59L25.7784 111.236L14.2879 104.421L14.3669 103.571Z" fill="#3F3F3F"/>
<path d="M5.61618 99.6593L5.35662 102.43L3.00844 101.036L3.268 98.2656L5.61618 99.6593Z" fill="#934742"/>
<path d="M7.97199 101.056L7.71243 103.827L5.36273 102.433L5.61622 99.6592L7.97199 101.056Z" fill="#D9D9D9"/>
<path d="M36.2822 117.197L36.0227 119.966L33.6684 118.571L33.9341 115.803L36.2822 117.197Z" fill="#934742"/>
<path d="M33.9341 115.803L33.6745 118.574L31.3187 117.177L31.5783 114.406L33.9341 115.803Z" fill="#D9D9D9"/>
<path d="M36.7755 127.05L36.7679 129.754L0 108.499L0.00758947 105.795L36.7755 127.05Z" fill="#BFBFBF"/>
<path d="M36.7755 127.05L38.2509 126.191L38.2433 128.895L36.7679 129.753L36.7755 127.05Z" fill="#C6C6C6"/>
<path d="M0.00737 105.795L1.48276 104.936L38.2507 126.191L36.7753 127.05L0.00737 105.795Z" fill="#E9E9E9"/>
<path d="M36.7695 127.05L36.7771 129.754L52.6694 120.829L52.6618 118.125L36.7695 127.05Z" fill="#A8A8A8"/>
<path d="M52.6618 118.125L51.1864 117.267L35.2956 126.191L36.7695 127.05L52.6618 118.125Z" fill="#E9E9E9"/>
<path d="M23.2663 120.472L23.2557 124.059L12.3192 117.736L12.3283 114.149L23.2663 120.472Z" fill="#D9D9D9"/>
</svg>
